<?xml version="1.0" encoding="UTF-8" standalone="no"?>
<!DOCTYPE svg PUBLIC "-//W3C//DTD SVG 1.1//EN"
 "http://www.w3.org/Graphics/SVG/1.1/DTD/svg11.dtd">
<!-- Generated by graphviz version 2.40.1 (20161225.0304)
 -->
<!-- Title: DptDptCorrelationsFilterAnalysisTask Pages: 1 -->
<svg width="1576pt" height="948pt"
 viewBox="0.00 0.00 1575.50 948.00" xmlns="http://www.w3.org/2000/svg" xmlns:xlink="http://www.w3.org/1999/xlink">
<g id="graph0" class="graph" transform="scale(1 1) rotate(0) translate(4 944)">
<title>DptDptCorrelationsFilterAnalysisTask</title>
<!-- Node1 -->
<g id="node1" class="node">
<title>Node1</title>
<polygon fill="#bfbfbf" stroke="#000000" points="331.5,-.5 331.5,-112.5 465.5,-112.5 465.5,-.5 331.5,-.5"/>
<text text-anchor="start" x="339.5" y="-100.5" font-family="Helvetica,sans-Serif" font-size="10.00" fill="#000000">DptDptCorrelationsFilter</text>
<text text-anchor="middle" x="398.5" y="-89.5" font-family="Helvetica,sans-Serif" font-size="10.00" fill="#000000">AnalysisTask</text>
<polyline fill="none" stroke="#000000" points="331.5,-82.5 465.5,-82.5 "/>
<text text-anchor="start" x="339.5" y="-70.5" font-family="Helvetica,sans-Serif" font-size="10.00" fill="#000000">+ fOutCentMultB</text>
<text text-anchor="start" x="339.5" y="-59.5" font-family="Helvetica,sans-Serif" font-size="10.00" fill="#000000">+ fOutCentMultA</text>
<text text-anchor="start" x="339.5" y="-48.5" font-family="Helvetica,sans-Serif" font-size="10.00" fill="#000000">+ fOutVertexZB</text>
<text text-anchor="start" x="339.5" y="-37.5" font-family="Helvetica,sans-Serif" font-size="10.00" fill="#000000">+ fOutVertexZA</text>
<polyline fill="none" stroke="#000000" points="331.5,-30.5 465.5,-30.5 "/>
<text text-anchor="start" x="339.5" y="-18.5" font-family="Helvetica,sans-Serif" font-size="10.00" fill="#000000">+ init()</text>
<text text-anchor="start" x="339.5" y="-7.5" font-family="Helvetica,sans-Serif" font-size="10.00" fill="#000000">+ process()</text>
</g>
<!-- Node2 -->
<g id="node2" class="node">
<title>Node2</title>
<g id="a_node2"><a xlink:href="../../d6/d86/structo2_1_1framework_1_1Produces.html" target="_top" xlink:title="{o2::framework::Produces\l\&lt; aod::AcceptedEvents \&gt;\n||}">
<polygon fill="none" stroke="#000000" points="19,-320 19,-388 160,-388 160,-320 19,-320"/>
<text text-anchor="start" x="27" y="-376" font-family="Helvetica,sans-Serif" font-size="10.00" fill="#000000">o2::framework::Produces</text>
<text text-anchor="middle" x="89.5" y="-365" font-family="Helvetica,sans-Serif" font-size="10.00" fill="#000000">&lt; aod::AcceptedEvents &gt;</text>
<polyline fill="none" stroke="#000000" points="19,-358 160,-358 "/>
<text text-anchor="middle" x="89.5" y="-346" font-family="Helvetica,sans-Serif" font-size="10.00" fill="#000000"> </text>
<polyline fill="none" stroke="#000000" points="19,-339 160,-339 "/>
<text text-anchor="middle" x="89.5" y="-327" font-family="Helvetica,sans-Serif" font-size="10.00" fill="#000000"> </text>
</a>
</g>
</g>
<!-- Node2&#45;&gt;Node1 -->
<g id="edge1" class="edge">
<title>Node2&#45;&gt;Node1</title>
<path fill="none" stroke="#404040" d="M104.8506,-319.9357C127.8561,-272.1728 175.4032,-185.0982 238.5,-131 262.2162,-110.6661 292.4193,-94.7121 320.1809,-82.8745"/>
<polygon fill="none" stroke="#404040" points="320.3975,-82.7854 324.4221,-76.8018 331.4933,-78.2154 327.4687,-84.199 320.3975,-82.7854"/>
<text text-anchor="middle" x="283" y="-189" font-family="Helvetica,sans-Serif" font-size="10.00" fill="#000000"> +acceptedevents</text>
</g>
<!-- Node3 -->
<g id="node3" class="node">
<title>Node3</title>
<g id="a_node3"><a xlink:href="../../d6/d86/structo2_1_1framework_1_1Produces.html" target="_top" xlink:title="{o2::framework::Produces\&lt; T \&gt;\n||}">
<polygon fill="none" stroke="#000000" points="0,-535 0,-592 167,-592 167,-535 0,-535"/>
<text text-anchor="middle" x="83.5" y="-580" font-family="Helvetica,sans-Serif" font-size="10.00" fill="#000000">o2::framework::Produces&lt; T &gt;</text>
<polyline fill="none" stroke="#000000" points="0,-573 167,-573 "/>
<text text-anchor="middle" x="83.5" y="-561" font-family="Helvetica,sans-Serif" font-size="10.00" fill="#000000"> </text>
<polyline fill="none" stroke="#000000" points="0,-554 167,-554 "/>
<text text-anchor="middle" x="83.5" y="-542" font-family="Helvetica,sans-Serif" font-size="10.00" fill="#000000"> </text>
</a>
</g>
</g>
<!-- Node3&#45;&gt;Node2 -->
<g id="edge2" class="edge">
<title>Node3&#45;&gt;Node2</title>
<path fill="none" stroke="#ffa500" d="M36.2941,-527.9578C16.2104,-508.2386 -.7105,-482.4091 8.5,-456 17.4359,-430.3782 35.7923,-406.3647 52.7739,-388.0816"/>
<polygon fill="#ffa500" stroke="#ffa500" points="34.0887,-530.6865 43.794,-534.9361 38.8571,-525.5618 34.0887,-530.6865"/>
<text text-anchor="middle" x="72.5" y="-459" font-family="Helvetica,sans-Serif" font-size="10.00" fill="#000000"> &lt; aod::AcceptedEvents &gt;</text>
</g>
<!-- Node4 -->
<g id="node4" class="node">
<title>Node4</title>
<g id="a_node4"><a xlink:href="../../d6/d86/structo2_1_1framework_1_1Produces.html" target="_top" xlink:title="{o2::framework::Produces\l\&lt; aod::ScannedTracks \&gt;\n||}">
<polygon fill="none" stroke="#000000" points="235.5,-320 235.5,-388 373.5,-388 373.5,-320 235.5,-320"/>
<text text-anchor="start" x="243.5" y="-376" font-family="Helvetica,sans-Serif" font-size="10.00" fill="#000000">o2::framework::Produces</text>
<text text-anchor="middle" x="304.5" y="-365" font-family="Helvetica,sans-Serif" font-size="10.00" fill="#000000">&lt; aod::ScannedTracks &gt;</text>
<polyline fill="none" stroke="#000000" points="235.5,-358 373.5,-358 "/>
<text text-anchor="middle" x="304.5" y="-346" font-family="Helvetica,sans-Serif" font-size="10.00" fill="#000000"> </text>
<polyline fill="none" stroke="#000000" points="235.5,-339 373.5,-339 "/>
<text text-anchor="middle" x="304.5" y="-327" font-family="Helvetica,sans-Serif" font-size="10.00" fill="#000000"> </text>
</a>
</g>
</g>
<!-- Node3&#45;&gt;Node4 -->
<g id="edge4" class="edge">
<title>Node3&#45;&gt;Node4</title>
<path fill="none" stroke="#ffa500" d="M105.5793,-525.8559C119.4327,-504.0419 138.5945,-476.8563 159.5,-456 185.429,-430.132 218.5837,-406.2731 246.6437,-388.1449"/>
<polygon fill="#ffa500" stroke="#ffa500" points="102.4878,-524.1988 100.1648,-534.5358 108.4271,-527.9036 102.4878,-524.1988"/>
<text text-anchor="middle" x="220.5" y="-459" font-family="Helvetica,sans-Serif" font-size="10.00" fill="#000000"> &lt; aod::ScannedTracks &gt;</text>
</g>
<!-- Node4&#45;&gt;Node1 -->
<g id="edge3" class="edge">
<title>Node4&#45;&gt;Node1</title>
<path fill="none" stroke="#404040" d="M312.7653,-319.9877C323.7792,-275.9193 344.5634,-196.9239 367.5,-131 368.2768,-128.7672 369.0859,-126.5051 369.9197,-124.2272"/>
<polygon fill="none" stroke="#404040" points="370.009,-123.9914 368.3931,-116.9636 374.2587,-112.769 375.8746,-119.7968 370.009,-123.9914"/>
<text text-anchor="middle" x="408.5" y="-189" font-family="Helvetica,sans-Serif" font-size="10.00" fill="#000000"> +scannedtracks</text>
</g>
<!-- Node5 -->
<g id="node5" class="node">
<title>Node5</title>
<g id="a_node5"><a xlink:href="../../d4/d79/structo2_1_1framework_1_1OutputObj.html" target="_top" xlink:title="{o2::framework::OutputObj\l\&lt; TDirectory \&gt;\n||+ spec()\l+ OutputObj()\l+ OutputObj()\l+ setObject()\l+ setObject()\l+ setObject()\l+ setHash()\l+ operator&#45;\&gt;()\l+ operator*()\l+ ref()\l}">
<polygon fill="none" stroke="#000000" points="421,-270.5 421,-437.5 564,-437.5 564,-270.5 421,-270.5"/>
<text text-anchor="start" x="429" y="-425.5" font-family="Helvetica,sans-Serif" font-size="10.00" fill="#000000">o2::framework::OutputObj</text>
<text text-anchor="middle" x="492.5" y="-414.5" font-family="Helvetica,sans-Serif" font-size="10.00" fill="#000000">&lt; TDirectory &gt;</text>
<polyline fill="none" stroke="#000000" points="421,-407.5 564,-407.5 "/>
<text text-anchor="middle" x="492.5" y="-395.5" font-family="Helvetica,sans-Serif" font-size="10.00" fill="#000000"> </text>
<polyline fill="none" stroke="#000000" points="421,-388.5 564,-388.5 "/>
<text text-anchor="start" x="429" y="-376.5" font-family="Helvetica,sans-Serif" font-size="10.00" fill="#000000">+ spec()</text>
<text text-anchor="start" x="429" y="-365.5" font-family="Helvetica,sans-Serif" font-size="10.00" fill="#000000">+ OutputObj()</text>
<text text-anchor="start" x="429" y="-354.5" font-family="Helvetica,sans-Serif" font-size="10.00" fill="#000000">+ OutputObj()</text>
<text text-anchor="start" x="429" y="-343.5" font-family="Helvetica,sans-Serif" font-size="10.00" fill="#000000">+ setObject()</text>
<text text-anchor="start" x="429" y="-332.5" font-family="Helvetica,sans-Serif" font-size="10.00" fill="#000000">+ setObject()</text>
<text text-anchor="start" x="429" y="-321.5" font-family="Helvetica,sans-Serif" font-size="10.00" fill="#000000">+ setObject()</text>
<text text-anchor="start" x="429" y="-310.5" font-family="Helvetica,sans-Serif" font-size="10.00" fill="#000000">+ setHash()</text>
<text text-anchor="start" x="429" y="-299.5" font-family="Helvetica,sans-Serif" font-size="10.00" fill="#000000">+ operator&#45;&gt;()</text>
<text text-anchor="start" x="429" y="-288.5" font-family="Helvetica,sans-Serif" font-size="10.00" fill="#000000">+ operator*()</text>
<text text-anchor="start" x="429" y="-277.5" font-family="Helvetica,sans-Serif" font-size="10.00" fill="#000000">+ ref()</text>
</a>
</g>
</g>
<!-- Node5&#45;&gt;Node1 -->
<g id="edge5" class="edge">
<title>Node5&#45;&gt;Node1</title>
<path fill="none" stroke="#404040" d="M484.6061,-270.3591C478.5308,-227.4703 467.9137,-175.1185 449.5,-131 448.4699,-128.5319 447.3505,-126.0619 446.1584,-123.6011"/>
<polygon fill="none" stroke="#404040" points="446.1156,-123.5198 439.7781,-120.0792 440.5165,-112.906 446.854,-116.3465 446.1156,-123.5198"/>
<text text-anchor="middle" x="506" y="-189" font-family="Helvetica,sans-Serif" font-size="10.00" fill="#000000"> +fOutput</text>
</g>
<!-- Node6 -->
<g id="node6" class="node">
<title>Node6</title>
<polygon fill="none" stroke="#bfbfbf" points="1059,-717 1059,-774 1198,-774 1198,-717 1059,-717"/>
<text text-anchor="middle" x="1128.5" y="-762" font-family="Helvetica,sans-Serif" font-size="10.00" fill="#000000">OutputObjHandlingPolicy</text>
<polyline fill="none" stroke="#bfbfbf" points="1059,-755 1198,-755 "/>
<text text-anchor="middle" x="1128.5" y="-743" font-family="Helvetica,sans-Serif" font-size="10.00" fill="#000000"> </text>
<polyline fill="none" stroke="#bfbfbf" points="1059,-736 1198,-736 "/>
<text text-anchor="middle" x="1128.5" y="-724" font-family="Helvetica,sans-Serif" font-size="10.00" fill="#000000"> </text>
</g>
<!-- Node6&#45;&gt;Node5 -->
<g id="edge6" class="edge">
<title>Node6&#45;&gt;Node5</title>
<path fill="none" stroke="#404040" d="M1124.6036,-716.8523C1122.1381,-700.1781 1118.6381,-678.8031 1114.5,-660 1112.7154,-651.8911 1111.6601,-650.017 1109.5,-642 1090.7374,-572.3656 1120.2998,-535.1774 1068.5,-485 998.9384,-417.6171 718.4952,-378.3562 576.1996,-362.3992"/>
<polygon fill="none" stroke="#404040" points="576.0457,-362.3822 569.6423,-365.6985 564.1184,-361.0632 570.5217,-357.747 576.0457,-362.3822"/>
<text text-anchor="middle" x="1130" y="-561" font-family="Helvetica,sans-Serif" font-size="10.00" fill="#000000"> +policy</text>
</g>
<!-- Node14 -->
<g id="node14" class="node">
<title>Node14</title>
<g id="a_node14"><a xlink:href="../../d4/d79/structo2_1_1framework_1_1OutputObj.html" target="_top" xlink:title="{o2::framework::OutputObj\&lt; T \&gt;\n||+ OutputObj()\l+ OutputObj()\l+ setObject()\l+ setObject()\l+ setObject()\l+ setHash()\l+ spec()\l+ operator&#45;\&gt;()\l+ operator*()\l+ ref()\l}">
<polygon fill="none" stroke="#000000" points="887.5,-485.5 887.5,-641.5 1059.5,-641.5 1059.5,-485.5 887.5,-485.5"/>
<text text-anchor="middle" x="973.5" y="-629.5" font-family="Helvetica,sans-Serif" font-size="10.00" fill="#000000">o2::framework::OutputObj&lt; T &gt;</text>
<polyline fill="none" stroke="#000000" points="887.5,-622.5 1059.5,-622.5 "/>
<text text-anchor="middle" x="973.5" y="-610.5" font-family="Helvetica,sans-Serif" font-size="10.00" fill="#000000"> </text>
<polyline fill="none" stroke="#000000" points="887.5,-603.5 1059.5,-603.5 "/>
<text text-anchor="start" x="895.5" y="-591.5" font-family="Helvetica,sans-Serif" font-size="10.00" fill="#000000">+ OutputObj()</text>
<text text-anchor="start" x="895.5" y="-580.5" font-family="Helvetica,sans-Serif" font-size="10.00" fill="#000000">+ OutputObj()</text>
<text text-anchor="start" x="895.5" y="-569.5" font-family="Helvetica,sans-Serif" font-size="10.00" fill="#000000">+ setObject()</text>
<text text-anchor="start" x="895.5" y="-558.5" font-family="Helvetica,sans-Serif" font-size="10.00" fill="#000000">+ setObject()</text>
<text text-anchor="start" x="895.5" y="-547.5" font-family="Helvetica,sans-Serif" font-size="10.00" fill="#000000">+ setObject()</text>
<text text-anchor="start" x="895.5" y="-536.5" font-family="Helvetica,sans-Serif" font-size="10.00" fill="#000000">+ setHash()</text>
<text text-anchor="start" x="895.5" y="-525.5" font-family="Helvetica,sans-Serif" font-size="10.00" fill="#000000">+ spec()</text>
<text text-anchor="start" x="895.5" y="-514.5" font-family="Helvetica,sans-Serif" font-size="10.00" fill="#000000">+ operator&#45;&gt;()</text>
<text text-anchor="start" x="895.5" y="-503.5" font-family="Helvetica,sans-Serif" font-size="10.00" fill="#000000">+ operator*()</text>
<text text-anchor="start" x="895.5" y="-492.5" font-family="Helvetica,sans-Serif" font-size="10.00" fill="#000000">+ ref()</text>
</a>
</g>
</g>
<!-- Node6&#45;&gt;Node14 -->
<g id="edge16" class="edge">
<title>Node6&#45;&gt;Node14</title>
<path fill="none" stroke="#404040" d="M1071.6876,-716.9518C1052.1449,-704.9195 1031.4445,-689.3989 1016.5,-671 1011.801,-665.2149 1007.5612,-658.8505 1003.7461,-652.1959"/>
<polygon fill="none" stroke="#404040" points="1003.718,-652.1429 997.373,-648.7164 998.0955,-641.5415 1004.4405,-644.968 1003.718,-652.1429"/>
<text text-anchor="middle" x="1037" y="-663" font-family="Helvetica,sans-Serif" font-size="10.00" fill="#000000"> +policy</text>
</g>
<!-- Node16 -->
<g id="node16" class="node">
<title>Node16</title>
<g id="a_node16"><a xlink:href="../../d4/d79/structo2_1_1framework_1_1OutputObj.html" target="_top" xlink:title="{o2::framework::OutputObj\l\&lt; TH1F \&gt;\n||+ spec()\l+ OutputObj()\l+ OutputObj()\l+ setObject()\l+ setObject()\l+ setObject()\l+ setHash()\l+ operator&#45;\&gt;()\l+ operator*()\l+ ref()\l}">
<polygon fill="none" stroke="#000000" points="1138,-270.5 1138,-437.5 1281,-437.5 1281,-270.5 1138,-270.5"/>
<text text-anchor="start" x="1146" y="-425.5" font-family="Helvetica,sans-Serif" font-size="10.00" fill="#000000">o2::framework::OutputObj</text>
<text text-anchor="middle" x="1209.5" y="-414.5" font-family="Helvetica,sans-Serif" font-size="10.00" fill="#000000">&lt; TH1F &gt;</text>
<polyline fill="none" stroke="#000000" points="1138,-407.5 1281,-407.5 "/>
<text text-anchor="middle" x="1209.5" y="-395.5" font-family="Helvetica,sans-Serif" font-size="10.00" fill="#000000"> </text>
<polyline fill="none" stroke="#000000" points="1138,-388.5 1281,-388.5 "/>
<text text-anchor="start" x="1146" y="-376.5" font-family="Helvetica,sans-Serif" font-size="10.00" fill="#000000">+ spec()</text>
<text text-anchor="start" x="1146" y="-365.5" font-family="Helvetica,sans-Serif" font-size="10.00" fill="#000000">+ OutputObj()</text>
<text text-anchor="start" x="1146" y="-354.5" font-family="Helvetica,sans-Serif" font-size="10.00" fill="#000000">+ OutputObj()</text>
<text text-anchor="start" x="1146" y="-343.5" font-family="Helvetica,sans-Serif" font-size="10.00" fill="#000000">+ setObject()</text>
<text text-anchor="start" x="1146" y="-332.5" font-family="Helvetica,sans-Serif" font-size="10.00" fill="#000000">+ setObject()</text>
<text text-anchor="start" x="1146" y="-321.5" font-family="Helvetica,sans-Serif" font-size="10.00" fill="#000000">+ setObject()</text>
<text text-anchor="start" x="1146" y="-310.5" font-family="Helvetica,sans-Serif" font-size="10.00" fill="#000000">+ setHash()</text>
<text text-anchor="start" x="1146" y="-299.5" font-family="Helvetica,sans-Serif" font-size="10.00" fill="#000000">+ operator&#45;&gt;()</text>
<text text-anchor="start" x="1146" y="-288.5" font-family="Helvetica,sans-Serif" font-size="10.00" fill="#000000">+ operator*()</text>
<text text-anchor="start" x="1146" y="-277.5" font-family="Helvetica,sans-Serif" font-size="10.00" fill="#000000">+ ref()</text>
</a>
</g>
</g>
<!-- Node6&#45;&gt;Node16 -->
<g id="edge23" class="edge">
<title>Node6&#45;&gt;Node16</title>
<path fill="none" stroke="#404040" d="M1160.1566,-716.7226C1178.7345,-697.6061 1200.4757,-670.7949 1210.5,-642 1231.9093,-580.5015 1231.2764,-507.0381 1225.4877,-449.7003"/>
<polygon fill="none" stroke="#404040" points="1225.4822,-449.6491 1220.8548,-444.1185 1224.1803,-437.7199 1228.8076,-443.2505 1225.4822,-449.6491"/>
<text text-anchor="middle" x="1249" y="-561" font-family="Helvetica,sans-Serif" font-size="10.00" fill="#000000"> +policy</text>
</g>
<!-- Node7 -->
<g id="node7" class="node">
<title>Node7</title>
<polygon fill="none" stroke="#bfbfbf" points="1110,-866 1110,-923 1139,-923 1139,-866 1110,-866"/>
<text text-anchor="middle" x="1124.5" y="-911" font-family="Helvetica,sans-Serif" font-size="10.00" fill="#000000">int</text>
<polyline fill="none" stroke="#bfbfbf" points="1110,-904 1139,-904 "/>
<text text-anchor="middle" x="1124.5" y="-892" font-family="Helvetica,sans-Serif" font-size="10.00" fill="#000000"> </text>
<polyline fill="none" stroke="#bfbfbf" points="1110,-885 1139,-885 "/>
<text text-anchor="middle" x="1124.5" y="-873" font-family="Helvetica,sans-Serif" font-size="10.00" fill="#000000"> </text>
</g>
<!-- Node7&#45;&gt;Node5 -->
<g id="edge7" class="edge">
<title>Node7&#45;&gt;Node5</title>
<path fill="none" stroke="#404040" d="M1109.902,-892.924C1050.2893,-886.239 819.8783,-857.965 638.5,-802 499.0872,-758.9837 438.163,-776.6091 337.5,-671 292.1986,-623.4727 296.697,-547.2781 326.5,-485 327.7727,-482.3406 369.5869,-449.3489 410.925,-417.1437"/>
<polygon fill="none" stroke="#404040" points="411.0872,-417.0174 413.3652,-410.1755 420.557,-409.6468 418.279,-416.4887 411.0872,-417.0174"/>
<text text-anchor="middle" x="355.5" y="-663" font-family="Helvetica,sans-Serif" font-size="10.00" fill="#000000"> +label</text>
</g>
<!-- Node10 -->
<g id="node10" class="node">
<title>Node10</title>
<g id="a_node10"><a xlink:href="../../da/d96/structo2_1_1framework_1_1InputSpec.html" target="_top" xlink:title="{o2::framework::InputSpec\n||+ InputSpec()\l+ InputSpec()\l+ InputSpec()\l+ InputSpec()\l+ InputSpec()\l+ operator==()\l}">
<polygon fill="none" stroke="#000000" points="1306.5,-689.5 1306.5,-801.5 1448.5,-801.5 1448.5,-689.5 1306.5,-689.5"/>
<text text-anchor="middle" x="1377.5" y="-789.5" font-family="Helvetica,sans-Serif" font-size="10.00" fill="#000000">o2::framework::InputSpec</text>
<polyline fill="none" stroke="#000000" points="1306.5,-782.5 1448.5,-782.5 "/>
<text text-anchor="middle" x="1377.5" y="-770.5" font-family="Helvetica,sans-Serif" font-size="10.00" fill="#000000"> </text>
<polyline fill="none" stroke="#000000" points="1306.5,-763.5 1448.5,-763.5 "/>
<text text-anchor="start" x="1314.5" y="-751.5" font-family="Helvetica,sans-Serif" font-size="10.00" fill="#000000">+ InputSpec()</text>
<text text-anchor="start" x="1314.5" y="-740.5" font-family="Helvetica,sans-Serif" font-size="10.00" fill="#000000">+ InputSpec()</text>
<text text-anchor="start" x="1314.5" y="-729.5" font-family="Helvetica,sans-Serif" font-size="10.00" fill="#000000">+ InputSpec()</text>
<text text-anchor="start" x="1314.5" y="-718.5" font-family="Helvetica,sans-Serif" font-size="10.00" fill="#000000">+ InputSpec()</text>
<text text-anchor="start" x="1314.5" y="-707.5" font-family="Helvetica,sans-Serif" font-size="10.00" fill="#000000">+ InputSpec()</text>
<text text-anchor="start" x="1314.5" y="-696.5" font-family="Helvetica,sans-Serif" font-size="10.00" fill="#000000">+ operator==()</text>
</a>
</g>
</g>
<!-- Node7&#45;&gt;Node10 -->
<g id="edge13" class="edge">
<title>Node7&#45;&gt;Node10</title>
<path fill="none" stroke="#404040" d="M1139.2304,-890.765C1168.7789,-882.8483 1236.7138,-862.4851 1286.5,-831 1296.3937,-824.7432 1306.1625,-817.3217 1315.4188,-809.5052"/>
<polygon fill="none" stroke="#404040" points="1315.4504,-809.4777 1317.3395,-802.5184 1324.49,-801.5856 1322.6009,-808.5449 1315.4504,-809.4777"/>
<text text-anchor="middle" x="1323.5" y="-823" font-family="Helvetica,sans-Serif" font-size="10.00" fill="#000000"> +binding</text>
</g>
<!-- Node7&#45;&gt;Node14 -->
<g id="edge17" class="edge">
<title>Node7&#45;&gt;Node14</title>
<path fill="none" stroke="#404040" d="M1109.8952,-886.7832C1085.7123,-873.173 1037.7218,-842.471 1014.5,-802 988.8213,-757.2471 978.3444,-700.5449 974.3936,-653.6574"/>
<polygon fill="none" stroke="#404040" points="974.3907,-653.6176 969.9585,-647.9294 973.5045,-641.6504 977.9367,-647.3386 974.3907,-653.6176"/>
<text text-anchor="middle" x="1032.5" y="-743" font-family="Helvetica,sans-Serif" font-size="10.00" fill="#000000"> +label</text>
</g>
<!-- Node7&#45;&gt;Node16 -->
<g id="edge24" class="edge">
<title>Node7&#45;&gt;Node16</title>
<path fill="none" stroke="#404040" d="M1139.1839,-878.7099C1156.0018,-860.4942 1184.2337,-829.5137 1207.5,-802 1248.9576,-752.9741 1245.3873,-726.5039 1297.5,-689 1322.2638,-671.1782 1409.0042,-666.9952 1426.5,-642 1466.5135,-584.8348 1460.7972,-545.7671 1426.5,-485 1397.8545,-434.2466 1340.7732,-400.9465 1292.343,-380.6244"/>
<polygon fill="none" stroke="#404040" points="1292.3223,-380.6161 1285.2593,-382.07 1281.2006,-376.1095 1288.2636,-374.6556 1292.3223,-380.6161"/>
<text text-anchor="middle" x="1412.5" y="-663" font-family="Helvetica,sans-Serif" font-size="10.00" fill="#000000"> +label</text>
</g>
<!-- Node8 -->
<g id="node8" class="node">
<title>Node8</title>
<polygon fill="none" stroke="#bfbfbf" points="647.5,-717 647.5,-774 685.5,-774 685.5,-717 647.5,-717"/>
<text text-anchor="middle" x="666.5" y="-762" font-family="Helvetica,sans-Serif" font-size="10.00" fill="#000000">bool</text>
<polyline fill="none" stroke="#bfbfbf" points="647.5,-755 685.5,-755 "/>
<text text-anchor="middle" x="666.5" y="-743" font-family="Helvetica,sans-Serif" font-size="10.00" fill="#000000"> </text>
<polyline fill="none" stroke="#bfbfbf" points="647.5,-736 685.5,-736 "/>
<text text-anchor="middle" x="666.5" y="-724" font-family="Helvetica,sans-Serif" font-size="10.00" fill="#000000"> </text>
</g>
<!-- Node8&#45;&gt;Node5 -->
<g id="edge8" class="edge">
<title>Node8&#45;&gt;Node5</title>
<path fill="none" stroke="#404040" d="M647.4454,-742.1247C585.4145,-730.7126 391.1969,-691.5016 355.5,-642 314.6866,-585.4032 328.0774,-549.1634 355.5,-485 367.6595,-456.5492 389.3665,-431.3267 411.9679,-410.7987"/>
<polygon fill="none" stroke="#404040" points="411.9765,-410.7911 413.8474,-403.8269 420.9955,-402.8754 419.1246,-409.8396 411.9765,-410.7911"/>
<text text-anchor="middle" x="386.5" y="-561" font-family="Helvetica,sans-Serif" font-size="10.00" fill="#000000"> +isdangling</text>
</g>
<!-- Node8&#45;&gt;Node14 -->
<g id="edge19" class="edge">
<title>Node8&#45;&gt;Node14</title>
<path fill="none" stroke="#404040" d="M685.8062,-725.4886C706.1869,-705.625 740.1975,-675.9094 775.5,-660 815.8737,-641.8052 833.1297,-660.2023 873.5,-642 874.5123,-641.5436 875.5235,-641.0747 876.5331,-640.5942"/>
<polygon fill="none" stroke="#404040" points="876.6224,-640.548 880.1096,-634.2361 887.2772,-635.0275 883.79,-641.3393 876.6224,-640.548"/>
<text text-anchor="middle" x="806.5" y="-663" font-family="Helvetica,sans-Serif" font-size="10.00" fill="#000000"> +isdangling</text>
</g>
<!-- Node8&#45;&gt;Node16 -->
<g id="edge25" class="edge">
<title>Node8&#45;&gt;Node16</title>
<path fill="none" stroke="#404040" d="M669.3519,-716.5768C675.9013,-655.9353 693.9313,-518.3303 725.5,-485 780.029,-427.4282 1002.0687,-385.4537 1125.5837,-366.034"/>
<polygon fill="none" stroke="#404040" points="1125.7274,-366.0118 1131.0421,-361.138 1137.5851,-364.1693 1132.2704,-369.0431 1125.7274,-366.0118"/>
<text text-anchor="middle" x="756.5" y="-561" font-family="Helvetica,sans-Serif" font-size="10.00" fill="#000000"> +isdangling</text>
</g>
<!-- Node9 -->
<g id="node9" class="node">
<title>Node9</title>
<polygon fill="none" stroke="#bfbfbf" points="525.5,-535 525.5,-592 667.5,-592 667.5,-535 525.5,-535"/>
<text text-anchor="middle" x="596.5" y="-580" font-family="Helvetica,sans-Serif" font-size="10.00" fill="#000000">shared_ptr&lt; TDirectory &gt;</text>
<polyline fill="none" stroke="#bfbfbf" points="525.5,-573 667.5,-573 "/>
<text text-anchor="middle" x="596.5" y="-561" font-family="Helvetica,sans-Serif" font-size="10.00" fill="#000000"> </text>
<polyline fill="none" stroke="#bfbfbf" points="525.5,-554 667.5,-554 "/>
<text text-anchor="middle" x="596.5" y="-542" font-family="Helvetica,sans-Serif" font-size="10.00" fill="#000000"> </text>
</g>
<!-- Node9&#45;&gt;Node5 -->
<g id="edge9" class="edge">
<title>Node9&#45;&gt;Node5</title>
<path fill="none" stroke="#404040" d="M581.7932,-534.8506C571.9949,-515.6863 558.8768,-489.8815 547.5,-467 544.5555,-461.0779 541.5372,-454.9739 538.5038,-448.8142"/>
<polygon fill="none" stroke="#404040" points="538.3318,-448.464 532.0959,-444.8427 533.0402,-437.6937 539.2761,-441.315 538.3318,-448.464"/>
<text text-anchor="middle" x="568.5" y="-459" font-family="Helvetica,sans-Serif" font-size="10.00" fill="#000000"> +object</text>
</g>
<!-- Node10&#45;&gt;Node5 -->
<g id="edge10" class="edge">
<title>Node10&#45;&gt;Node5</title>
<path fill="none" stroke="#404040" d="M1344.8337,-689.0947C1335.7615,-677.7868 1324.9288,-667.1878 1312.5,-660 1258.1932,-628.5934 1217.111,-686.1074 1172.5,-642 1122.3956,-592.4612 1196.9743,-537.9592 1150.5,-485 1075.9506,-400.0482 736.2851,-368.6131 576.3059,-358.3754"/>
<polygon fill="none" stroke="#404040" points="576.1529,-358.3659 569.9152,-361.9841 564.1762,-357.6178 570.4139,-353.9997 576.1529,-358.3659"/>
<text text-anchor="middle" x="1189.5" y="-561" font-family="Helvetica,sans-Serif" font-size="10.00" fill="#000000"> +spec</text>
</g>
<!-- Node10&#45;&gt;Node14 -->
<g id="edge20" class="edge">
<title>Node10&#45;&gt;Node14</title>
<path fill="none" stroke="#404040" d="M1306.445,-721.9767C1219.9855,-693.2547 1084.1295,-647.7633 1073.5,-642 1072.3358,-641.3688 1071.1713,-640.724 1070.0071,-640.0667"/>
<polygon fill="none" stroke="#404040" points="1069.8634,-639.9812 1062.6615,-640.3461 1059.5547,-633.8386 1066.7566,-633.4736 1069.8634,-639.9812"/>
<text text-anchor="middle" x="1170.5" y="-663" font-family="Helvetica,sans-Serif" font-size="10.00" fill="#000000"> +spec</text>
</g>
<!-- Node10&#45;&gt;Node16 -->
<g id="edge26" class="edge">
<title>Node10&#45;&gt;Node16</title>
<path fill="none" stroke="#404040" d="M1432.7749,-689.4629C1443.7122,-675.0922 1453.6211,-658.8872 1459.5,-642 1486.6786,-563.9289 1505.6096,-524.6125 1459.5,-456 1422.6405,-401.152 1350.5656,-375.78 1293.2371,-364.053"/>
<polygon fill="none" stroke="#404040" points="1293.0306,-364.0134 1286.3843,-366.811 1281.2456,-361.752 1287.8919,-358.9544 1293.0306,-364.0134"/>
<text text-anchor="middle" x="1503.5" y="-561" font-family="Helvetica,sans-Serif" font-size="10.00" fill="#000000"> +spec</text>
</g>
<!-- Node11 -->
<g id="node11" class="node">
<title>Node11</title>
<polygon fill="none" stroke="#bfbfbf" points="1479.5,-866 1479.5,-923 1567.5,-923 1567.5,-866 1479.5,-866"/>
<text text-anchor="middle" x="1523.5" y="-911" font-family="Helvetica,sans-Serif" font-size="10.00" fill="#000000">enum Lifetime</text>
<polyline fill="none" stroke="#bfbfbf" points="1479.5,-904 1567.5,-904 "/>
<text text-anchor="middle" x="1523.5" y="-892" font-family="Helvetica,sans-Serif" font-size="10.00" fill="#000000"> </text>
<polyline fill="none" stroke="#bfbfbf" points="1479.5,-885 1567.5,-885 "/>
<text text-anchor="middle" x="1523.5" y="-873" font-family="Helvetica,sans-Serif" font-size="10.00" fill="#000000"> </text>
</g>
<!-- Node11&#45;&gt;Node10 -->
<g id="edge11" class="edge">
<title>Node11&#45;&gt;Node10</title>
<path fill="none" stroke="#404040" d="M1495.3497,-865.7713C1479.9003,-850.0044 1460.0751,-829.7719 1441.1098,-810.4168"/>
<polygon fill="none" stroke="#404040" points="1440.8739,-810.1761 1433.8175,-808.69 1432.4753,-801.6049 1439.5316,-803.091 1440.8739,-810.1761"/>
<text text-anchor="middle" x="1483.5" y="-823" font-family="Helvetica,sans-Serif" font-size="10.00" fill="#000000"> +lifetime</text>
</g>
<!-- Node12 -->
<g id="node12" class="node">
<title>Node12</title>
<polygon fill="none" stroke="#bfbfbf" points="1297.5,-849.5 1297.5,-939.5 1461.5,-939.5 1461.5,-849.5 1297.5,-849.5"/>
<text text-anchor="start" x="1305.5" y="-927.5" font-family="Helvetica,sans-Serif" font-size="10.00" fill="#000000">variant&lt; o2::framework</text>
<text text-anchor="start" x="1305.5" y="-916.5" font-family="Helvetica,sans-Serif" font-size="10.00" fill="#000000">::ConcreteDataMatcher,</text>
<text text-anchor="start" x="1305.5" y="-905.5" font-family="Helvetica,sans-Serif" font-size="10.00" fill="#000000"> o2::framework::data_matcher</text>
<text text-anchor="middle" x="1379.5" y="-894.5" font-family="Helvetica,sans-Serif" font-size="10.00" fill="#000000">::DataDescriptorMatcher &gt;</text>
<polyline fill="none" stroke="#bfbfbf" points="1297.5,-887.5 1461.5,-887.5 "/>
<text text-anchor="middle" x="1379.5" y="-875.5" font-family="Helvetica,sans-Serif" font-size="10.00" fill="#000000"> </text>
<polyline fill="none" stroke="#bfbfbf" points="1297.5,-868.5 1461.5,-868.5 "/>
<text text-anchor="middle" x="1379.5" y="-856.5" font-family="Helvetica,sans-Serif" font-size="10.00" fill="#000000"> </text>
</g>
<!-- Node12&#45;&gt;Node10 -->
<g id="edge12" class="edge">
<title>Node12&#45;&gt;Node10</title>
<path fill="none" stroke="#404040" d="M1378.8945,-849.3907C1378.7427,-838.0845 1378.5765,-825.7027 1378.4134,-813.5514"/>
<polygon fill="none" stroke="#404040" points="1378.4132,-813.5243 1374.333,-807.5785 1378.252,-801.5254 1382.3322,-807.4711 1378.4132,-813.5243"/>
<text text-anchor="middle" x="1404.5" y="-823" font-family="Helvetica,sans-Serif" font-size="10.00" fill="#000000"> +matcher</text>
</g>
<!-- Node13 -->
<g id="node13" class="node">
<title>Node13</title>
<polygon fill="none" stroke="#bfbfbf" points="771,-717 771,-774 832,-774 832,-717 771,-717"/>
<text text-anchor="middle" x="801.5" y="-762" font-family="Helvetica,sans-Serif" font-size="10.00" fill="#000000">unsigned</text>
<polyline fill="none" stroke="#bfbfbf" points="771,-755 832,-755 "/>
<text text-anchor="middle" x="801.5" y="-743" font-family="Helvetica,sans-Serif" font-size="10.00" fill="#000000"> </text>
<polyline fill="none" stroke="#bfbfbf" points="771,-736 832,-736 "/>
<text text-anchor="middle" x="801.5" y="-724" font-family="Helvetica,sans-Serif" font-size="10.00" fill="#000000"> </text>
</g>
<!-- Node13&#45;&gt;Node5 -->
<g id="edge14" class="edge">
<title>Node13&#45;&gt;Node5</title>
<path fill="none" stroke="#404040" d="M770.7804,-726.1275C749.9731,-713.8098 721.4598,-698.455 694.5,-689 589.4614,-652.1623 519.44,-727.7767 448.5,-642 404.4974,-588.7945 419.9309,-510.4446 443.9266,-448.8927"/>
<polygon fill="none" stroke="#404040" points="443.993,-448.7287 442.5358,-441.6663 448.4944,-437.6049 449.9516,-444.6673 443.993,-448.7287"/>
<text text-anchor="middle" x="482.5" y="-561" font-family="Helvetica,sans-Serif" font-size="10.00" fill="#000000"> +mTaskHash</text>
</g>
<!-- Node13&#45;&gt;Node14 -->
<g id="edge21" class="edge">
<title>Node13&#45;&gt;Node14</title>
<path fill="none" stroke="#404040" d="M814.4477,-716.7706C823.1526,-699.2719 835.7182,-677.0736 850.5,-660 858.9963,-650.1864 863.2837,-650.0076 873.5,-642 874.9114,-640.8937 876.334,-639.7786 877.7655,-638.6563"/>
<polygon fill="none" stroke="#404040" points="877.8789,-638.5674 880.1322,-631.7174 887.322,-631.1628 885.0687,-638.0128 877.8789,-638.5674"/>
<text text-anchor="middle" x="884.5" y="-663" font-family="Helvetica,sans-Serif" font-size="10.00" fill="#000000"> +mTaskHash</text>
</g>
<!-- Node13&#45;&gt;Node16 -->
<g id="edge27" class="edge">
<title>Node13&#45;&gt;Node16</title>
<path fill="none" stroke="#404040" d="M798.5343,-716.961C792.9272,-657.0659 783.6003,-520.8254 810.5,-485 848.7536,-434.0534 1020.7294,-391.6149 1126.0221,-369.8113"/>
<polygon fill="none" stroke="#404040" points="1126.1309,-369.7891 1131.2071,-364.6673 1137.8872,-367.3831 1132.8111,-372.5049 1126.1309,-369.7891"/>
<text text-anchor="middle" x="844.5" y="-561" font-family="Helvetica,sans-Serif" font-size="10.00" fill="#000000"> +mTaskHash</text>
</g>
<!-- Node14&#45;&gt;Node5 -->
<g id="edge15" class="edge">
<title>Node14&#45;&gt;Node5</title>
<path fill="none" stroke="#ffa500" d="M878.735,-487.9359C876.9905,-486.9292 875.2448,-485.9495 873.5,-485 772.1254,-429.836 643.1538,-391.3618 564.2725,-370.9794"/>
<polygon fill="#ffa500" stroke="#ffa500" points="877.0643,-491.0154 887.4359,-493.1787 880.6771,-485.0198 877.0643,-491.0154"/>
<text text-anchor="middle" x="873" y="-459" font-family="Helvetica,sans-Serif" font-size="10.00" fill="#000000"> &lt; TDirectory &gt;</text>
</g>
<!-- Node14&#45;&gt;Node16 -->
<g id="edge29" class="edge">
<title>Node14&#45;&gt;Node16</title>
<path fill="none" stroke="#ffa500" d="M1067.2826,-480.2481C1090.7877,-459.3823 1115.6324,-437.3274 1137.8657,-417.5906"/>
<polygon fill="#ffa500" stroke="#ffa500" points="1064.8581,-477.7202 1059.7032,-486.9764 1069.5052,-482.9551 1064.8581,-477.7202"/>
<text text-anchor="middle" x="1117" y="-459" font-family="Helvetica,sans-Serif" font-size="10.00" fill="#000000"> &lt; TH1F &gt;</text>
</g>
<!-- Node15 -->
<g id="node15" class="node">
<title>Node15</title>
<polygon fill="none" stroke="#bfbfbf" points="850,-717 850,-774 947,-774 947,-717 850,-717"/>
<text text-anchor="middle" x="898.5" y="-762" font-family="Helvetica,sans-Serif" font-size="10.00" fill="#000000">shared_ptr&lt; T &gt;</text>
<polyline fill="none" stroke="#bfbfbf" points="850,-755 947,-755 "/>
<text text-anchor="middle" x="898.5" y="-743" font-family="Helvetica,sans-Serif" font-size="10.00" fill="#000000"> </text>
<polyline fill="none" stroke="#bfbfbf" points="850,-736 947,-736 "/>
<text text-anchor="middle" x="898.5" y="-724" font-family="Helvetica,sans-Serif" font-size="10.00" fill="#000000"> </text>
</g>
<!-- Node15&#45;&gt;Node14 -->
<g id="edge18" class="edge">
<title>Node15&#45;&gt;Node14</title>
<path fill="none" stroke="#404040" d="M906.8706,-716.6479C911.9942,-699.9055 918.9942,-678.5305 926.5,-660 927.4565,-657.6386 928.4449,-655.2542 929.459,-652.856"/>
<polygon fill="none" stroke="#404040" points="929.5832,-652.5704 928.3085,-645.4728 934.3698,-641.5664 935.6445,-648.664 929.5832,-652.5704"/>
<text text-anchor="middle" x="947.5" y="-663" font-family="Helvetica,sans-Serif" font-size="10.00" fill="#000000"> +object</text>
</g>
<!-- Node16&#45;&gt;Node1 -->
<g id="edge22" class="edge">
<title>Node16&#45;&gt;Node1</title>
<path fill="none" stroke="#404040" d="M1137.8849,-327.7294C986.3563,-272.1439 634.3256,-143.0081 476.9598,-85.2815"/>
<polygon fill="none" stroke="#404040" points="476.7834,-85.2169 469.7729,-86.9058 465.5175,-81.0841 472.5281,-79.3952 476.7834,-85.2169"/>
<text text-anchor="middle" x="956.5" y="-244" font-family="Helvetica,sans-Serif" font-size="10.00" fill="#000000"> +fOutEtaA</text>
<text text-anchor="middle" x="956.5" y="-233" font-family="Helvetica,sans-Serif" font-size="10.00" fill="#000000">+fOutEtaB</text>
<text text-anchor="middle" x="956.5" y="-222" font-family="Helvetica,sans-Serif" font-size="10.00" fill="#000000">+fOutPtA</text>
<text text-anchor="middle" x="956.5" y="-211" font-family="Helvetica,sans-Serif" font-size="10.00" fill="#000000">+fOutPtB</text>
<text text-anchor="middle" x="956.5" y="-200" font-family="Helvetica,sans-Serif" font-size="10.00" fill="#000000">+fOutPtPosA</text>
<text text-anchor="middle" x="956.5" y="-189" font-family="Helvetica,sans-Serif" font-size="10.00" fill="#000000">+fOutPtNegA</text>
<text text-anchor="middle" x="956.5" y="-178" font-family="Helvetica,sans-Serif" font-size="10.00" fill="#000000">+fOutPtPosB</text>
<text text-anchor="middle" x="956.5" y="-167" font-family="Helvetica,sans-Serif" font-size="10.00" fill="#000000">+fOutPhiA</text>
<text text-anchor="middle" x="956.5" y="-156" font-family="Helvetica,sans-Serif" font-size="10.00" fill="#000000">+fOutPtNegB</text>
<text text-anchor="middle" x="956.5" y="-145" font-family="Helvetica,sans-Serif" font-size="10.00" fill="#000000">+fOutPhiB</text>
<text text-anchor="middle" x="956.5" y="-134" font-family="Helvetica,sans-Serif" font-size="10.00" fill="#000000">...</text>
</g>
<!-- Node17 -->
<g id="node17" class="node">
<title>Node17</title>
<polygon fill="none" stroke="#bfbfbf" points="1301.5,-535 1301.5,-592 1417.5,-592 1417.5,-535 1301.5,-535"/>
<text text-anchor="middle" x="1359.5" y="-580" font-family="Helvetica,sans-Serif" font-size="10.00" fill="#000000">shared_ptr&lt; TH1F &gt;</text>
<polyline fill="none" stroke="#bfbfbf" points="1301.5,-573 1417.5,-573 "/>
<text text-anchor="middle" x="1359.5" y="-561" font-family="Helvetica,sans-Serif" font-size="10.00" fill="#000000"> </text>
<polyline fill="none" stroke="#bfbfbf" points="1301.5,-554 1417.5,-554 "/>
<text text-anchor="middle" x="1359.5" y="-542" font-family="Helvetica,sans-Serif" font-size="10.00" fill="#000000"> </text>
</g>
<!-- Node17&#45;&gt;Node16 -->
<g id="edge28" class="edge">
<title>Node17&#45;&gt;Node16</title>
<path fill="none" stroke="#404040" d="M1338.9577,-534.8092C1322.8122,-512.2594 1299.3616,-479.5066 1276.8416,-448.0538"/>
<polygon fill="none" stroke="#404040" points="1276.559,-447.659 1269.8137,-445.1092 1269.5731,-437.9021 1276.3184,-440.4519 1276.559,-447.659"/>
<text text-anchor="middle" x="1309.5" y="-459" font-family="Helvetica,sans-Serif" font-size="10.00" fill="#000000"> +object</text>
</g>
</g>
</svg>
