<?xml version="1.0" encoding="UTF-8" standalone="no"?>
<!DOCTYPE svg PUBLIC "-//W3C//DTD SVG 1.1//EN"
 "http://www.w3.org/Graphics/SVG/1.1/DTD/svg11.dtd">
<!-- Generated by graphviz version 2.40.1 (20161225.0304)
 -->
<!-- Title: DecayVertexBuilder2Prong Pages: 1 -->
<!--zoomable 926 -->
<svg id="main" version="1.1" xmlns="http://www.w3.org/2000/svg" xmlns:xlink="http://www.w3.org/1999/xlink" xml:space="preserve" onload="init(evt)">
<style type="text/css"><![CDATA[
.edge:hover path { stroke: red; }
.edge:hover polygon { stroke: red; fill: red; }
]]></style>
<script type="text/javascript"><![CDATA[
var edges = document.getElementsByTagName('g');
if (edges && edges.length) {
  for (var i=0;i<edges.length;i++) {
    if (edges[i].id.substr(0,4)=='edge') {
      edges[i].setAttribute('class','edge');
    }
  }
}
]]></script>
        <defs>
                <circle id="rim" cx="0" cy="0" r="7"/>
                <circle id="rim2" cx="0" cy="0" r="3.5"/>
                <g id="zoomPlus">
                        <use xlink:href="#rim" fill="#404040">
                                <set attributeName="fill" to="#808080" begin="zoomplus.mouseover" end="zoomplus.mouseout"/>
                        </use>
                        <path d="M-4,0h8M0,-4v8" fill="none" stroke="white" stroke-width="1.5" pointer-events="none"/>
                </g>
                <g id="zoomMin">
                        <use xlink:href="#rim" fill="#404040">
                                <set attributeName="fill" to="#808080" begin="zoomminus.mouseover" end="zoomminus.mouseout"/>
                        </use>
                        <path d="M-4,0h8" fill="none" stroke="white" stroke-width="1.5" pointer-events="none"/>
                </g>
                <g id="dirArrow">
                        <path fill="none" stroke="white" stroke-width="1.5" d="M0,-3.0v7 M-2.5,-0.5L0,-3.0L2.5,-0.5"/>
                </g>
               <g id="resetDef">
                       <use xlink:href="#rim2" fill="#404040">
                               <set attributeName="fill" to="#808080" begin="reset.mouseover" end="reset.mouseout"/>
                       </use>
               </g>
        </defs>

<script type="text/javascript">
var viewWidth = 1120;
var viewHeight = 926;
var sectionId = 'dynsection-0';
</script>
<script xlink:href="../../svgpan.js"/>
<svg id="graph" class="graph">
<g id="viewport">
<title>DecayVertexBuilder2Prong</title>
<!-- Node1 -->
<g id="node1" class="node">
<title>Node1</title>
<polygon fill="#bfbfbf" stroke="#000000" points="593.5,-.5 593.5,-79.5 740.5,-79.5 740.5,-.5 593.5,-.5"/>
<text text-anchor="middle" x="667" y="-67.5" font-family="Helvetica,sans-Serif" font-size="10.00" fill="#000000">DecayVertexBuilder2Prong</text>
<polyline fill="none" stroke="#000000" points="593.5,-60.5 740.5,-60.5 "/>
<text text-anchor="start" x="601.5" y="-48.5" font-family="Helvetica,sans-Serif" font-size="10.00" fill="#000000">+ hvtxp_x_out</text>
<text text-anchor="start" x="601.5" y="-37.5" font-family="Helvetica,sans-Serif" font-size="10.00" fill="#000000">+ hpt_nocuts</text>
<text text-anchor="start" x="601.5" y="-26.5" font-family="Helvetica,sans-Serif" font-size="10.00" fill="#000000">+ htgl_cuts</text>
<polyline fill="none" stroke="#000000" points="593.5,-19.5 740.5,-19.5 "/>
<text text-anchor="start" x="601.5" y="-7.5" font-family="Helvetica,sans-Serif" font-size="10.00" fill="#000000">+ process()</text>
</g>
<!-- Node2 -->
<g id="node2" class="node">
<title>Node2</title>
<g id="a_node2"><a xlink:href="../../d8/d71/structo2_1_1framework_1_1Configurable.html" target="_top" xlink:title="{o2::framework::Configurable\l\&lt; int \&gt;\n||+ Configurable()\l+ operator int()\l+ operator&#45;\&gt;()\l}">
<polygon fill="none" stroke="#000000" points="53.5,-485.5 53.5,-575.5 208.5,-575.5 208.5,-485.5 53.5,-485.5"/>
<text text-anchor="start" x="61.5" y="-563.5" font-family="Helvetica,sans-Serif" font-size="10.00" fill="#000000">o2::framework::Configurable</text>
<text text-anchor="middle" x="131" y="-552.5" font-family="Helvetica,sans-Serif" font-size="10.00" fill="#000000">&lt; int &gt;</text>
<polyline fill="none" stroke="#000000" points="53.5,-545.5 208.5,-545.5 "/>
<text text-anchor="middle" x="131" y="-533.5" font-family="Helvetica,sans-Serif" font-size="10.00" fill="#000000"> </text>
<polyline fill="none" stroke="#000000" points="53.5,-526.5 208.5,-526.5 "/>
<text text-anchor="start" x="61.5" y="-514.5" font-family="Helvetica,sans-Serif" font-size="10.00" fill="#000000">+ Configurable()</text>
<text text-anchor="start" x="61.5" y="-503.5" font-family="Helvetica,sans-Serif" font-size="10.00" fill="#000000">+ operator int()</text>
<text text-anchor="start" x="61.5" y="-492.5" font-family="Helvetica,sans-Serif" font-size="10.00" fill="#000000">+ operator&#45;&gt;()</text>
</a>
</g>
</g>
<!-- Node2&#45;&gt;Node1 -->
<g id="edge1" class="edge">
<title>Node2&#45;&gt;Node1</title>
<path fill="none" stroke="#404040" d="M180.4648,-485.2341C281.5961,-392.6877 511.1899,-182.5837 614.6849,-87.8742"/>
<polygon fill="none" stroke="#404040" points="614.8514,-87.7218 616.5773,-80.7203 623.7041,-79.6206 621.9781,-86.6221 614.8514,-87.7218"/>
<text text-anchor="middle" x="479.5" y="-318.5" font-family="Helvetica,sans-Serif" font-size="10.00" fill="#000000"> +triggerindex</text>
</g>
<!-- Node3 -->
<g id="node3" class="node">
<title>Node3</title>
<polygon fill="none" stroke="#bfbfbf" points="468.5,-844 468.5,-901 497.5,-901 497.5,-844 468.5,-844"/>
<text text-anchor="middle" x="483" y="-889" font-family="Helvetica,sans-Serif" font-size="10.00" fill="#000000">int</text>
<polyline fill="none" stroke="#bfbfbf" points="468.5,-882 497.5,-882 "/>
<text text-anchor="middle" x="483" y="-870" font-family="Helvetica,sans-Serif" font-size="10.00" fill="#000000"> </text>
<polyline fill="none" stroke="#bfbfbf" points="468.5,-863 497.5,-863 "/>
<text text-anchor="middle" x="483" y="-851" font-family="Helvetica,sans-Serif" font-size="10.00" fill="#000000"> </text>
</g>
<!-- Node3&#45;&gt;Node2 -->
<g id="edge2" class="edge">
<title>Node3&#45;&gt;Node2</title>
<path fill="none" stroke="#404040" d="M468.2158,-870.4257C426.0217,-863.7485 303.7239,-839.0099 236,-769 198.639,-730.3779 214.4802,-705.2555 193,-656 182.9489,-632.9523 170.8949,-608.0347 160.0988,-586.5234"/>
<polygon fill="none" stroke="#404040" points="159.9976,-586.3229 153.7213,-582.772 154.5851,-575.6128 160.8614,-579.1637 159.9976,-586.3229"/>
<text text-anchor="middle" x="255.5" y="-721" font-family="Helvetica,sans-Serif" font-size="10.00" fill="#000000"> +value</text>
<text text-anchor="middle" x="255.5" y="-710" font-family="Helvetica,sans-Serif" font-size="10.00" fill="#000000">+name</text>
<text text-anchor="middle" x="255.5" y="-699" font-family="Helvetica,sans-Serif" font-size="10.00" fill="#000000">+help</text>
</g>
<!-- Node4 -->
<g id="node4" class="node">
<title>Node4</title>
<g id="a_node4"><a xlink:href="../../d8/d71/structo2_1_1framework_1_1Configurable.html" target="_top" xlink:title="{o2::framework::Configurable\&lt; T \&gt;\n||+ Configurable()\l+ operator T()\l+ operator&#45;\&gt;()\l}">
<polygon fill="none" stroke="#000000" points="0,-673 0,-752 184,-752 184,-673 0,-673"/>
<text text-anchor="middle" x="92" y="-740" font-family="Helvetica,sans-Serif" font-size="10.00" fill="#000000">o2::framework::Configurable&lt; T &gt;</text>
<polyline fill="none" stroke="#000000" points="0,-733 184,-733 "/>
<text text-anchor="middle" x="92" y="-721" font-family="Helvetica,sans-Serif" font-size="10.00" fill="#000000"> </text>
<polyline fill="none" stroke="#000000" points="0,-714 184,-714 "/>
<text text-anchor="start" x="8" y="-702" font-family="Helvetica,sans-Serif" font-size="10.00" fill="#000000">+ Configurable()</text>
<text text-anchor="start" x="8" y="-691" font-family="Helvetica,sans-Serif" font-size="10.00" fill="#000000">+ operator T()</text>
<text text-anchor="start" x="8" y="-680" font-family="Helvetica,sans-Serif" font-size="10.00" fill="#000000">+ operator&#45;&gt;()</text>
</a>
</g>
</g>
<!-- Node3&#45;&gt;Node4 -->
<g id="edge4" class="edge">
<title>Node3&#45;&gt;Node4</title>
<path fill="none" stroke="#404040" d="M468.3175,-870.9406C413.0681,-864.8651 218.1652,-841.4984 166,-809 147.5752,-797.5216 132.0134,-779.6966 119.9869,-762.4747"/>
<polygon fill="none" stroke="#404040" points="119.9683,-762.4468 113.314,-759.6682 113.3196,-752.457 119.9739,-755.2356 119.9683,-762.4468"/>
<text text-anchor="middle" x="186" y="-801" font-family="Helvetica,sans-Serif" font-size="10.00" fill="#000000"> +name</text>
<text text-anchor="middle" x="186" y="-790" font-family="Helvetica,sans-Serif" font-size="10.00" fill="#000000">+help</text>
</g>
<!-- Node8 -->
<g id="node8" class="node">
<title>Node8</title>
<g id="a_node8"><a xlink:href="../../d4/d79/structo2_1_1framework_1_1OutputObj.html" target="_top" xlink:title="{o2::framework::OutputObj\l\&lt; TH1F \&gt;\n||+ spec()\l+ OutputObj()\l+ OutputObj()\l+ setObject()\l+ setObject()\l+ setObject()\l+ setHash()\l+ operator&#45;\&gt;()\l+ operator*()\l+ ref()\l}">
<polygon fill="none" stroke="#000000" points="595.5,-237.5 595.5,-404.5 738.5,-404.5 738.5,-237.5 595.5,-237.5"/>
<text text-anchor="start" x="603.5" y="-392.5" font-family="Helvetica,sans-Serif" font-size="10.00" fill="#000000">o2::framework::OutputObj</text>
<text text-anchor="middle" x="667" y="-381.5" font-family="Helvetica,sans-Serif" font-size="10.00" fill="#000000">&lt; TH1F &gt;</text>
<polyline fill="none" stroke="#000000" points="595.5,-374.5 738.5,-374.5 "/>
<text text-anchor="middle" x="667" y="-362.5" font-family="Helvetica,sans-Serif" font-size="10.00" fill="#000000"> </text>
<polyline fill="none" stroke="#000000" points="595.5,-355.5 738.5,-355.5 "/>
<text text-anchor="start" x="603.5" y="-343.5" font-family="Helvetica,sans-Serif" font-size="10.00" fill="#000000">+ spec()</text>
<text text-anchor="start" x="603.5" y="-332.5" font-family="Helvetica,sans-Serif" font-size="10.00" fill="#000000">+ OutputObj()</text>
<text text-anchor="start" x="603.5" y="-321.5" font-family="Helvetica,sans-Serif" font-size="10.00" fill="#000000">+ OutputObj()</text>
<text text-anchor="start" x="603.5" y="-310.5" font-family="Helvetica,sans-Serif" font-size="10.00" fill="#000000">+ setObject()</text>
<text text-anchor="start" x="603.5" y="-299.5" font-family="Helvetica,sans-Serif" font-size="10.00" fill="#000000">+ setObject()</text>
<text text-anchor="start" x="603.5" y="-288.5" font-family="Helvetica,sans-Serif" font-size="10.00" fill="#000000">+ setObject()</text>
<text text-anchor="start" x="603.5" y="-277.5" font-family="Helvetica,sans-Serif" font-size="10.00" fill="#000000">+ setHash()</text>
<text text-anchor="start" x="603.5" y="-266.5" font-family="Helvetica,sans-Serif" font-size="10.00" fill="#000000">+ operator&#45;&gt;()</text>
<text text-anchor="start" x="603.5" y="-255.5" font-family="Helvetica,sans-Serif" font-size="10.00" fill="#000000">+ operator*()</text>
<text text-anchor="start" x="603.5" y="-244.5" font-family="Helvetica,sans-Serif" font-size="10.00" fill="#000000">+ ref()</text>
</a>
</g>
</g>
<!-- Node3&#45;&gt;Node8 -->
<g id="edge10" class="edge">
<title>Node3&#45;&gt;Node8</title>
<path fill="none" stroke="#404040" d="M497.5296,-869.777C535.6625,-861.8218 639.0938,-834.8814 689,-769 731.7392,-712.5798 733.5221,-521.4768 720,-452 717.7151,-440.26 714.3784,-428.2408 710.4735,-416.4744"/>
<polygon fill="none" stroke="#404040" points="710.3566,-416.14 704.6008,-411.7959 706.397,-404.8121 712.1528,-409.1561 710.3566,-416.14"/>
<text text-anchor="middle" x="743" y="-630" font-family="Helvetica,sans-Serif" font-size="10.00" fill="#000000"> +label</text>
</g>
<!-- Node11 -->
<g id="node11" class="node">
<title>Node11</title>
<g id="a_node11"><a xlink:href="../../da/d96/structo2_1_1framework_1_1InputSpec.html" target="_top" xlink:title="{o2::framework::InputSpec\n||+ InputSpec()\l+ InputSpec()\l+ InputSpec()\l+ InputSpec()\l+ InputSpec()\l+ operator==()\l}">
<polygon fill="none" stroke="#000000" points="819,-656.5 819,-768.5 961,-768.5 961,-656.5 819,-656.5"/>
<text text-anchor="middle" x="890" y="-756.5" font-family="Helvetica,sans-Serif" font-size="10.00" fill="#000000">o2::framework::InputSpec</text>
<polyline fill="none" stroke="#000000" points="819,-749.5 961,-749.5 "/>
<text text-anchor="middle" x="890" y="-737.5" font-family="Helvetica,sans-Serif" font-size="10.00" fill="#000000"> </text>
<polyline fill="none" stroke="#000000" points="819,-730.5 961,-730.5 "/>
<text text-anchor="start" x="827" y="-718.5" font-family="Helvetica,sans-Serif" font-size="10.00" fill="#000000">+ InputSpec()</text>
<text text-anchor="start" x="827" y="-707.5" font-family="Helvetica,sans-Serif" font-size="10.00" fill="#000000">+ InputSpec()</text>
<text text-anchor="start" x="827" y="-696.5" font-family="Helvetica,sans-Serif" font-size="10.00" fill="#000000">+ InputSpec()</text>
<text text-anchor="start" x="827" y="-685.5" font-family="Helvetica,sans-Serif" font-size="10.00" fill="#000000">+ InputSpec()</text>
<text text-anchor="start" x="827" y="-674.5" font-family="Helvetica,sans-Serif" font-size="10.00" fill="#000000">+ InputSpec()</text>
<text text-anchor="start" x="827" y="-663.5" font-family="Helvetica,sans-Serif" font-size="10.00" fill="#000000">+ operator==()</text>
</a>
</g>
</g>
<!-- Node3&#45;&gt;Node11 -->
<g id="edge15" class="edge">
<title>Node3&#45;&gt;Node11</title>
<path fill="none" stroke="#404040" d="M497.7491,-869.64C535.9843,-862.011 641.1661,-839.6507 725,-809 760.6501,-795.9659 771.5117,-790.6719 808.335,-769.2215"/>
<polygon fill="none" stroke="#404040" points="808.5048,-769.1223 811.6664,-762.6412 818.8649,-763.0668 815.7033,-769.5479 808.5048,-769.1223"/>
<text text-anchor="middle" x="801" y="-795.5" font-family="Helvetica,sans-Serif" font-size="10.00" fill="#000000"> +binding</text>
</g>
<!-- Node16 -->
<g id="node16" class="node">
<title>Node16</title>
<g id="a_node16"><a xlink:href="../../d4/d79/structo2_1_1framework_1_1OutputObj.html" target="_top" xlink:title="{o2::framework::OutputObj\&lt; T \&gt;\n||+ OutputObj()\l+ OutputObj()\l+ setObject()\l+ setObject()\l+ setObject()\l+ setHash()\l+ spec()\l+ operator&#45;\&gt;()\l+ operator*()\l+ ref()\l}">
<polygon fill="none" stroke="#000000" points="325,-452.5 325,-608.5 497,-608.5 497,-452.5 325,-452.5"/>
<text text-anchor="middle" x="411" y="-596.5" font-family="Helvetica,sans-Serif" font-size="10.00" fill="#000000">o2::framework::OutputObj&lt; T &gt;</text>
<polyline fill="none" stroke="#000000" points="325,-589.5 497,-589.5 "/>
<text text-anchor="middle" x="411" y="-577.5" font-family="Helvetica,sans-Serif" font-size="10.00" fill="#000000"> </text>
<polyline fill="none" stroke="#000000" points="325,-570.5 497,-570.5 "/>
<text text-anchor="start" x="333" y="-558.5" font-family="Helvetica,sans-Serif" font-size="10.00" fill="#000000">+ OutputObj()</text>
<text text-anchor="start" x="333" y="-547.5" font-family="Helvetica,sans-Serif" font-size="10.00" fill="#000000">+ OutputObj()</text>
<text text-anchor="start" x="333" y="-536.5" font-family="Helvetica,sans-Serif" font-size="10.00" fill="#000000">+ setObject()</text>
<text text-anchor="start" x="333" y="-525.5" font-family="Helvetica,sans-Serif" font-size="10.00" fill="#000000">+ setObject()</text>
<text text-anchor="start" x="333" y="-514.5" font-family="Helvetica,sans-Serif" font-size="10.00" fill="#000000">+ setObject()</text>
<text text-anchor="start" x="333" y="-503.5" font-family="Helvetica,sans-Serif" font-size="10.00" fill="#000000">+ setHash()</text>
<text text-anchor="start" x="333" y="-492.5" font-family="Helvetica,sans-Serif" font-size="10.00" fill="#000000">+ spec()</text>
<text text-anchor="start" x="333" y="-481.5" font-family="Helvetica,sans-Serif" font-size="10.00" fill="#000000">+ operator&#45;&gt;()</text>
<text text-anchor="start" x="333" y="-470.5" font-family="Helvetica,sans-Serif" font-size="10.00" fill="#000000">+ operator*()</text>
<text text-anchor="start" x="333" y="-459.5" font-family="Helvetica,sans-Serif" font-size="10.00" fill="#000000">+ ref()</text>
</a>
</g>
</g>
<!-- Node3&#45;&gt;Node16 -->
<g id="edge20" class="edge">
<title>Node3&#45;&gt;Node16</title>
<path fill="none" stroke="#404040" d="M481.8207,-843.9804C479.3192,-797.6512 471.7881,-703.5174 450,-627 449.3598,-624.7516 448.6846,-622.4839 447.9798,-620.2048"/>
<polygon fill="none" stroke="#404040" points="447.9631,-620.1537 442.2957,-615.695 444.2316,-608.7486 449.8991,-613.2073 447.9631,-620.1537"/>
<text text-anchor="middle" x="494" y="-710" font-family="Helvetica,sans-Serif" font-size="10.00" fill="#000000"> +label</text>
</g>
<!-- Node4&#45;&gt;Node2 -->
<g id="edge3" class="edge">
<title>Node4&#45;&gt;Node2</title>
<path fill="none" stroke="#ffa500" d="M102.7151,-662.4964C108.5246,-635.3851 115.6494,-602.1362 121.2947,-575.7912"/>
<polygon fill="#ffa500" stroke="#ffa500" points="99.2318,-662.0479 100.5587,-672.5593 106.0764,-663.5147 99.2318,-662.0479"/>
<text text-anchor="middle" x="129.5" y="-630" font-family="Helvetica,sans-Serif" font-size="10.00" fill="#000000"> &lt; int &gt;</text>
</g>
<!-- Node5 -->
<g id="node5" class="node">
<title>Node5</title>
<polygon fill="none" stroke="#bfbfbf" points="77.5,-844 77.5,-901 106.5,-901 106.5,-844 77.5,-844"/>
<text text-anchor="middle" x="92" y="-889" font-family="Helvetica,sans-Serif" font-size="10.00" fill="#000000">T</text>
<polyline fill="none" stroke="#bfbfbf" points="77.5,-882 106.5,-882 "/>
<text text-anchor="middle" x="92" y="-870" font-family="Helvetica,sans-Serif" font-size="10.00" fill="#000000"> </text>
<polyline fill="none" stroke="#bfbfbf" points="77.5,-863 106.5,-863 "/>
<text text-anchor="middle" x="92" y="-851" font-family="Helvetica,sans-Serif" font-size="10.00" fill="#000000"> </text>
</g>
<!-- Node5&#45;&gt;Node4 -->
<g id="edge5" class="edge">
<title>Node5&#45;&gt;Node4</title>
<path fill="none" stroke="#404040" d="M92,-843.8952C92,-821.8577 92,-790.7968 92,-764.4075"/>
<polygon fill="none" stroke="#404040" points="92.0001,-764.2754 88,-758.2755 92,-752.2754 96,-758.2754 92.0001,-764.2754"/>
<text text-anchor="middle" x="111.5" y="-795.5" font-family="Helvetica,sans-Serif" font-size="10.00" fill="#000000"> +value</text>
</g>
<!-- Node6 -->
<g id="node6" class="node">
<title>Node6</title>
<g id="a_node6"><a xlink:href="../../d6/d86/structo2_1_1framework_1_1Produces.html" target="_top" xlink:title="{o2::framework::Produces\l\&lt; aod::SecVtx2Prong \&gt;\n||}">
<polygon fill="none" stroke="#000000" points="892,-287 892,-355 1030,-355 1030,-287 892,-287"/>
<text text-anchor="start" x="900" y="-343" font-family="Helvetica,sans-Serif" font-size="10.00" fill="#000000">o2::framework::Produces</text>
<text text-anchor="middle" x="961" y="-332" font-family="Helvetica,sans-Serif" font-size="10.00" fill="#000000">&lt; aod::SecVtx2Prong &gt;</text>
<polyline fill="none" stroke="#000000" points="892,-325 1030,-325 "/>
<text text-anchor="middle" x="961" y="-313" font-family="Helvetica,sans-Serif" font-size="10.00" fill="#000000"> </text>
<polyline fill="none" stroke="#000000" points="892,-306 1030,-306 "/>
<text text-anchor="middle" x="961" y="-294" font-family="Helvetica,sans-Serif" font-size="10.00" fill="#000000"> </text>
</a>
</g>
</g>
<!-- Node6&#45;&gt;Node1 -->
<g id="edge6" class="edge">
<title>Node6&#45;&gt;Node1</title>
<path fill="none" stroke="#404040" d="M934.3584,-286.7324C897.5239,-240.6367 827.5633,-157.575 757,-98 752.5304,-94.2264 747.7997,-90.5041 742.9396,-86.8776"/>
<polygon fill="none" stroke="#404040" points="742.557,-86.6017 735.3508,-86.3363 732.8241,-79.5823 740.0304,-79.8477 742.557,-86.6017"/>
<text text-anchor="middle" x="913" y="-156" font-family="Helvetica,sans-Serif" font-size="10.00" fill="#000000"> +secvtx2prong</text>
</g>
<!-- Node7 -->
<g id="node7" class="node">
<title>Node7</title>
<g id="a_node7"><a xlink:href="../../d6/d86/structo2_1_1framework_1_1Produces.html" target="_top" xlink:title="{o2::framework::Produces\&lt; T \&gt;\n||}">
<polygon fill="none" stroke="#000000" points="938.5,-502 938.5,-559 1105.5,-559 1105.5,-502 938.5,-502"/>
<text text-anchor="middle" x="1022" y="-547" font-family="Helvetica,sans-Serif" font-size="10.00" fill="#000000">o2::framework::Produces&lt; T &gt;</text>
<polyline fill="none" stroke="#000000" points="938.5,-540 1105.5,-540 "/>
<text text-anchor="middle" x="1022" y="-528" font-family="Helvetica,sans-Serif" font-size="10.00" fill="#000000"> </text>
<polyline fill="none" stroke="#000000" points="938.5,-521 1105.5,-521 "/>
<text text-anchor="middle" x="1022" y="-509" font-family="Helvetica,sans-Serif" font-size="10.00" fill="#000000"> </text>
</a>
</g>
</g>
<!-- Node7&#45;&gt;Node6 -->
<g id="edge7" class="edge">
<title>Node7&#45;&gt;Node6</title>
<path fill="none" stroke="#ffa500" d="M1010.8173,-492.094C999.4208,-452.9536 981.9091,-392.8108 970.9713,-355.2457"/>
<polygon fill="#ffa500" stroke="#ffa500" points="1007.49,-493.1864 1013.6461,-501.8092 1014.2109,-491.2294 1007.49,-493.1864"/>
<text text-anchor="middle" x="1053" y="-426" font-family="Helvetica,sans-Serif" font-size="10.00" fill="#000000"> &lt; aod::SecVtx2Prong &gt;</text>
</g>
<!-- Node8&#45;&gt;Node1 -->
<g id="edge8" class="edge">
<title>Node8&#45;&gt;Node1</title>
<path fill="none" stroke="#404040" d="M667,-237.4515C667,-190.2422 667,-132.7066 667,-91.9509"/>
<polygon fill="none" stroke="#404040" points="667.0001,-91.8713 663,-85.8713 667,-79.8713 671,-85.8712 667.0001,-91.8713"/>
<text text-anchor="middle" x="710" y="-211" font-family="Helvetica,sans-Serif" font-size="10.00" fill="#000000"> +hitsmap_cuts</text>
<text text-anchor="middle" x="710" y="-200" font-family="Helvetica,sans-Serif" font-size="10.00" fill="#000000">+hchi2dca</text>
<text text-anchor="middle" x="710" y="-189" font-family="Helvetica,sans-Serif" font-size="10.00" fill="#000000">+hvtx_x_out</text>
<text text-anchor="middle" x="710" y="-178" font-family="Helvetica,sans-Serif" font-size="10.00" fill="#000000">+hitsmap_nocuts</text>
<text text-anchor="middle" x="710" y="-167" font-family="Helvetica,sans-Serif" font-size="10.00" fill="#000000">+hvtx_z_out</text>
<text text-anchor="middle" x="710" y="-156" font-family="Helvetica,sans-Serif" font-size="10.00" fill="#000000">+hvtx_y_out</text>
<text text-anchor="middle" x="710" y="-145" font-family="Helvetica,sans-Serif" font-size="10.00" fill="#000000">+hpt_cuts</text>
<text text-anchor="middle" x="710" y="-134" font-family="Helvetica,sans-Serif" font-size="10.00" fill="#000000">+hvtxp_z_out</text>
<text text-anchor="middle" x="710" y="-123" font-family="Helvetica,sans-Serif" font-size="10.00" fill="#000000">+htgl_nocuts</text>
<text text-anchor="middle" x="710" y="-112" font-family="Helvetica,sans-Serif" font-size="10.00" fill="#000000">+hvtxp_y_out</text>
<text text-anchor="middle" x="710" y="-101" font-family="Helvetica,sans-Serif" font-size="10.00" fill="#000000">...</text>
</g>
<!-- Node9 -->
<g id="node9" class="node">
<title>Node9</title>
<polygon fill="none" stroke="#bfbfbf" points="541.5,-684 541.5,-741 680.5,-741 680.5,-684 541.5,-684"/>
<text text-anchor="middle" x="611" y="-729" font-family="Helvetica,sans-Serif" font-size="10.00" fill="#000000">OutputObjHandlingPolicy</text>
<polyline fill="none" stroke="#bfbfbf" points="541.5,-722 680.5,-722 "/>
<text text-anchor="middle" x="611" y="-710" font-family="Helvetica,sans-Serif" font-size="10.00" fill="#000000"> </text>
<polyline fill="none" stroke="#bfbfbf" points="541.5,-703 680.5,-703 "/>
<text text-anchor="middle" x="611" y="-691" font-family="Helvetica,sans-Serif" font-size="10.00" fill="#000000"> </text>
</g>
<!-- Node9&#45;&gt;Node8 -->
<g id="edge9" class="edge">
<title>Node9&#45;&gt;Node8</title>
<path fill="none" stroke="#404040" d="M631.3532,-683.8315C639.6594,-670.5363 648.3836,-654.1304 653,-638 673.6473,-565.8546 676.2853,-480.7317 674.2337,-416.8697"/>
<polygon fill="none" stroke="#404040" points="674.2307,-416.7879 670.0093,-410.9416 673.7822,-404.7963 678.0037,-410.6425 674.2307,-416.7879"/>
<text text-anchor="middle" x="695.5" y="-528" font-family="Helvetica,sans-Serif" font-size="10.00" fill="#000000"> +policy</text>
</g>
<!-- Node9&#45;&gt;Node16 -->
<g id="edge19" class="edge">
<title>Node9&#45;&gt;Node16</title>
<path fill="none" stroke="#404040" d="M574.4838,-683.8809C557.5988,-670.3259 537.4618,-653.6977 520,-638 512.5415,-631.295 504.9136,-624.231 497.3282,-617.0596"/>
<polygon fill="none" stroke="#404040" points="497.144,-616.8841 490.0408,-615.6414 488.4559,-608.6066 495.5591,-609.8493 497.144,-616.8841"/>
<text text-anchor="middle" x="540.5" y="-630" font-family="Helvetica,sans-Serif" font-size="10.00" fill="#000000"> +policy</text>
</g>
<!-- Node10 -->
<g id="node10" class="node">
<title>Node10</title>
<polygon fill="none" stroke="#bfbfbf" points="284,-684 284,-741 322,-741 322,-684 284,-684"/>
<text text-anchor="middle" x="303" y="-729" font-family="Helvetica,sans-Serif" font-size="10.00" fill="#000000">bool</text>
<polyline fill="none" stroke="#bfbfbf" points="284,-722 322,-722 "/>
<text text-anchor="middle" x="303" y="-710" font-family="Helvetica,sans-Serif" font-size="10.00" fill="#000000"> </text>
<polyline fill="none" stroke="#bfbfbf" points="284,-703 322,-703 "/>
<text text-anchor="middle" x="303" y="-691" font-family="Helvetica,sans-Serif" font-size="10.00" fill="#000000"> </text>
</g>
<!-- Node10&#45;&gt;Node8 -->
<g id="edge11" class="edge">
<title>Node10&#45;&gt;Node8</title>
<path fill="none" stroke="#404040" d="M291.3926,-683.8309C287.6034,-674.8473 283.2688,-664.9449 279,-656 268.8096,-634.6468 259.7257,-631.9569 254,-609 237.1138,-541.2963 212.7881,-508.3074 254,-452 293.1821,-398.4659 474.4381,-356.5123 583.3848,-335.5957"/>
<polygon fill="none" stroke="#404040" points="583.531,-335.5681 588.6808,-330.5203 595.321,-333.3326 590.1712,-338.3803 583.531,-335.5681"/>
<text text-anchor="middle" x="285" y="-528" font-family="Helvetica,sans-Serif" font-size="10.00" fill="#000000"> +isdangling</text>
</g>
<!-- Node10&#45;&gt;Node16 -->
<g id="edge22" class="edge">
<title>Node10&#45;&gt;Node16</title>
<path fill="none" stroke="#404040" d="M312.5856,-683.9167C318.8099,-666.8799 327.6741,-645.1147 338,-627 339.5247,-624.3252 341.1141,-621.6404 342.7558,-618.9554"/>
<polygon fill="none" stroke="#404040" points="342.8868,-618.7491 342.7274,-611.5397 349.3209,-608.6197 349.4803,-615.8291 342.8868,-618.7491"/>
<text text-anchor="middle" x="369" y="-630" font-family="Helvetica,sans-Serif" font-size="10.00" fill="#000000"> +isdangling</text>
</g>
<!-- Node11&#45;&gt;Node8 -->
<g id="edge12" class="edge">
<title>Node11&#45;&gt;Node8</title>
<path fill="none" stroke="#404040" d="M893.5117,-656.3914C894.368,-600.5404 888.324,-514.3767 850,-452 826.1714,-413.2162 786.132,-382.6021 749.5709,-360.754"/>
<polygon fill="none" stroke="#404040" points="749.2434,-360.564 742.0462,-361.0121 738.8644,-354.5408 746.0616,-354.0928 749.2434,-360.564"/>
<text text-anchor="middle" x="910" y="-528" font-family="Helvetica,sans-Serif" font-size="10.00" fill="#000000"> +spec</text>
</g>
<!-- Node11&#45;&gt;Node16 -->
<g id="edge23" class="edge">
<title>Node11&#45;&gt;Node16</title>
<path fill="none" stroke="#404040" d="M820.655,-656.4817C802.2782,-644.5508 781.746,-633.5764 761,-627 656.3977,-593.8416 614.3836,-647.3053 508.6121,-609.4265"/>
<polygon fill="none" stroke="#404040" points="508.3509,-609.327 501.3198,-610.9283 497.1375,-605.0539 504.1685,-603.4527 508.3509,-609.327"/>
<text text-anchor="middle" x="802" y="-630" font-family="Helvetica,sans-Serif" font-size="10.00" fill="#000000"> +spec</text>
</g>
<!-- Node12 -->
<g id="node12" class="node">
<title>Node12</title>
<polygon fill="none" stroke="#bfbfbf" points="827,-844 827,-901 915,-901 915,-844 827,-844"/>
<text text-anchor="middle" x="871" y="-889" font-family="Helvetica,sans-Serif" font-size="10.00" fill="#000000">enum Lifetime</text>
<polyline fill="none" stroke="#bfbfbf" points="827,-882 915,-882 "/>
<text text-anchor="middle" x="871" y="-870" font-family="Helvetica,sans-Serif" font-size="10.00" fill="#000000"> </text>
<polyline fill="none" stroke="#bfbfbf" points="827,-863 915,-863 "/>
<text text-anchor="middle" x="871" y="-851" font-family="Helvetica,sans-Serif" font-size="10.00" fill="#000000"> </text>
</g>
<!-- Node12&#45;&gt;Node11 -->
<g id="edge13" class="edge">
<title>Node12&#45;&gt;Node11</title>
<path fill="none" stroke="#404040" d="M874.3968,-843.8952C876.4862,-826.3 879.2587,-802.9527 881.8866,-780.8235"/>
<polygon fill="none" stroke="#404040" points="881.9112,-780.6154 878.6467,-774.1855 883.3264,-768.6991 886.5909,-775.1289 881.9112,-780.6154"/>
<text text-anchor="middle" x="907" y="-795.5" font-family="Helvetica,sans-Serif" font-size="10.00" fill="#000000"> +lifetime</text>
</g>
<!-- Node13 -->
<g id="node13" class="node">
<title>Node13</title>
<polygon fill="none" stroke="#bfbfbf" points="933,-827.5 933,-917.5 1097,-917.5 1097,-827.5 933,-827.5"/>
<text text-anchor="start" x="941" y="-905.5" font-family="Helvetica,sans-Serif" font-size="10.00" fill="#000000">variant&lt; o2::framework</text>
<text text-anchor="start" x="941" y="-894.5" font-family="Helvetica,sans-Serif" font-size="10.00" fill="#000000">::ConcreteDataMatcher,</text>
<text text-anchor="start" x="941" y="-883.5" font-family="Helvetica,sans-Serif" font-size="10.00" fill="#000000"> o2::framework::data_matcher</text>
<text text-anchor="middle" x="1015" y="-872.5" font-family="Helvetica,sans-Serif" font-size="10.00" fill="#000000">::DataDescriptorMatcher &gt;</text>
<polyline fill="none" stroke="#bfbfbf" points="933,-865.5 1097,-865.5 "/>
<text text-anchor="middle" x="1015" y="-853.5" font-family="Helvetica,sans-Serif" font-size="10.00" fill="#000000"> </text>
<polyline fill="none" stroke="#bfbfbf" points="933,-846.5 1097,-846.5 "/>
<text text-anchor="middle" x="1015" y="-834.5" font-family="Helvetica,sans-Serif" font-size="10.00" fill="#000000"> </text>
</g>
<!-- Node13&#45;&gt;Node11 -->
<g id="edge14" class="edge">
<title>Node13&#45;&gt;Node11</title>
<path fill="none" stroke="#404040" d="M979.5144,-827.0784C967.628,-811.8639 954.1274,-794.5831 941.2807,-778.1393"/>
<polygon fill="none" stroke="#404040" points="941.1972,-778.0324 934.3513,-775.7669 933.8095,-768.5761 940.6555,-770.8417 941.1972,-778.0324"/>
<text text-anchor="middle" x="990" y="-795.5" font-family="Helvetica,sans-Serif" font-size="10.00" fill="#000000"> +matcher</text>
</g>
<!-- Node14 -->
<g id="node14" class="node">
<title>Node14</title>
<polygon fill="none" stroke="#bfbfbf" points="739.5,-684 739.5,-741 800.5,-741 800.5,-684 739.5,-684"/>
<text text-anchor="middle" x="770" y="-729" font-family="Helvetica,sans-Serif" font-size="10.00" fill="#000000">unsigned</text>
<polyline fill="none" stroke="#bfbfbf" points="739.5,-722 800.5,-722 "/>
<text text-anchor="middle" x="770" y="-710" font-family="Helvetica,sans-Serif" font-size="10.00" fill="#000000"> </text>
<polyline fill="none" stroke="#bfbfbf" points="739.5,-703 800.5,-703 "/>
<text text-anchor="middle" x="770" y="-691" font-family="Helvetica,sans-Serif" font-size="10.00" fill="#000000"> </text>
</g>
<!-- Node14&#45;&gt;Node8 -->
<g id="edge16" class="edge">
<title>Node14&#45;&gt;Node8</title>
<path fill="none" stroke="#404040" d="M773.578,-683.7176C779.0441,-630.2161 785.4284,-512.7377 750,-423 748.3744,-418.8823 746.5188,-414.8033 744.4774,-410.7805"/>
<polygon fill="none" stroke="#404040" points="744.4761,-410.7781 738.0726,-407.4623 738.6704,-400.276 745.0739,-403.5918 744.4761,-410.7781"/>
<text text-anchor="middle" x="812" y="-528" font-family="Helvetica,sans-Serif" font-size="10.00" fill="#000000"> +mTaskHash</text>
</g>
<!-- Node14&#45;&gt;Node16 -->
<g id="edge24" class="edge">
<title>Node14&#45;&gt;Node16</title>
<path fill="none" stroke="#404040" d="M739.2794,-687.1585C724.7703,-676.248 706.7647,-664.1523 689,-656 653.5975,-639.7537 558.5795,-629.5974 508.1073,-609.1584"/>
<polygon fill="none" stroke="#404040" points="508.0969,-609.1537 500.9794,-610.3118 497.1729,-604.1872 504.2904,-603.0291 508.0969,-609.1537"/>
<text text-anchor="middle" x="653" y="-630" font-family="Helvetica,sans-Serif" font-size="10.00" fill="#000000"> +mTaskHash</text>
</g>
<!-- Node15 -->
<g id="node15" class="node">
<title>Node15</title>
<polygon fill="none" stroke="#bfbfbf" points="515,-502 515,-559 631,-559 631,-502 515,-502"/>
<text text-anchor="middle" x="573" y="-547" font-family="Helvetica,sans-Serif" font-size="10.00" fill="#000000">shared_ptr&lt; TH1F &gt;</text>
<polyline fill="none" stroke="#bfbfbf" points="515,-540 631,-540 "/>
<text text-anchor="middle" x="573" y="-528" font-family="Helvetica,sans-Serif" font-size="10.00" fill="#000000"> </text>
<polyline fill="none" stroke="#bfbfbf" points="515,-521 631,-521 "/>
<text text-anchor="middle" x="573" y="-509" font-family="Helvetica,sans-Serif" font-size="10.00" fill="#000000"> </text>
</g>
<!-- Node15&#45;&gt;Node8 -->
<g id="edge17" class="edge">
<title>Node15&#45;&gt;Node8</title>
<path fill="none" stroke="#404040" d="M581.7679,-501.7147C588.7851,-479.778 599.3526,-449.0164 611,-423 612.1066,-420.5281 613.251,-418.0354 614.426,-415.5309"/>
<polygon fill="none" stroke="#404040" points="614.534,-415.307 613.5415,-408.1645 619.7528,-404.5012 620.7453,-411.6436 614.534,-415.307"/>
<text text-anchor="middle" x="632" y="-426" font-family="Helvetica,sans-Serif" font-size="10.00" fill="#000000"> +object</text>
</g>
<!-- Node16&#45;&gt;Node8 -->
<g id="edge18" class="edge">
<title>Node16&#45;&gt;Node8</title>
<path fill="none" stroke="#ffa500" d="M505.1844,-452.6688C505.4567,-452.4455 505.7286,-452.2226 506,-452 535.1191,-428.1232 567.2926,-401.9111 595.1747,-379.2488"/>
<polygon fill="#ffa500" stroke="#ffa500" points="502.6981,-450.1816 497.19,-459.232 507.1398,-455.5919 502.6981,-450.1816"/>
<text text-anchor="middle" x="567.5" y="-426" font-family="Helvetica,sans-Serif" font-size="10.00" fill="#000000"> &lt; TH1F &gt;</text>
</g>
<!-- Node17 -->
<g id="node17" class="node">
<title>Node17</title>
<polygon fill="none" stroke="#bfbfbf" points="349.5,-684 349.5,-741 446.5,-741 446.5,-684 349.5,-684"/>
<text text-anchor="middle" x="398" y="-729" font-family="Helvetica,sans-Serif" font-size="10.00" fill="#000000">shared_ptr&lt; T &gt;</text>
<polyline fill="none" stroke="#bfbfbf" points="349.5,-722 446.5,-722 "/>
<text text-anchor="middle" x="398" y="-710" font-family="Helvetica,sans-Serif" font-size="10.00" fill="#000000"> </text>
<polyline fill="none" stroke="#bfbfbf" points="349.5,-703 446.5,-703 "/>
<text text-anchor="middle" x="398" y="-691" font-family="Helvetica,sans-Serif" font-size="10.00" fill="#000000"> </text>
</g>
<!-- Node17&#45;&gt;Node16 -->
<g id="edge21" class="edge">
<title>Node17&#45;&gt;Node16</title>
<path fill="none" stroke="#404040" d="M400.0599,-683.6616C401.2858,-666.4991 402.9153,-643.686 404.5413,-620.9212"/>
<polygon fill="none" stroke="#404040" points="404.5603,-620.6544 400.998,-614.3846 405.4154,-608.6849 408.9777,-614.9546 404.5603,-620.6544"/>
<text text-anchor="middle" x="425" y="-630" font-family="Helvetica,sans-Serif" font-size="10.00" fill="#000000"> +object</text>
</g>
</g>
</svg>
        <g id="navigator" transform="translate(0 0)" fill="#404254">
                <rect fill="#f2f5e9" fill-opacity="0.5" stroke="#606060" stroke-width=".5" x="0" y="0" width="60" height="60"/>
                <use id="zoomplus" xlink:href="#zoomPlus" x="17" y="9" onmousedown="handleZoom(evt,'in')"/>
                <use id="zoomminus" xlink:href="#zoomMin" x="42" y="9" onmousedown="handleZoom(evt,'out')"/>
                <use id="reset" xlink:href="#resetDef" x="30" y="36" onmousedown="handleReset()"/>
                <g id="arrowUp" xlink:href="#dirArrow" transform="translate(30 24)" onmousedown="handlePan(0,-1)">
                  <use xlink:href="#rim" fill="#404040">
                        <set attributeName="fill" to="#808080" begin="arrowUp.mouseover" end="arrowUp.mouseout"/>
                  </use>
                  <path fill="none" stroke="white" stroke-width="1.5" d="M0,-3.0v7 M-2.5,-0.5L0,-3.0L2.5,-0.5"/>
                </g>
                <g id="arrowRight" xlink:href="#dirArrow" transform="rotate(90) translate(36 -43)" onmousedown="handlePan(1,0)">
                  <use xlink:href="#rim" fill="#404040">
                        <set attributeName="fill" to="#808080" begin="arrowRight.mouseover" end="arrowRight.mouseout"/>
                  </use>
                  <path fill="none" stroke="white" stroke-width="1.5" d="M0,-3.0v7 M-2.5,-0.5L0,-3.0L2.5,-0.5"/>
                </g>
                <g id="arrowDown" xlink:href="#dirArrow" transform="rotate(180) translate(-30 -48)" onmousedown="handlePan(0,1)">
                  <use xlink:href="#rim" fill="#404040">
                        <set attributeName="fill" to="#808080" begin="arrowDown.mouseover" end="arrowDown.mouseout"/>
                  </use>
                  <path fill="none" stroke="white" stroke-width="1.5" d="M0,-3.0v7 M-2.5,-0.5L0,-3.0L2.5,-0.5"/>
                </g>
                <g id="arrowLeft" xlink:href="#dirArrow" transform="rotate(270) translate(-36 17)" onmousedown="handlePan(-1,0)">
                  <use xlink:href="#rim" fill="#404040">
                        <set attributeName="fill" to="#808080" begin="arrowLeft.mouseover" end="arrowLeft.mouseout"/>
                  </use>
                  <path fill="none" stroke="white" stroke-width="1.5" d="M0,-3.0v7 M-2.5,-0.5L0,-3.0L2.5,-0.5"/>
                </g>
        </g>
        <svg viewBox="0 0 15 15" width="100%" height="30px" preserveAspectRatio="xMaxYMin meet">
         <g id="arrow_out" transform="scale(0.3 0.3)">
          <a xlink:href="structDecayVertexBuilder2Prong__coll__graph_org.svg" target="_base">
           <rect id="button" ry="5" rx="5" y="6" x="6" height="38" width="38"
                fill="#f2f5e9" fill-opacity="0.5" stroke="#606060" stroke-width="1.0"/>
           <path id="arrow"
             d="M 11.500037,31.436501 C 11.940474,20.09759 22.043105,11.32322 32.158766,21.979434 L 37.068811,17.246167 C 37.068811,17.246167 37.088388,32 37.088388,32 L 22.160133,31.978069 C 22.160133,31.978069 26.997745,27.140456 26.997745,27.140456 C 18.528582,18.264221 13.291696,25.230495 11.500037,31.436501 z"
             style="fill:#404040;"/>
          </a>
         </g>
        </svg>
</svg>
