<?xml version="1.0" encoding="UTF-8" standalone="no"?>
<!DOCTYPE svg PUBLIC "-//W3C//DTD SVG 1.1//EN"
 "http://www.w3.org/Graphics/SVG/1.1/DTD/svg11.dtd">
<!-- Generated by graphviz version 2.40.1 (20161225.0304)
 -->
<!-- Title: o2::gpu::GPUO2InterfaceIOPtrs Pages: 1 -->
<svg width="1027pt" height="903pt"
 viewBox="0.00 0.00 1026.50 903.00" xmlns="http://www.w3.org/2000/svg" xmlns:xlink="http://www.w3.org/1999/xlink">
<g id="graph0" class="graph" transform="scale(1 1) rotate(0) translate(4 899)">
<title>o2::gpu::GPUO2InterfaceIOPtrs</title>
<!-- Node1 -->
<g id="node1" class="node">
<title>Node1</title>
<polygon fill="#bfbfbf" stroke="#000000" points="459.5,-.5 459.5,-57.5 625.5,-57.5 625.5,-.5 459.5,-.5"/>
<text text-anchor="middle" x="542.5" y="-45.5" font-family="Helvetica,sans-Serif" font-size="10.00" fill="#000000">o2::gpu::GPUO2InterfaceIOPtrs</text>
<polyline fill="none" stroke="#000000" points="459.5,-38.5 625.5,-38.5 "/>
<text text-anchor="middle" x="542.5" y="-26.5" font-family="Helvetica,sans-Serif" font-size="10.00" fill="#000000"> </text>
<polyline fill="none" stroke="#000000" points="459.5,-19.5 625.5,-19.5 "/>
<text text-anchor="middle" x="542.5" y="-7.5" font-family="Helvetica,sans-Serif" font-size="10.00" fill="#000000"> </text>
</g>
<!-- Node2 -->
<g id="node2" class="node">
<title>Node2</title>
<polygon fill="none" stroke="#bfbfbf" points="0,-287 0,-344 161,-344 161,-287 0,-287"/>
<text text-anchor="middle" x="80.5" y="-332" font-family="Helvetica,sans-Serif" font-size="10.00" fill="#000000">vector&lt; o2::tpc::TrackTPC &gt; *</text>
<polyline fill="none" stroke="#bfbfbf" points="0,-325 161,-325 "/>
<text text-anchor="middle" x="80.5" y="-313" font-family="Helvetica,sans-Serif" font-size="10.00" fill="#000000"> </text>
<polyline fill="none" stroke="#bfbfbf" points="0,-306 161,-306 "/>
<text text-anchor="middle" x="80.5" y="-294" font-family="Helvetica,sans-Serif" font-size="10.00" fill="#000000"> </text>
</g>
<!-- Node2&#45;&gt;Node1 -->
<g id="edge1" class="edge">
<title>Node2&#45;&gt;Node1</title>
<path fill="none" stroke="#404040" d="M85.6517,-286.6253C96.4983,-235.038 126.8595,-127.6221 198.5,-76 237.2083,-48.1079 359.5857,-36.7392 447.3527,-32.1241"/>
<polygon fill="none" stroke="#404040" points="447.51,-32.1163 453.3026,-27.8215 459.495,-31.5167 453.7024,-35.8115 447.51,-32.1163"/>
<text text-anchor="middle" x="235.5" y="-95.5" font-family="Helvetica,sans-Serif" font-size="10.00" fill="#000000"> +outputTracks</text>
</g>
<!-- Node3 -->
<g id="node3" class="node">
<title>Node3</title>
<g id="a_node3"><a xlink:href="../../dc/daa/classo2_1_1dataformats_1_1MCTruthContainer.html" target="_top" xlink:title="{o2::dataformats::MCTruth\lContainer\&lt; o2::MCCompLabel \&gt;\n||+ MCTruthContainer()\l+ MCTruthContainer()\l+ MCTruthContainer()\l+ MCTruthContainer()\l+ ~MCTruthContainer()\l+ operator=()\l+ operator=()\l+ getMCTruthHeader()\l+ getElement()\l+ getIndexedSize()\l+ getNElements()\l+ getLabels()\l+ getLabels()\l+ clear()\l+ addElement()\l+ addElements()\l+ addElements()\l+ addElementRandomAccess()\l+ setFrom()\l+ mergeAtBack()\l+ mergeAtBack()\l+ flatten_to()\l+ restore_from()\l+ print()\l+ inflate()\l+ deflate()\l+ ClassDefNV()\l}">
<polygon fill="none" stroke="#000000" points="179.5,-138.5 179.5,-492.5 353.5,-492.5 353.5,-138.5 179.5,-138.5"/>
<text text-anchor="start" x="187.5" y="-480.5" font-family="Helvetica,sans-Serif" font-size="10.00" fill="#000000">o2::dataformats::MCTruth</text>
<text text-anchor="middle" x="266.5" y="-469.5" font-family="Helvetica,sans-Serif" font-size="10.00" fill="#000000">Container&lt; o2::MCCompLabel &gt;</text>
<polyline fill="none" stroke="#000000" points="179.5,-462.5 353.5,-462.5 "/>
<text text-anchor="middle" x="266.5" y="-450.5" font-family="Helvetica,sans-Serif" font-size="10.00" fill="#000000"> </text>
<polyline fill="none" stroke="#000000" points="179.5,-443.5 353.5,-443.5 "/>
<text text-anchor="start" x="187.5" y="-431.5" font-family="Helvetica,sans-Serif" font-size="10.00" fill="#000000">+ MCTruthContainer()</text>
<text text-anchor="start" x="187.5" y="-420.5" font-family="Helvetica,sans-Serif" font-size="10.00" fill="#000000">+ MCTruthContainer()</text>
<text text-anchor="start" x="187.5" y="-409.5" font-family="Helvetica,sans-Serif" font-size="10.00" fill="#000000">+ MCTruthContainer()</text>
<text text-anchor="start" x="187.5" y="-398.5" font-family="Helvetica,sans-Serif" font-size="10.00" fill="#000000">+ MCTruthContainer()</text>
<text text-anchor="start" x="187.5" y="-387.5" font-family="Helvetica,sans-Serif" font-size="10.00" fill="#000000">+ ~MCTruthContainer()</text>
<text text-anchor="start" x="187.5" y="-376.5" font-family="Helvetica,sans-Serif" font-size="10.00" fill="#000000">+ operator=()</text>
<text text-anchor="start" x="187.5" y="-365.5" font-family="Helvetica,sans-Serif" font-size="10.00" fill="#000000">+ operator=()</text>
<text text-anchor="start" x="187.5" y="-354.5" font-family="Helvetica,sans-Serif" font-size="10.00" fill="#000000">+ getMCTruthHeader()</text>
<text text-anchor="start" x="187.5" y="-343.5" font-family="Helvetica,sans-Serif" font-size="10.00" fill="#000000">+ getElement()</text>
<text text-anchor="start" x="187.5" y="-332.5" font-family="Helvetica,sans-Serif" font-size="10.00" fill="#000000">+ getIndexedSize()</text>
<text text-anchor="start" x="187.5" y="-321.5" font-family="Helvetica,sans-Serif" font-size="10.00" fill="#000000">+ getNElements()</text>
<text text-anchor="start" x="187.5" y="-310.5" font-family="Helvetica,sans-Serif" font-size="10.00" fill="#000000">+ getLabels()</text>
<text text-anchor="start" x="187.5" y="-299.5" font-family="Helvetica,sans-Serif" font-size="10.00" fill="#000000">+ getLabels()</text>
<text text-anchor="start" x="187.5" y="-288.5" font-family="Helvetica,sans-Serif" font-size="10.00" fill="#000000">+ clear()</text>
<text text-anchor="start" x="187.5" y="-277.5" font-family="Helvetica,sans-Serif" font-size="10.00" fill="#000000">+ addElement()</text>
<text text-anchor="start" x="187.5" y="-266.5" font-family="Helvetica,sans-Serif" font-size="10.00" fill="#000000">+ addElements()</text>
<text text-anchor="start" x="187.5" y="-255.5" font-family="Helvetica,sans-Serif" font-size="10.00" fill="#000000">+ addElements()</text>
<text text-anchor="start" x="187.5" y="-244.5" font-family="Helvetica,sans-Serif" font-size="10.00" fill="#000000">+ addElementRandomAccess()</text>
<text text-anchor="start" x="187.5" y="-233.5" font-family="Helvetica,sans-Serif" font-size="10.00" fill="#000000">+ setFrom()</text>
<text text-anchor="start" x="187.5" y="-222.5" font-family="Helvetica,sans-Serif" font-size="10.00" fill="#000000">+ mergeAtBack()</text>
<text text-anchor="start" x="187.5" y="-211.5" font-family="Helvetica,sans-Serif" font-size="10.00" fill="#000000">+ mergeAtBack()</text>
<text text-anchor="start" x="187.5" y="-200.5" font-family="Helvetica,sans-Serif" font-size="10.00" fill="#000000">+ flatten_to()</text>
<text text-anchor="start" x="187.5" y="-189.5" font-family="Helvetica,sans-Serif" font-size="10.00" fill="#000000">+ restore_from()</text>
<text text-anchor="start" x="187.5" y="-178.5" font-family="Helvetica,sans-Serif" font-size="10.00" fill="#000000">+ print()</text>
<text text-anchor="start" x="187.5" y="-167.5" font-family="Helvetica,sans-Serif" font-size="10.00" fill="#000000">+ inflate()</text>
<text text-anchor="start" x="187.5" y="-156.5" font-family="Helvetica,sans-Serif" font-size="10.00" fill="#000000">+ deflate()</text>
<text text-anchor="start" x="187.5" y="-145.5" font-family="Helvetica,sans-Serif" font-size="10.00" fill="#000000">+ ClassDefNV()</text>
</a>
</g>
</g>
<!-- Node3&#45;&gt;Node1 -->
<g id="edge2" class="edge">
<title>Node3&#45;&gt;Node1</title>
<path fill="none" stroke="#404040" d="M268.5214,-138.2992C275.6531,-115.1477 286.747,-93.4526 303.5,-76 323.3896,-55.2799 389.4631,-43.3156 447.1086,-36.649"/>
<polygon fill="none" stroke="#404040" points="447.3346,-36.6241 452.8588,-31.9891 459.262,-35.3056 453.7378,-39.9406 447.3346,-36.6241"/>
<text text-anchor="middle" x="360" y="-95.5" font-family="Helvetica,sans-Serif" font-size="10.00" fill="#000000"> +outputTracksMCTruth</text>
</g>
<!-- Node4 -->
<g id="node4" class="node">
<title>Node4</title>
<g id="a_node4"><a xlink:href="../../dc/daa/classo2_1_1dataformats_1_1MCTruthContainer.html" target="_top" xlink:title="A container to hold and manage MC truth information/labels. ">
<polygon fill="none" stroke="#000000" points="182.5,-540.5 182.5,-894.5 350.5,-894.5 350.5,-540.5 182.5,-540.5"/>
<text text-anchor="start" x="190.5" y="-882.5" font-family="Helvetica,sans-Serif" font-size="10.00" fill="#000000">o2::dataformats::MCTruth</text>
<text text-anchor="middle" x="266.5" y="-871.5" font-family="Helvetica,sans-Serif" font-size="10.00" fill="#000000">Container&lt; TruthElement &gt;</text>
<polyline fill="none" stroke="#000000" points="182.5,-864.5 350.5,-864.5 "/>
<text text-anchor="middle" x="266.5" y="-852.5" font-family="Helvetica,sans-Serif" font-size="10.00" fill="#000000"> </text>
<polyline fill="none" stroke="#000000" points="182.5,-845.5 350.5,-845.5 "/>
<text text-anchor="start" x="190.5" y="-833.5" font-family="Helvetica,sans-Serif" font-size="10.00" fill="#000000">+ MCTruthContainer()</text>
<text text-anchor="start" x="190.5" y="-822.5" font-family="Helvetica,sans-Serif" font-size="10.00" fill="#000000">+ ~MCTruthContainer()</text>
<text text-anchor="start" x="190.5" y="-811.5" font-family="Helvetica,sans-Serif" font-size="10.00" fill="#000000">+ MCTruthContainer()</text>
<text text-anchor="start" x="190.5" y="-800.5" font-family="Helvetica,sans-Serif" font-size="10.00" fill="#000000">+ MCTruthContainer()</text>
<text text-anchor="start" x="190.5" y="-789.5" font-family="Helvetica,sans-Serif" font-size="10.00" fill="#000000">+ MCTruthContainer()</text>
<text text-anchor="start" x="190.5" y="-778.5" font-family="Helvetica,sans-Serif" font-size="10.00" fill="#000000">+ operator=()</text>
<text text-anchor="start" x="190.5" y="-767.5" font-family="Helvetica,sans-Serif" font-size="10.00" fill="#000000">+ operator=()</text>
<text text-anchor="start" x="190.5" y="-756.5" font-family="Helvetica,sans-Serif" font-size="10.00" fill="#000000">+ getMCTruthHeader()</text>
<text text-anchor="start" x="190.5" y="-745.5" font-family="Helvetica,sans-Serif" font-size="10.00" fill="#000000">+ getElement()</text>
<text text-anchor="start" x="190.5" y="-734.5" font-family="Helvetica,sans-Serif" font-size="10.00" fill="#000000">+ getIndexedSize()</text>
<text text-anchor="start" x="190.5" y="-723.5" font-family="Helvetica,sans-Serif" font-size="10.00" fill="#000000">+ getNElements()</text>
<text text-anchor="start" x="190.5" y="-712.5" font-family="Helvetica,sans-Serif" font-size="10.00" fill="#000000">+ getLabels()</text>
<text text-anchor="start" x="190.5" y="-701.5" font-family="Helvetica,sans-Serif" font-size="10.00" fill="#000000">+ getLabels()</text>
<text text-anchor="start" x="190.5" y="-690.5" font-family="Helvetica,sans-Serif" font-size="10.00" fill="#000000">+ clear()</text>
<text text-anchor="start" x="190.5" y="-679.5" font-family="Helvetica,sans-Serif" font-size="10.00" fill="#000000">+ addElement()</text>
<text text-anchor="start" x="190.5" y="-668.5" font-family="Helvetica,sans-Serif" font-size="10.00" fill="#000000">+ addElements()</text>
<text text-anchor="start" x="190.5" y="-657.5" font-family="Helvetica,sans-Serif" font-size="10.00" fill="#000000">+ addElements()</text>
<text text-anchor="start" x="190.5" y="-646.5" font-family="Helvetica,sans-Serif" font-size="10.00" fill="#000000">+ addElementRandomAccess()</text>
<text text-anchor="start" x="190.5" y="-635.5" font-family="Helvetica,sans-Serif" font-size="10.00" fill="#000000">+ setFrom()</text>
<text text-anchor="start" x="190.5" y="-624.5" font-family="Helvetica,sans-Serif" font-size="10.00" fill="#000000">+ mergeAtBack()</text>
<text text-anchor="start" x="190.5" y="-613.5" font-family="Helvetica,sans-Serif" font-size="10.00" fill="#000000">+ mergeAtBack()</text>
<text text-anchor="start" x="190.5" y="-602.5" font-family="Helvetica,sans-Serif" font-size="10.00" fill="#000000">+ flatten_to()</text>
<text text-anchor="start" x="190.5" y="-591.5" font-family="Helvetica,sans-Serif" font-size="10.00" fill="#000000">+ restore_from()</text>
<text text-anchor="start" x="190.5" y="-580.5" font-family="Helvetica,sans-Serif" font-size="10.00" fill="#000000">+ print()</text>
<text text-anchor="start" x="190.5" y="-569.5" font-family="Helvetica,sans-Serif" font-size="10.00" fill="#000000">+ inflate()</text>
<text text-anchor="start" x="190.5" y="-558.5" font-family="Helvetica,sans-Serif" font-size="10.00" fill="#000000">+ deflate()</text>
<text text-anchor="start" x="190.5" y="-547.5" font-family="Helvetica,sans-Serif" font-size="10.00" fill="#000000">+ ClassDefNV()</text>
</a>
</g>
</g>
<!-- Node4&#45;&gt;Node3 -->
<g id="edge3" class="edge">
<title>Node4&#45;&gt;Node3</title>
<path fill="none" stroke="#ffa500" d="M266.5,-530.2865C266.5,-517.7776 266.5,-505.1971 266.5,-492.7401"/>
<polygon fill="#ffa500" stroke="#ffa500" points="263.0001,-530.2993 266.5,-540.2994 270.0001,-530.2994 263.0001,-530.2993"/>
<text text-anchor="middle" x="323.5" y="-514" font-family="Helvetica,sans-Serif" font-size="10.00" fill="#000000"> &lt; o2::MCCompLabel &gt;</text>
</g>
<!-- Node5 -->
<g id="node5" class="node">
<title>Node5</title>
<polygon fill="none" stroke="#bfbfbf" points="372,-287 372,-344 417,-344 417,-287 372,-287"/>
<text text-anchor="middle" x="394.5" y="-332" font-family="Helvetica,sans-Serif" font-size="10.00" fill="#000000">size_t</text>
<polyline fill="none" stroke="#bfbfbf" points="372,-325 417,-325 "/>
<text text-anchor="middle" x="394.5" y="-313" font-family="Helvetica,sans-Serif" font-size="10.00" fill="#000000"> </text>
<polyline fill="none" stroke="#bfbfbf" points="372,-306 417,-306 "/>
<text text-anchor="middle" x="394.5" y="-294" font-family="Helvetica,sans-Serif" font-size="10.00" fill="#000000"> </text>
</g>
<!-- Node5&#45;&gt;Node1 -->
<g id="edge4" class="edge">
<title>Node5&#45;&gt;Node1</title>
<path fill="none" stroke="#404040" d="M392.3758,-286.6284C390.3681,-237.4052 393.4958,-136.6895 445.5,-76 449.0197,-71.8925 452.9812,-68.1134 457.24,-64.6408"/>
<polygon fill="none" stroke="#404040" points="457.294,-64.6013 459.7775,-57.8314 466.9819,-57.52 464.4984,-64.2899 457.294,-64.6013"/>
<text text-anchor="middle" x="492" y="-95.5" font-family="Helvetica,sans-Serif" font-size="10.00" fill="#000000"> +outputBufferSize</text>
</g>
<!-- Node6 -->
<g id="node6" class="node">
<title>Node6</title>
<polygon fill="none" stroke="#bfbfbf" points="435,-276 435,-355 650,-355 650,-276 435,-276"/>
<text text-anchor="start" x="443" y="-343" font-family="Helvetica,sans-Serif" font-size="10.00" fill="#000000">array&lt; const o2::dataformats</text>
<text text-anchor="start" x="443" y="-332" font-family="Helvetica,sans-Serif" font-size="10.00" fill="#000000">::MCTruthContainer&lt; o2::MCCompLabel</text>
<text text-anchor="middle" x="542.5" y="-321" font-family="Helvetica,sans-Serif" font-size="10.00" fill="#000000"> &gt; *, o2::tpc::constants::MAXSECTOR &gt; *</text>
<polyline fill="none" stroke="#bfbfbf" points="435,-314 650,-314 "/>
<text text-anchor="middle" x="542.5" y="-302" font-family="Helvetica,sans-Serif" font-size="10.00" fill="#000000"> </text>
<polyline fill="none" stroke="#bfbfbf" points="435,-295 650,-295 "/>
<text text-anchor="middle" x="542.5" y="-283" font-family="Helvetica,sans-Serif" font-size="10.00" fill="#000000"> </text>
</g>
<!-- Node6&#45;&gt;Node1 -->
<g id="edge5" class="edge">
<title>Node6&#45;&gt;Node1</title>
<path fill="none" stroke="#404040" d="M542.5,-275.9642C542.5,-221.7053 542.5,-124.6593 542.5,-69.7635"/>
<polygon fill="none" stroke="#404040" points="542.5001,-69.7427 538.5,-63.7427 542.5,-57.7427 546.5,-63.7426 542.5001,-69.7427"/>
<text text-anchor="middle" x="576" y="-95.5" font-family="Helvetica,sans-Serif" font-size="10.00" fill="#000000"> +o2DigitsMC</text>
</g>
<!-- Node7 -->
<g id="node7" class="node">
<title>Node7</title>
<polygon fill="none" stroke="#bfbfbf" points="668.5,-287 668.5,-344 806.5,-344 806.5,-287 668.5,-287"/>
<text text-anchor="middle" x="737.5" y="-332" font-family="Helvetica,sans-Serif" font-size="10.00" fill="#000000">vector&lt; unsigned int &gt; *</text>
<polyline fill="none" stroke="#bfbfbf" points="668.5,-325 806.5,-325 "/>
<text text-anchor="middle" x="737.5" y="-313" font-family="Helvetica,sans-Serif" font-size="10.00" fill="#000000"> </text>
<polyline fill="none" stroke="#bfbfbf" points="668.5,-306 806.5,-306 "/>
<text text-anchor="middle" x="737.5" y="-294" font-family="Helvetica,sans-Serif" font-size="10.00" fill="#000000"> </text>
</g>
<!-- Node7&#45;&gt;Node1 -->
<g id="edge6" class="edge">
<title>Node7&#45;&gt;Node1</title>
<path fill="none" stroke="#404040" d="M729.5442,-286.9918C714.5111,-237.8698 677.5585,-136.7153 613.5,-76 609.5303,-72.2374 605.2249,-68.5807 600.7638,-65.0778"/>
<polygon fill="none" stroke="#404040" points="600.4442,-64.8399 593.2429,-64.4652 590.8189,-57.6737 598.0203,-58.0483 600.4442,-64.8399"/>
<text text-anchor="middle" x="689" y="-95.5" font-family="Helvetica,sans-Serif" font-size="10.00" fill="#000000"> +outputClusRefs</text>
</g>
<!-- Node8 -->
<g id="node8" class="node">
<title>Node8</title>
<polygon fill="none" stroke="#bfbfbf" points="825,-287 825,-344 868,-344 868,-287 825,-287"/>
<text text-anchor="middle" x="846.5" y="-332" font-family="Helvetica,sans-Serif" font-size="10.00" fill="#000000">const</text>
<polyline fill="none" stroke="#bfbfbf" points="825,-325 868,-325 "/>
<text text-anchor="middle" x="846.5" y="-313" font-family="Helvetica,sans-Serif" font-size="10.00" fill="#000000"> </text>
<polyline fill="none" stroke="#bfbfbf" points="825,-306 868,-306 "/>
<text text-anchor="middle" x="846.5" y="-294" font-family="Helvetica,sans-Serif" font-size="10.00" fill="#000000"> </text>
</g>
<!-- Node8&#45;&gt;Node1 -->
<g id="edge7" class="edge">
<title>Node8&#45;&gt;Node1</title>
<path fill="none" stroke="#404040" d="M847.6411,-286.8833C847.8148,-249.8696 843.5876,-184.6247 815.5,-138 792.2878,-99.4682 776.0229,-95.5294 735.5,-76 705.1979,-61.3964 669.9689,-51.098 637.9664,-43.9443"/>
<polygon fill="none" stroke="#404040" points="637.6098,-43.868 630.905,-46.5223 625.8761,-41.3541 632.5809,-38.6998 637.6098,-43.868"/>
<text text-anchor="middle" x="855.5" y="-112" font-family="Helvetica,sans-Serif" font-size="10.00" fill="#000000"> +tpcZS</text>
<text text-anchor="middle" x="855.5" y="-101" font-family="Helvetica,sans-Serif" font-size="10.00" fill="#000000">+clusters</text>
<text text-anchor="middle" x="855.5" y="-90" font-family="Helvetica,sans-Serif" font-size="10.00" fill="#000000">+o2Digits</text>
<text text-anchor="middle" x="855.5" y="-79" font-family="Helvetica,sans-Serif" font-size="10.00" fill="#000000">+compressedClusters</text>
</g>
<!-- Node9 -->
<g id="node9" class="node">
<title>Node9</title>
<polygon fill="none" stroke="#bfbfbf" points="953.5,-287 953.5,-344 999.5,-344 999.5,-287 953.5,-287"/>
<text text-anchor="middle" x="976.5" y="-332" font-family="Helvetica,sans-Serif" font-size="10.00" fill="#000000">void *</text>
<polyline fill="none" stroke="#bfbfbf" points="953.5,-325 999.5,-325 "/>
<text text-anchor="middle" x="976.5" y="-313" font-family="Helvetica,sans-Serif" font-size="10.00" fill="#000000"> </text>
<polyline fill="none" stroke="#bfbfbf" points="953.5,-306 999.5,-306 "/>
<text text-anchor="middle" x="976.5" y="-294" font-family="Helvetica,sans-Serif" font-size="10.00" fill="#000000"> </text>
</g>
<!-- Node9&#45;&gt;Node1 -->
<g id="edge8" class="edge">
<title>Node9&#45;&gt;Node1</title>
<path fill="none" stroke="#404040" d="M978.3452,-286.6896C979.8756,-235.6942 974.9255,-129.852 913.5,-76 893.0724,-58.091 740.7699,-43.5094 637.7643,-35.5596"/>
<polygon fill="none" stroke="#404040" points="637.7375,-35.5577 631.4512,-39.0907 625.7722,-34.6467 632.0585,-31.1138 637.7375,-35.5577"/>
<text text-anchor="middle" x="982" y="-95.5" font-family="Helvetica,sans-Serif" font-size="10.00" fill="#000000"> +outputBuffer</text>
</g>
</g>
</svg>
