<?xml version="1.0" encoding="UTF-8" standalone="no"?>
<!DOCTYPE svg PUBLIC "-//W3C//DTD SVG 1.1//EN"
 "http://www.w3.org/Graphics/SVG/1.1/DTD/svg11.dtd">
<!-- Generated by graphviz version 2.40.1 (20161225.0304)
 -->
<!-- Title: TracksAndEventClassificationQA Pages: 1 -->
<!--zoomable 871 -->
<svg id="main" version="1.1" xmlns="http://www.w3.org/2000/svg" xmlns:xlink="http://www.w3.org/1999/xlink" xml:space="preserve" onload="init(evt)">
<style type="text/css"><![CDATA[
.edge:hover path { stroke: red; }
.edge:hover polygon { stroke: red; fill: red; }
]]></style>
<script type="text/javascript"><![CDATA[
var edges = document.getElementsByTagName('g');
if (edges && edges.length) {
  for (var i=0;i<edges.length;i++) {
    if (edges[i].id.substr(0,4)=='edge') {
      edges[i].setAttribute('class','edge');
    }
  }
}
]]></script>
        <defs>
                <circle id="rim" cx="0" cy="0" r="7"/>
                <circle id="rim2" cx="0" cy="0" r="3.5"/>
                <g id="zoomPlus">
                        <use xlink:href="#rim" fill="#404040">
                                <set attributeName="fill" to="#808080" begin="zoomplus.mouseover" end="zoomplus.mouseout"/>
                        </use>
                        <path d="M-4,0h8M0,-4v8" fill="none" stroke="white" stroke-width="1.5" pointer-events="none"/>
                </g>
                <g id="zoomMin">
                        <use xlink:href="#rim" fill="#404040">
                                <set attributeName="fill" to="#808080" begin="zoomminus.mouseover" end="zoomminus.mouseout"/>
                        </use>
                        <path d="M-4,0h8" fill="none" stroke="white" stroke-width="1.5" pointer-events="none"/>
                </g>
                <g id="dirArrow">
                        <path fill="none" stroke="white" stroke-width="1.5" d="M0,-3.0v7 M-2.5,-0.5L0,-3.0L2.5,-0.5"/>
                </g>
               <g id="resetDef">
                       <use xlink:href="#rim2" fill="#404040">
                               <set attributeName="fill" to="#808080" begin="reset.mouseover" end="reset.mouseout"/>
                       </use>
               </g>
        </defs>

<script type="text/javascript">
var viewWidth = 1060;
var viewHeight = 871;
var sectionId = 'dynsection-0';
</script>
<script xlink:href="../../svgpan.js"/>
<svg id="graph" class="graph">
<g id="viewport">
<title>TracksAndEventClassificationQA</title>
<!-- Node1 -->
<g id="node1" class="node">
<title>Node1</title>
<polygon fill="#bfbfbf" stroke="#000000" points="631.5,-.5 631.5,-57.5 804.5,-57.5 804.5,-.5 631.5,-.5"/>
<text text-anchor="middle" x="718" y="-45.5" font-family="Helvetica,sans-Serif" font-size="10.00" fill="#000000">TracksAndEventClassificationQA</text>
<polyline fill="none" stroke="#000000" points="631.5,-38.5 804.5,-38.5 "/>
<text text-anchor="middle" x="718" y="-26.5" font-family="Helvetica,sans-Serif" font-size="10.00" fill="#000000"> </text>
<polyline fill="none" stroke="#000000" points="631.5,-19.5 804.5,-19.5 "/>
<text text-anchor="start" x="639.5" y="-7.5" font-family="Helvetica,sans-Serif" font-size="10.00" fill="#000000">+ process()</text>
</g>
<!-- Node2 -->
<g id="node2" class="node">
<title>Node2</title>
<g id="a_node2"><a xlink:href="../../d4/d79/structo2_1_1framework_1_1OutputObj.html" target="_top" xlink:title="{o2::framework::OutputObj\l\&lt; TH1F \&gt;\n||+ spec()\l+ OutputObj()\l+ OutputObj()\l+ setObject()\l+ setObject()\l+ setObject()\l+ setHash()\l+ operator&#45;\&gt;()\l+ operator*()\l+ ref()\l}">
<polygon fill="none" stroke="#000000" points="564.5,-193.5 564.5,-360.5 707.5,-360.5 707.5,-193.5 564.5,-193.5"/>
<text text-anchor="start" x="572.5" y="-348.5" font-family="Helvetica,sans-Serif" font-size="10.00" fill="#000000">o2::framework::OutputObj</text>
<text text-anchor="middle" x="636" y="-337.5" font-family="Helvetica,sans-Serif" font-size="10.00" fill="#000000">&lt; TH1F &gt;</text>
<polyline fill="none" stroke="#000000" points="564.5,-330.5 707.5,-330.5 "/>
<text text-anchor="middle" x="636" y="-318.5" font-family="Helvetica,sans-Serif" font-size="10.00" fill="#000000"> </text>
<polyline fill="none" stroke="#000000" points="564.5,-311.5 707.5,-311.5 "/>
<text text-anchor="start" x="572.5" y="-299.5" font-family="Helvetica,sans-Serif" font-size="10.00" fill="#000000">+ spec()</text>
<text text-anchor="start" x="572.5" y="-288.5" font-family="Helvetica,sans-Serif" font-size="10.00" fill="#000000">+ OutputObj()</text>
<text text-anchor="start" x="572.5" y="-277.5" font-family="Helvetica,sans-Serif" font-size="10.00" fill="#000000">+ OutputObj()</text>
<text text-anchor="start" x="572.5" y="-266.5" font-family="Helvetica,sans-Serif" font-size="10.00" fill="#000000">+ setObject()</text>
<text text-anchor="start" x="572.5" y="-255.5" font-family="Helvetica,sans-Serif" font-size="10.00" fill="#000000">+ setObject()</text>
<text text-anchor="start" x="572.5" y="-244.5" font-family="Helvetica,sans-Serif" font-size="10.00" fill="#000000">+ setObject()</text>
<text text-anchor="start" x="572.5" y="-233.5" font-family="Helvetica,sans-Serif" font-size="10.00" fill="#000000">+ setHash()</text>
<text text-anchor="start" x="572.5" y="-222.5" font-family="Helvetica,sans-Serif" font-size="10.00" fill="#000000">+ operator&#45;&gt;()</text>
<text text-anchor="start" x="572.5" y="-211.5" font-family="Helvetica,sans-Serif" font-size="10.00" fill="#000000">+ operator*()</text>
<text text-anchor="start" x="572.5" y="-200.5" font-family="Helvetica,sans-Serif" font-size="10.00" fill="#000000">+ ref()</text>
</a>
</g>
</g>
<!-- Node2&#45;&gt;Node1 -->
<g id="edge1" class="edge">
<title>Node2&#45;&gt;Node1</title>
<path fill="none" stroke="#404040" d="M654.6343,-193.396C663.9914,-156.7145 676.6312,-113.5483 692,-76 693.0189,-73.5108 694.1382,-70.9858 695.3224,-68.4647"/>
<polygon fill="none" stroke="#404040" points="695.4178,-68.2754 694.5469,-61.1171 700.8196,-57.5599 701.6906,-64.7183 695.4178,-68.2754"/>
<text text-anchor="middle" x="756" y="-167" font-family="Helvetica,sans-Serif" font-size="10.00" fill="#000000"> +fTracksNone</text>
<text text-anchor="middle" x="756" y="-156" font-family="Helvetica,sans-Serif" font-size="10.00" fill="#000000">+fTracksOneAndTwo</text>
<text text-anchor="middle" x="756" y="-145" font-family="Helvetica,sans-Serif" font-size="10.00" fill="#000000">+fTracksOneUnsel</text>
<text text-anchor="middle" x="756" y="-134" font-family="Helvetica,sans-Serif" font-size="10.00" fill="#000000">+fTracksTwo</text>
<text text-anchor="middle" x="756" y="-123" font-family="Helvetica,sans-Serif" font-size="10.00" fill="#000000">+fTracksOneAndTwoUnsel</text>
<text text-anchor="middle" x="756" y="-112" font-family="Helvetica,sans-Serif" font-size="10.00" fill="#000000">+fSelectedEvents</text>
<text text-anchor="middle" x="756" y="-101" font-family="Helvetica,sans-Serif" font-size="10.00" fill="#000000">+fTracksTwoUnsel</text>
<text text-anchor="middle" x="756" y="-90" font-family="Helvetica,sans-Serif" font-size="10.00" fill="#000000">+fTracksOne</text>
<text text-anchor="middle" x="756" y="-79" font-family="Helvetica,sans-Serif" font-size="10.00" fill="#000000">+fTracksNoneUnsel</text>
</g>
<!-- Node3 -->
<g id="node3" class="node">
<title>Node3</title>
<polygon fill="none" stroke="#bfbfbf" points="483.5,-640 483.5,-697 622.5,-697 622.5,-640 483.5,-640"/>
<text text-anchor="middle" x="553" y="-685" font-family="Helvetica,sans-Serif" font-size="10.00" fill="#000000">OutputObjHandlingPolicy</text>
<polyline fill="none" stroke="#bfbfbf" points="483.5,-678 622.5,-678 "/>
<text text-anchor="middle" x="553" y="-666" font-family="Helvetica,sans-Serif" font-size="10.00" fill="#000000"> </text>
<polyline fill="none" stroke="#bfbfbf" points="483.5,-659 622.5,-659 "/>
<text text-anchor="middle" x="553" y="-647" font-family="Helvetica,sans-Serif" font-size="10.00" fill="#000000"> </text>
</g>
<!-- Node3&#45;&gt;Node2 -->
<g id="edge2" class="edge">
<title>Node3&#45;&gt;Node2</title>
<path fill="none" stroke="#404040" d="M558.1542,-639.8858C566.9099,-591.8341 585.541,-491.9415 604,-408 606.5267,-396.5101 609.2943,-384.4836 612.1111,-372.5737"/>
<polygon fill="none" stroke="#404040" points="612.1526,-372.3995 609.654,-365.6351 614.9371,-360.727 617.4357,-367.4914 612.1526,-372.3995"/>
<text text-anchor="middle" x="624.5" y="-484" font-family="Helvetica,sans-Serif" font-size="10.00" fill="#000000"> +policy</text>
</g>
<!-- Node11 -->
<g id="node11" class="node">
<title>Node11</title>
<g id="a_node11"><a xlink:href="../../d4/d79/structo2_1_1framework_1_1OutputObj.html" target="_top" xlink:title="{o2::framework::OutputObj\&lt; T \&gt;\n||+ OutputObj()\l+ OutputObj()\l+ setObject()\l+ setObject()\l+ setObject()\l+ setHash()\l+ spec()\l+ operator&#45;\&gt;()\l+ operator*()\l+ ref()\l}">
<polygon fill="none" stroke="#000000" points="256,-408.5 256,-564.5 428,-564.5 428,-408.5 256,-408.5"/>
<text text-anchor="middle" x="342" y="-552.5" font-family="Helvetica,sans-Serif" font-size="10.00" fill="#000000">o2::framework::OutputObj&lt; T &gt;</text>
<polyline fill="none" stroke="#000000" points="256,-545.5 428,-545.5 "/>
<text text-anchor="middle" x="342" y="-533.5" font-family="Helvetica,sans-Serif" font-size="10.00" fill="#000000"> </text>
<polyline fill="none" stroke="#000000" points="256,-526.5 428,-526.5 "/>
<text text-anchor="start" x="264" y="-514.5" font-family="Helvetica,sans-Serif" font-size="10.00" fill="#000000">+ OutputObj()</text>
<text text-anchor="start" x="264" y="-503.5" font-family="Helvetica,sans-Serif" font-size="10.00" fill="#000000">+ OutputObj()</text>
<text text-anchor="start" x="264" y="-492.5" font-family="Helvetica,sans-Serif" font-size="10.00" fill="#000000">+ setObject()</text>
<text text-anchor="start" x="264" y="-481.5" font-family="Helvetica,sans-Serif" font-size="10.00" fill="#000000">+ setObject()</text>
<text text-anchor="start" x="264" y="-470.5" font-family="Helvetica,sans-Serif" font-size="10.00" fill="#000000">+ setObject()</text>
<text text-anchor="start" x="264" y="-459.5" font-family="Helvetica,sans-Serif" font-size="10.00" fill="#000000">+ setHash()</text>
<text text-anchor="start" x="264" y="-448.5" font-family="Helvetica,sans-Serif" font-size="10.00" fill="#000000">+ spec()</text>
<text text-anchor="start" x="264" y="-437.5" font-family="Helvetica,sans-Serif" font-size="10.00" fill="#000000">+ operator&#45;&gt;()</text>
<text text-anchor="start" x="264" y="-426.5" font-family="Helvetica,sans-Serif" font-size="10.00" fill="#000000">+ operator*()</text>
<text text-anchor="start" x="264" y="-415.5" font-family="Helvetica,sans-Serif" font-size="10.00" fill="#000000">+ ref()</text>
</a>
</g>
</g>
<!-- Node3&#45;&gt;Node11 -->
<g id="edge12" class="edge">
<title>Node3&#45;&gt;Node11</title>
<path fill="none" stroke="#404040" d="M519.5664,-639.6616C497.2408,-620.4044 466.6675,-594.0331 437.1799,-568.5983"/>
<polygon fill="none" stroke="#404040" points="437.1605,-568.5816 430.0045,-567.6916 428.0738,-560.7437 435.2298,-561.6338 437.1605,-568.5816"/>
<text text-anchor="middle" x="487.5" y="-586" font-family="Helvetica,sans-Serif" font-size="10.00" fill="#000000"> +policy</text>
</g>
<!-- Node4 -->
<g id="node4" class="node">
<title>Node4</title>
<polygon fill="none" stroke="#bfbfbf" points="412.5,-789 412.5,-846 441.5,-846 441.5,-789 412.5,-789"/>
<text text-anchor="middle" x="427" y="-834" font-family="Helvetica,sans-Serif" font-size="10.00" fill="#000000">int</text>
<polyline fill="none" stroke="#bfbfbf" points="412.5,-827 441.5,-827 "/>
<text text-anchor="middle" x="427" y="-815" font-family="Helvetica,sans-Serif" font-size="10.00" fill="#000000"> </text>
<polyline fill="none" stroke="#bfbfbf" points="412.5,-808 441.5,-808 "/>
<text text-anchor="middle" x="427" y="-796" font-family="Helvetica,sans-Serif" font-size="10.00" fill="#000000"> </text>
</g>
<!-- Node4&#45;&gt;Node2 -->
<g id="edge3" class="edge">
<title>Node4&#45;&gt;Node2</title>
<path fill="none" stroke="#404040" d="M441.8939,-815.7581C503.9078,-808.2122 740.7735,-776.3917 792,-725 892.2516,-624.425 898.933,-533.2426 832,-408 807.8649,-362.8394 760.508,-330.532 718.391,-309.3009"/>
<polygon fill="none" stroke="#404040" points="718.3171,-309.2649 711.171,-310.2316 707.5302,-304.0071 714.6763,-303.0403 718.3171,-309.2649"/>
<text text-anchor="middle" x="891" y="-586" font-family="Helvetica,sans-Serif" font-size="10.00" fill="#000000"> +label</text>
</g>
<!-- Node6 -->
<g id="node6" class="node">
<title>Node6</title>
<g id="a_node6"><a xlink:href="../../da/d96/structo2_1_1framework_1_1InputSpec.html" target="_top" xlink:title="{o2::framework::InputSpec\n||+ InputSpec()\l+ InputSpec()\l+ InputSpec()\l+ InputSpec()\l+ InputSpec()\l+ operator==()\l}">
<polygon fill="none" stroke="#000000" points="133,-612.5 133,-724.5 275,-724.5 275,-612.5 133,-612.5"/>
<text text-anchor="middle" x="204" y="-712.5" font-family="Helvetica,sans-Serif" font-size="10.00" fill="#000000">o2::framework::InputSpec</text>
<polyline fill="none" stroke="#000000" points="133,-705.5 275,-705.5 "/>
<text text-anchor="middle" x="204" y="-693.5" font-family="Helvetica,sans-Serif" font-size="10.00" fill="#000000"> </text>
<polyline fill="none" stroke="#000000" points="133,-686.5 275,-686.5 "/>
<text text-anchor="start" x="141" y="-674.5" font-family="Helvetica,sans-Serif" font-size="10.00" fill="#000000">+ InputSpec()</text>
<text text-anchor="start" x="141" y="-663.5" font-family="Helvetica,sans-Serif" font-size="10.00" fill="#000000">+ InputSpec()</text>
<text text-anchor="start" x="141" y="-652.5" font-family="Helvetica,sans-Serif" font-size="10.00" fill="#000000">+ InputSpec()</text>
<text text-anchor="start" x="141" y="-641.5" font-family="Helvetica,sans-Serif" font-size="10.00" fill="#000000">+ InputSpec()</text>
<text text-anchor="start" x="141" y="-630.5" font-family="Helvetica,sans-Serif" font-size="10.00" fill="#000000">+ InputSpec()</text>
<text text-anchor="start" x="141" y="-619.5" font-family="Helvetica,sans-Serif" font-size="10.00" fill="#000000">+ operator==()</text>
</a>
</g>
</g>
<!-- Node4&#45;&gt;Node6 -->
<g id="edge8" class="edge">
<title>Node4&#45;&gt;Node6</title>
<path fill="none" stroke="#404040" d="M412.2549,-808.2407C387.7544,-792.7975 336.9514,-760.5303 285.3989,-725.8869"/>
<polygon fill="none" stroke="#404040" points="285.3778,-725.8726 278.1668,-725.8341 275.4289,-719.1629 282.6399,-719.2015 285.3778,-725.8726"/>
<text text-anchor="middle" x="351" y="-746" font-family="Helvetica,sans-Serif" font-size="10.00" fill="#000000"> +binding</text>
</g>
<!-- Node4&#45;&gt;Node11 -->
<g id="edge13" class="edge">
<title>Node4&#45;&gt;Node11</title>
<path fill="none" stroke="#404040" d="M425.1588,-788.8545C422.1195,-748.7809 414.749,-673.9411 399,-612 395.6032,-598.6401 393.4148,-595.6769 388,-583 387.0033,-580.6665 385.9818,-578.307 384.9411,-575.931"/>
<polygon fill="none" stroke="#404040" points="384.833,-575.6881 378.7379,-571.8345 379.9508,-564.7261 386.0459,-568.5797 384.833,-575.6881"/>
<text text-anchor="middle" x="437" y="-666" font-family="Helvetica,sans-Serif" font-size="10.00" fill="#000000"> +label</text>
</g>
<!-- Node5 -->
<g id="node5" class="node">
<title>Node5</title>
<polygon fill="none" stroke="#bfbfbf" points="745,-640 745,-697 783,-697 783,-640 745,-640"/>
<text text-anchor="middle" x="764" y="-685" font-family="Helvetica,sans-Serif" font-size="10.00" fill="#000000">bool</text>
<polyline fill="none" stroke="#bfbfbf" points="745,-678 783,-678 "/>
<text text-anchor="middle" x="764" y="-666" font-family="Helvetica,sans-Serif" font-size="10.00" fill="#000000"> </text>
<polyline fill="none" stroke="#bfbfbf" points="745,-659 783,-659 "/>
<text text-anchor="middle" x="764" y="-647" font-family="Helvetica,sans-Serif" font-size="10.00" fill="#000000"> </text>
</g>
<!-- Node5&#45;&gt;Node2 -->
<g id="edge4" class="edge">
<title>Node5&#45;&gt;Node2</title>
<path fill="none" stroke="#404040" d="M765.8289,-639.937C767.9316,-590.6858 767.682,-487.4286 736,-408 730.4376,-394.0549 722.9542,-380.3227 714.5709,-367.3021"/>
<polygon fill="none" stroke="#404040" points="714.3597,-366.9871 707.6952,-364.233 707.6743,-357.0219 714.3387,-359.776 714.3597,-366.9871"/>
<text text-anchor="middle" x="797" y="-484" font-family="Helvetica,sans-Serif" font-size="10.00" fill="#000000"> +isdangling</text>
</g>
<!-- Node5&#45;&gt;Node11 -->
<g id="edge15" class="edge">
<title>Node5&#45;&gt;Node11</title>
<path fill="none" stroke="#404040" d="M744.7598,-643.6165C726.4626,-622.3404 696.7732,-593.541 663,-583 570.4769,-554.1225 533.2469,-599.1626 439.5534,-565.4078"/>
<polygon fill="none" stroke="#404040" points="439.3505,-565.3298 432.314,-566.907 428.1518,-561.0183 435.1883,-559.4411 439.3505,-565.3298"/>
<text text-anchor="middle" x="717" y="-586" font-family="Helvetica,sans-Serif" font-size="10.00" fill="#000000"> +isdangling</text>
</g>
<!-- Node6&#45;&gt;Node2 -->
<g id="edge5" class="edge">
<title>Node6&#45;&gt;Node2</title>
<path fill="none" stroke="#404040" d="M188.7451,-612.4865C176.7076,-555.0944 168.4882,-466.2491 213,-408 254.3785,-353.8511 441.3198,-311.8737 552.3624,-291.1797"/>
<polygon fill="none" stroke="#404040" points="552.386,-291.1754 557.5626,-286.1552 564.1877,-289.0028 559.0111,-294.023 552.386,-291.1754"/>
<text text-anchor="middle" x="230" y="-484" font-family="Helvetica,sans-Serif" font-size="10.00" fill="#000000"> +spec</text>
</g>
<!-- Node6&#45;&gt;Node11 -->
<g id="edge16" class="edge">
<title>Node6&#45;&gt;Node11</title>
<path fill="none" stroke="#404040" d="M246.5306,-612.4089C255.6182,-600.4239 265.4278,-587.4865 275.1793,-574.6259"/>
<polygon fill="none" stroke="#404040" points="275.3617,-574.3853 275.7995,-567.1874 282.6121,-564.8232 282.1742,-572.021 275.3617,-574.3853"/>
<text text-anchor="middle" x="282" y="-586" font-family="Helvetica,sans-Serif" font-size="10.00" fill="#000000"> +spec</text>
</g>
<!-- Node7 -->
<g id="node7" class="node">
<title>Node7</title>
<polygon fill="none" stroke="#bfbfbf" points="182,-789 182,-846 270,-846 270,-789 182,-789"/>
<text text-anchor="middle" x="226" y="-834" font-family="Helvetica,sans-Serif" font-size="10.00" fill="#000000">enum Lifetime</text>
<polyline fill="none" stroke="#bfbfbf" points="182,-827 270,-827 "/>
<text text-anchor="middle" x="226" y="-815" font-family="Helvetica,sans-Serif" font-size="10.00" fill="#000000"> </text>
<polyline fill="none" stroke="#bfbfbf" points="182,-808 270,-808 "/>
<text text-anchor="middle" x="226" y="-796" font-family="Helvetica,sans-Serif" font-size="10.00" fill="#000000"> </text>
</g>
<!-- Node7&#45;&gt;Node6 -->
<g id="edge6" class="edge">
<title>Node7&#45;&gt;Node6</title>
<path fill="none" stroke="#404040" d="M221.7582,-788.7713C219.556,-773.8567 216.7639,-754.9461 214.0495,-736.5623"/>
<polygon fill="none" stroke="#404040" points="214.0368,-736.4762 209.2033,-731.1249 212.2839,-724.6049 217.1175,-729.9563 214.0368,-736.4762"/>
<text text-anchor="middle" x="242" y="-746" font-family="Helvetica,sans-Serif" font-size="10.00" fill="#000000"> +lifetime</text>
</g>
<!-- Node8 -->
<g id="node8" class="node">
<title>Node8</title>
<polygon fill="none" stroke="#bfbfbf" points="0,-772.5 0,-862.5 164,-862.5 164,-772.5 0,-772.5"/>
<text text-anchor="start" x="8" y="-850.5" font-family="Helvetica,sans-Serif" font-size="10.00" fill="#000000">variant&lt; o2::framework</text>
<text text-anchor="start" x="8" y="-839.5" font-family="Helvetica,sans-Serif" font-size="10.00" fill="#000000">::ConcreteDataMatcher,</text>
<text text-anchor="start" x="8" y="-828.5" font-family="Helvetica,sans-Serif" font-size="10.00" fill="#000000"> o2::framework::data_matcher</text>
<text text-anchor="middle" x="82" y="-817.5" font-family="Helvetica,sans-Serif" font-size="10.00" fill="#000000">::DataDescriptorMatcher &gt;</text>
<polyline fill="none" stroke="#bfbfbf" points="0,-810.5 164,-810.5 "/>
<text text-anchor="middle" x="82" y="-798.5" font-family="Helvetica,sans-Serif" font-size="10.00" fill="#000000"> </text>
<polyline fill="none" stroke="#bfbfbf" points="0,-791.5 164,-791.5 "/>
<text text-anchor="middle" x="82" y="-779.5" font-family="Helvetica,sans-Serif" font-size="10.00" fill="#000000"> </text>
</g>
<!-- Node8&#45;&gt;Node6 -->
<g id="edge7" class="edge">
<title>Node8&#45;&gt;Node6</title>
<path fill="none" stroke="#404040" d="M118.9351,-772.3907C128.8676,-760.2601 139.8138,-746.8913 150.4531,-733.8975"/>
<polygon fill="none" stroke="#404040" points="150.5246,-733.8101 151.2308,-726.6336 158.1269,-724.5254 157.4207,-731.7018 150.5246,-733.8101"/>
<text text-anchor="middle" x="169" y="-746" font-family="Helvetica,sans-Serif" font-size="10.00" fill="#000000"> +matcher</text>
</g>
<!-- Node9 -->
<g id="node9" class="node">
<title>Node9</title>
<polygon fill="none" stroke="#bfbfbf" points="643.5,-640 643.5,-697 704.5,-697 704.5,-640 643.5,-640"/>
<text text-anchor="middle" x="674" y="-685" font-family="Helvetica,sans-Serif" font-size="10.00" fill="#000000">unsigned</text>
<polyline fill="none" stroke="#bfbfbf" points="643.5,-678 704.5,-678 "/>
<text text-anchor="middle" x="674" y="-666" font-family="Helvetica,sans-Serif" font-size="10.00" fill="#000000"> </text>
<polyline fill="none" stroke="#bfbfbf" points="643.5,-659 704.5,-659 "/>
<text text-anchor="middle" x="674" y="-647" font-family="Helvetica,sans-Serif" font-size="10.00" fill="#000000"> </text>
</g>
<!-- Node9&#45;&gt;Node2 -->
<g id="edge9" class="edge">
<title>Node9&#45;&gt;Node2</title>
<path fill="none" stroke="#404040" d="M671.2058,-639.7121C665.8201,-584.2251 653.7849,-460.2313 645.2905,-372.7164"/>
<polygon fill="none" stroke="#404040" points="645.2758,-372.5646 640.7148,-366.9791 644.1164,-360.6207 648.6774,-366.2062 645.2758,-372.5646"/>
<text text-anchor="middle" x="698" y="-484" font-family="Helvetica,sans-Serif" font-size="10.00" fill="#000000"> +mTaskHash</text>
</g>
<!-- Node9&#45;&gt;Node11 -->
<g id="edge17" class="edge">
<title>Node9&#45;&gt;Node11</title>
<path fill="none" stroke="#404040" d="M657.8677,-639.8241C650.8335,-629.663 641.7257,-619.0217 631,-612 585.4551,-582.1835 564.9113,-595.7965 512,-583 482.0647,-575.7602 470.1365,-579.3601 439.3561,-565.616"/>
<polygon fill="none" stroke="#404040" points="438.966,-565.4294 431.8271,-566.4475 428.1416,-560.2493 435.2804,-559.2312 438.966,-565.4294"/>
<text text-anchor="middle" x="625" y="-586" font-family="Helvetica,sans-Serif" font-size="10.00" fill="#000000"> +mTaskHash</text>
</g>
<!-- Node10 -->
<g id="node10" class="node">
<title>Node10</title>
<polygon fill="none" stroke="#bfbfbf" points="446,-458 446,-515 562,-515 562,-458 446,-458"/>
<text text-anchor="middle" x="504" y="-503" font-family="Helvetica,sans-Serif" font-size="10.00" fill="#000000">shared_ptr&lt; TH1F &gt;</text>
<polyline fill="none" stroke="#bfbfbf" points="446,-496 562,-496 "/>
<text text-anchor="middle" x="504" y="-484" font-family="Helvetica,sans-Serif" font-size="10.00" fill="#000000"> </text>
<polyline fill="none" stroke="#bfbfbf" points="446,-477 562,-477 "/>
<text text-anchor="middle" x="504" y="-465" font-family="Helvetica,sans-Serif" font-size="10.00" fill="#000000"> </text>
</g>
<!-- Node10&#45;&gt;Node2 -->
<g id="edge10" class="edge">
<title>Node10&#45;&gt;Node2</title>
<path fill="none" stroke="#404040" d="M510.7583,-457.7252C516.8243,-435.2394 527.0869,-403.7556 542,-379 546.4424,-371.6256 551.4772,-364.3218 556.8523,-357.2125"/>
<polygon fill="none" stroke="#404040" points="556.9531,-357.0843 557.5166,-349.8952 564.3693,-347.6502 563.8059,-354.8393 556.9531,-357.0843"/>
<text text-anchor="middle" x="563" y="-382" font-family="Helvetica,sans-Serif" font-size="10.00" fill="#000000"> +object</text>
</g>
<!-- Node11&#45;&gt;Node2 -->
<g id="edge11" class="edge">
<title>Node11&#45;&gt;Node2</title>
<path fill="none" stroke="#ffa500" d="M436.1767,-408.6097C436.4514,-408.406 436.7258,-408.2027 437,-408 478.0748,-377.6307 525.8323,-346.0752 564.2653,-321.546"/>
<polygon fill="#ffa500" stroke="#ffa500" points="434.0389,-405.8381 428.1516,-414.6467 438.247,-411.432 434.0389,-405.8381"/>
<text text-anchor="middle" x="500.5" y="-382" font-family="Helvetica,sans-Serif" font-size="10.00" fill="#000000"> &lt; TH1F &gt;</text>
</g>
<!-- Node12 -->
<g id="node12" class="node">
<title>Node12</title>
<polygon fill="none" stroke="#bfbfbf" points="293.5,-640 293.5,-697 390.5,-697 390.5,-640 293.5,-640"/>
<text text-anchor="middle" x="342" y="-685" font-family="Helvetica,sans-Serif" font-size="10.00" fill="#000000">shared_ptr&lt; T &gt;</text>
<polyline fill="none" stroke="#bfbfbf" points="293.5,-678 390.5,-678 "/>
<text text-anchor="middle" x="342" y="-666" font-family="Helvetica,sans-Serif" font-size="10.00" fill="#000000"> </text>
<polyline fill="none" stroke="#bfbfbf" points="293.5,-659 390.5,-659 "/>
<text text-anchor="middle" x="342" y="-647" font-family="Helvetica,sans-Serif" font-size="10.00" fill="#000000"> </text>
</g>
<!-- Node12&#45;&gt;Node11 -->
<g id="edge14" class="edge">
<title>Node12&#45;&gt;Node11</title>
<path fill="none" stroke="#404040" d="M342,-639.6616C342,-622.4991 342,-599.686 342,-576.9212"/>
<polygon fill="none" stroke="#404040" points="342.0001,-576.6849 338,-570.6849 342,-564.6849 346,-570.6848 342.0001,-576.6849"/>
<text text-anchor="middle" x="363" y="-586" font-family="Helvetica,sans-Serif" font-size="10.00" fill="#000000"> +object</text>
</g>
<!-- Node13 -->
<g id="node13" class="node">
<title>Node13</title>
<g id="a_node13"><a xlink:href="../../d1/d9a/structo2_1_1framework_1_1expressions_1_1Filter.html" target="_top" xlink:title="A struct, containing the root of the expression tree. ">
<polygon fill="none" stroke="#000000" points="814,-237.5 814,-316.5 966,-316.5 966,-237.5 814,-237.5"/>
<text text-anchor="start" x="822" y="-304.5" font-family="Helvetica,sans-Serif" font-size="10.00" fill="#000000">o2::framework::expressions</text>
<text text-anchor="middle" x="890" y="-293.5" font-family="Helvetica,sans-Serif" font-size="10.00" fill="#000000">::Filter</text>
<polyline fill="none" stroke="#000000" points="814,-286.5 966,-286.5 "/>
<text text-anchor="middle" x="890" y="-274.5" font-family="Helvetica,sans-Serif" font-size="10.00" fill="#000000"> </text>
<polyline fill="none" stroke="#000000" points="814,-267.5 966,-267.5 "/>
<text text-anchor="start" x="822" y="-255.5" font-family="Helvetica,sans-Serif" font-size="10.00" fill="#000000">+ Filter()</text>
<text text-anchor="start" x="822" y="-244.5" font-family="Helvetica,sans-Serif" font-size="10.00" fill="#000000">+ Filter()</text>
</a>
</g>
</g>
<!-- Node13&#45;&gt;Node1 -->
<g id="edge18" class="edge">
<title>Node13&#45;&gt;Node1</title>
<path fill="none" stroke="#404040" d="M885.4776,-237.1796C878.5243,-192.8776 861.3515,-121.5552 820,-76 816.2876,-71.9103 812.1479,-68.1501 807.7208,-64.6967"/>
<polygon fill="none" stroke="#404040" points="807.4499,-64.5068 800.2408,-64.3374 797.6244,-57.6177 804.8336,-57.7871 807.4499,-64.5068"/>
<text text-anchor="middle" x="925" y="-128.5" font-family="Helvetica,sans-Serif" font-size="10.00" fill="#000000"> +onlyacceptedevents</text>
<text text-anchor="middle" x="925" y="-117.5" font-family="Helvetica,sans-Serif" font-size="10.00" fill="#000000">+onlyacceptedtracks</text>
</g>
<!-- Node14 -->
<g id="node14" class="node">
<title>Node14</title>
<polygon fill="none" stroke="#bfbfbf" points="900.5,-452.5 900.5,-520.5 1051.5,-520.5 1051.5,-452.5 900.5,-452.5"/>
<text text-anchor="start" x="908.5" y="-508.5" font-family="Helvetica,sans-Serif" font-size="10.00" fill="#000000">unique_ptr&lt; o2::framework</text>
<text text-anchor="middle" x="976" y="-497.5" font-family="Helvetica,sans-Serif" font-size="10.00" fill="#000000">::expressions::Node &gt;</text>
<polyline fill="none" stroke="#bfbfbf" points="900.5,-490.5 1051.5,-490.5 "/>
<text text-anchor="middle" x="976" y="-478.5" font-family="Helvetica,sans-Serif" font-size="10.00" fill="#000000"> </text>
<polyline fill="none" stroke="#bfbfbf" points="900.5,-471.5 1051.5,-471.5 "/>
<text text-anchor="middle" x="976" y="-459.5" font-family="Helvetica,sans-Serif" font-size="10.00" fill="#000000"> </text>
</g>
<!-- Node14&#45;&gt;Node13 -->
<g id="edge19" class="edge">
<title>Node14&#45;&gt;Node13</title>
<path fill="none" stroke="#404040" d="M961.9912,-452.3739C948.1884,-418.7496 926.9256,-366.9526 911.0818,-328.3563"/>
<polygon fill="none" stroke="#404040" points="910.9101,-327.9378 904.9312,-323.9063 906.353,-316.8367 912.3319,-320.8682 910.9101,-327.9378"/>
<text text-anchor="middle" x="953" y="-382" font-family="Helvetica,sans-Serif" font-size="10.00" fill="#000000"> +node</text>
</g>
</g>
</svg>
        <g id="navigator" transform="translate(0 0)" fill="#404254">
                <rect fill="#f2f5e9" fill-opacity="0.5" stroke="#606060" stroke-width=".5" x="0" y="0" width="60" height="60"/>
                <use id="zoomplus" xlink:href="#zoomPlus" x="17" y="9" onmousedown="handleZoom(evt,'in')"/>
                <use id="zoomminus" xlink:href="#zoomMin" x="42" y="9" onmousedown="handleZoom(evt,'out')"/>
                <use id="reset" xlink:href="#resetDef" x="30" y="36" onmousedown="handleReset()"/>
                <g id="arrowUp" xlink:href="#dirArrow" transform="translate(30 24)" onmousedown="handlePan(0,-1)">
                  <use xlink:href="#rim" fill="#404040">
                        <set attributeName="fill" to="#808080" begin="arrowUp.mouseover" end="arrowUp.mouseout"/>
                  </use>
                  <path fill="none" stroke="white" stroke-width="1.5" d="M0,-3.0v7 M-2.5,-0.5L0,-3.0L2.5,-0.5"/>
                </g>
                <g id="arrowRight" xlink:href="#dirArrow" transform="rotate(90) translate(36 -43)" onmousedown="handlePan(1,0)">
                  <use xlink:href="#rim" fill="#404040">
                        <set attributeName="fill" to="#808080" begin="arrowRight.mouseover" end="arrowRight.mouseout"/>
                  </use>
                  <path fill="none" stroke="white" stroke-width="1.5" d="M0,-3.0v7 M-2.5,-0.5L0,-3.0L2.5,-0.5"/>
                </g>
                <g id="arrowDown" xlink:href="#dirArrow" transform="rotate(180) translate(-30 -48)" onmousedown="handlePan(0,1)">
                  <use xlink:href="#rim" fill="#404040">
                        <set attributeName="fill" to="#808080" begin="arrowDown.mouseover" end="arrowDown.mouseout"/>
                  </use>
                  <path fill="none" stroke="white" stroke-width="1.5" d="M0,-3.0v7 M-2.5,-0.5L0,-3.0L2.5,-0.5"/>
                </g>
                <g id="arrowLeft" xlink:href="#dirArrow" transform="rotate(270) translate(-36 17)" onmousedown="handlePan(-1,0)">
                  <use xlink:href="#rim" fill="#404040">
                        <set attributeName="fill" to="#808080" begin="arrowLeft.mouseover" end="arrowLeft.mouseout"/>
                  </use>
                  <path fill="none" stroke="white" stroke-width="1.5" d="M0,-3.0v7 M-2.5,-0.5L0,-3.0L2.5,-0.5"/>
                </g>
        </g>
        <svg viewBox="0 0 15 15" width="100%" height="30px" preserveAspectRatio="xMaxYMin meet">
         <g id="arrow_out" transform="scale(0.3 0.3)">
          <a xlink:href="structTracksAndEventClassificationQA__coll__graph_org.svg" target="_base">
           <rect id="button" ry="5" rx="5" y="6" x="6" height="38" width="38"
                fill="#f2f5e9" fill-opacity="0.5" stroke="#606060" stroke-width="1.0"/>
           <path id="arrow"
             d="M 11.500037,31.436501 C 11.940474,20.09759 22.043105,11.32322 32.158766,21.979434 L 37.068811,17.246167 C 37.068811,17.246167 37.088388,32 37.088388,32 L 22.160133,31.978069 C 22.160133,31.978069 26.997745,27.140456 26.997745,27.140456 C 18.528582,18.264221 13.291696,25.230495 11.500037,31.436501 z"
             style="fill:#404040;"/>
          </a>
         </g>
        </svg>
</svg>
