<?xml version="1.0" encoding="UTF-8" standalone="no"?>
<!DOCTYPE svg PUBLIC "-//W3C//DTD SVG 1.1//EN"
 "http://www.w3.org/Graphics/SVG/1.1/DTD/svg11.dtd">
<!-- Generated by graphviz version 2.40.1 (20161225.0304)
 -->
<!-- Title: o2::framework::AnalysisDataProcessorBuilder::GroupSlicer&lt; G, A &gt; Pages: 1 -->
<svg width="1063pt" height="518pt"
 viewBox="0.00 0.00 1062.50 518.00" xmlns="http://www.w3.org/2000/svg" xmlns:xlink="http://www.w3.org/1999/xlink">
<g id="graph0" class="graph" transform="scale(1 1) rotate(0) translate(4 514)">
<title>o2::framework::AnalysisDataProcessorBuilder::GroupSlicer&lt; G, A &gt;</title>
<!-- Node1 -->
<g id="node1" class="node">
<title>Node1</title>
<polygon fill="#bfbfbf" stroke="#000000" points="379,-.5 379,-101.5 540,-101.5 540,-.5 379,-.5"/>
<text text-anchor="start" x="387" y="-89.5" font-family="Helvetica,sans-Serif" font-size="10.00" fill="#000000">o2::framework::AnalysisData</text>
<text text-anchor="start" x="387" y="-78.5" font-family="Helvetica,sans-Serif" font-size="10.00" fill="#000000">ProcessorBuilder::GroupSlicer</text>
<text text-anchor="middle" x="459.5" y="-67.5" font-family="Helvetica,sans-Serif" font-size="10.00" fill="#000000">&lt; G, A &gt;</text>
<polyline fill="none" stroke="#000000" points="379,-60.5 540,-60.5 "/>
<text text-anchor="middle" x="459.5" y="-48.5" font-family="Helvetica,sans-Serif" font-size="10.00" fill="#000000"> </text>
<polyline fill="none" stroke="#000000" points="379,-41.5 540,-41.5 "/>
<text text-anchor="start" x="387" y="-29.5" font-family="Helvetica,sans-Serif" font-size="10.00" fill="#000000">+ GroupSlicer()</text>
<text text-anchor="start" x="387" y="-18.5" font-family="Helvetica,sans-Serif" font-size="10.00" fill="#000000">+ begin()</text>
<text text-anchor="start" x="387" y="-7.5" font-family="Helvetica,sans-Serif" font-size="10.00" fill="#000000">+ end()</text>
</g>
<!-- Node2 -->
<g id="node2" class="node">
<title>Node2</title>
<polygon fill="none" stroke="#bfbfbf" points="406.5,-243 406.5,-300 456.5,-300 456.5,-243 406.5,-243"/>
<text text-anchor="middle" x="431.5" y="-288" font-family="Helvetica,sans-Serif" font-size="10.00" fill="#000000">int64_t</text>
<polyline fill="none" stroke="#bfbfbf" points="406.5,-281 456.5,-281 "/>
<text text-anchor="middle" x="431.5" y="-269" font-family="Helvetica,sans-Serif" font-size="10.00" fill="#000000"> </text>
<polyline fill="none" stroke="#bfbfbf" points="406.5,-262 456.5,-262 "/>
<text text-anchor="middle" x="431.5" y="-250" font-family="Helvetica,sans-Serif" font-size="10.00" fill="#000000"> </text>
</g>
<!-- Node2&#45;&gt;Node1 -->
<g id="edge1" class="edge">
<title>Node2&#45;&gt;Node1</title>
<path fill="none" stroke="#404040" d="M435.1605,-242.6735C439.289,-210.1614 446.1279,-156.3051 451.5069,-113.9454"/>
<polygon fill="none" stroke="#404040" points="451.5414,-113.6732 448.3292,-107.2171 453.0532,-101.7688 456.2654,-108.2249 451.5414,-113.6732"/>
<text text-anchor="middle" x="466.5" y="-123" font-family="Helvetica,sans-Serif" font-size="10.00" fill="#000000"> +max</text>
</g>
<!-- Node3 -->
<g id="node3" class="node">
<title>Node3</title>
<g id="a_node3"><a xlink:href="../../db/d21/structo2_1_1framework_1_1AnalysisDataProcessorBuilder_1_1GroupSlicer_1_1GroupSlicerIterator.html" target="_top" xlink:title="{o2::framework::AnalysisData\lProcessorBuilder::GroupSlicer\l\&lt; G, A \&gt;::GroupSlicerIterator\n||+ GroupSlicerIterator()\l+ GroupSlicerIterator()\l+ GroupSlicerIterator()\l+ operator=()\l+ operator=()\l+ getLabelFromType()\l+ GroupSlicerIterator()\l+ hasIndexTo()\l+ isIndexTo()\l+ operator++()\l+ operator==()\l+ operator!=()\l+ groupingElement()\l+ operator*()\l+ associatedTables()\l+ prepareArgument()\l}">
<polygon fill="none" stroke="#000000" points="475,-149.5 475,-393.5 636,-393.5 636,-149.5 475,-149.5"/>
<text text-anchor="start" x="483" y="-381.5" font-family="Helvetica,sans-Serif" font-size="10.00" fill="#000000">o2::framework::AnalysisData</text>
<text text-anchor="start" x="483" y="-370.5" font-family="Helvetica,sans-Serif" font-size="10.00" fill="#000000">ProcessorBuilder::GroupSlicer</text>
<text text-anchor="middle" x="555.5" y="-359.5" font-family="Helvetica,sans-Serif" font-size="10.00" fill="#000000">&lt; G, A &gt;::GroupSlicerIterator</text>
<polyline fill="none" stroke="#000000" points="475,-352.5 636,-352.5 "/>
<text text-anchor="middle" x="555.5" y="-340.5" font-family="Helvetica,sans-Serif" font-size="10.00" fill="#000000"> </text>
<polyline fill="none" stroke="#000000" points="475,-333.5 636,-333.5 "/>
<text text-anchor="start" x="483" y="-321.5" font-family="Helvetica,sans-Serif" font-size="10.00" fill="#000000">+ GroupSlicerIterator()</text>
<text text-anchor="start" x="483" y="-310.5" font-family="Helvetica,sans-Serif" font-size="10.00" fill="#000000">+ GroupSlicerIterator()</text>
<text text-anchor="start" x="483" y="-299.5" font-family="Helvetica,sans-Serif" font-size="10.00" fill="#000000">+ GroupSlicerIterator()</text>
<text text-anchor="start" x="483" y="-288.5" font-family="Helvetica,sans-Serif" font-size="10.00" fill="#000000">+ operator=()</text>
<text text-anchor="start" x="483" y="-277.5" font-family="Helvetica,sans-Serif" font-size="10.00" fill="#000000">+ operator=()</text>
<text text-anchor="start" x="483" y="-266.5" font-family="Helvetica,sans-Serif" font-size="10.00" fill="#000000">+ getLabelFromType()</text>
<text text-anchor="start" x="483" y="-255.5" font-family="Helvetica,sans-Serif" font-size="10.00" fill="#000000">+ GroupSlicerIterator()</text>
<text text-anchor="start" x="483" y="-244.5" font-family="Helvetica,sans-Serif" font-size="10.00" fill="#000000">+ hasIndexTo()</text>
<text text-anchor="start" x="483" y="-233.5" font-family="Helvetica,sans-Serif" font-size="10.00" fill="#000000">+ isIndexTo()</text>
<text text-anchor="start" x="483" y="-222.5" font-family="Helvetica,sans-Serif" font-size="10.00" fill="#000000">+ operator++()</text>
<text text-anchor="start" x="483" y="-211.5" font-family="Helvetica,sans-Serif" font-size="10.00" fill="#000000">+ operator==()</text>
<text text-anchor="start" x="483" y="-200.5" font-family="Helvetica,sans-Serif" font-size="10.00" fill="#000000">+ operator!=()</text>
<text text-anchor="start" x="483" y="-189.5" font-family="Helvetica,sans-Serif" font-size="10.00" fill="#000000">+ groupingElement()</text>
<text text-anchor="start" x="483" y="-178.5" font-family="Helvetica,sans-Serif" font-size="10.00" fill="#000000">+ operator*()</text>
<text text-anchor="start" x="483" y="-167.5" font-family="Helvetica,sans-Serif" font-size="10.00" fill="#000000">+ associatedTables()</text>
<text text-anchor="start" x="483" y="-156.5" font-family="Helvetica,sans-Serif" font-size="10.00" fill="#000000">+ prepareArgument()</text>
</a>
</g>
</g>
<!-- Node3&#45;&gt;Node1 -->
<g id="edge2" class="edge">
<title>Node3&#45;&gt;Node1</title>
<path fill="none" stroke="#404040" d="M502.3059,-149.3199C496.8227,-136.7255 491.4309,-124.3413 486.4213,-112.835"/>
<polygon fill="none" stroke="#404040" points="486.3402,-112.6485 480.2776,-108.744 481.55,-101.6461 487.6126,-105.5505 486.3402,-112.6485"/>
<text text-anchor="middle" x="517" y="-123" font-family="Helvetica,sans-Serif" font-size="10.00" fill="#000000"> +mBegin</text>
</g>
<!-- Node4 -->
<g id="node4" class="node">
<title>Node4</title>
<polygon fill="none" stroke="#bfbfbf" points="0,-447 0,-504 101,-504 101,-447 0,-447"/>
<text text-anchor="middle" x="50.5" y="-492" font-family="Helvetica,sans-Serif" font-size="10.00" fill="#000000">SelectionVector *</text>
<polyline fill="none" stroke="#bfbfbf" points="0,-485 101,-485 "/>
<text text-anchor="middle" x="50.5" y="-473" font-family="Helvetica,sans-Serif" font-size="10.00" fill="#000000"> </text>
<polyline fill="none" stroke="#bfbfbf" points="0,-466 101,-466 "/>
<text text-anchor="middle" x="50.5" y="-454" font-family="Helvetica,sans-Serif" font-size="10.00" fill="#000000"> </text>
</g>
<!-- Node4&#45;&gt;Node3 -->
<g id="edge3" class="edge">
<title>Node4&#45;&gt;Node3</title>
<path fill="none" stroke="#404040" d="M96.9892,-446.9666C101.4705,-444.7681 106.0172,-442.7338 110.5,-441 166.5217,-419.3326 183.0944,-420.8812 242.5,-412 288.5011,-405.1228 405.6088,-416.5582 463.7855,-393.4097"/>
<polygon fill="none" stroke="#404040" points="464.0891,-393.2655 467.7919,-387.0777 474.9279,-388.1156 471.2251,-394.3035 464.0891,-393.2655"/>
<text text-anchor="middle" x="285" y="-415" font-family="Helvetica,sans-Serif" font-size="10.00" fill="#000000"> +groupSelection</text>
</g>
<!-- Node5 -->
<g id="node5" class="node">
<title>Node5</title>
<polygon fill="none" stroke="#bfbfbf" points="119.5,-441.5 119.5,-509.5 271.5,-509.5 271.5,-441.5 119.5,-441.5"/>
<text text-anchor="start" x="127.5" y="-497.5" font-family="Helvetica,sans-Serif" font-size="10.00" fill="#000000">array&lt; soa::SelectionVector</text>
<text text-anchor="middle" x="195.5" y="-486.5" font-family="Helvetica,sans-Serif" font-size="10.00" fill="#000000"> const *, sizeof...(A)&gt;</text>
<polyline fill="none" stroke="#bfbfbf" points="119.5,-479.5 271.5,-479.5 "/>
<text text-anchor="middle" x="195.5" y="-467.5" font-family="Helvetica,sans-Serif" font-size="10.00" fill="#000000"> </text>
<polyline fill="none" stroke="#bfbfbf" points="119.5,-460.5 271.5,-460.5 "/>
<text text-anchor="middle" x="195.5" y="-448.5" font-family="Helvetica,sans-Serif" font-size="10.00" fill="#000000"> </text>
</g>
<!-- Node5&#45;&gt;Node3 -->
<g id="edge4" class="edge">
<title>Node5&#45;&gt;Node3</title>
<path fill="none" stroke="#404040" d="M271.866,-444.2365C274.7758,-443.1305 277.6613,-442.048 280.5,-441 318.7358,-426.8841 328.026,-422.1509 367.5,-412 407.0381,-401.8327 425.0651,-415.0863 464.4837,-393.6709"/>
<polygon fill="none" stroke="#404040" points="464.6687,-393.5613 467.7914,-387.0614 474.9924,-387.444 471.8696,-393.9439 464.6687,-393.5613"/>
<text text-anchor="middle" x="398" y="-415" font-family="Helvetica,sans-Serif" font-size="10.00" fill="#000000"> +selections</text>
</g>
<!-- Node6 -->
<g id="node6" class="node">
<title>Node6</title>
<polygon fill="none" stroke="#bfbfbf" points="289.5,-441.5 289.5,-509.5 445.5,-509.5 445.5,-441.5 289.5,-441.5"/>
<text text-anchor="start" x="297.5" y="-497.5" font-family="Helvetica,sans-Serif" font-size="10.00" fill="#000000">array&lt; soa::SelectionVector</text>
<text text-anchor="middle" x="367.5" y="-486.5" font-family="Helvetica,sans-Serif" font-size="10.00" fill="#000000">::const_iterator, sizeof...(A)&gt;</text>
<polyline fill="none" stroke="#bfbfbf" points="289.5,-479.5 445.5,-479.5 "/>
<text text-anchor="middle" x="367.5" y="-467.5" font-family="Helvetica,sans-Serif" font-size="10.00" fill="#000000"> </text>
<polyline fill="none" stroke="#bfbfbf" points="289.5,-460.5 445.5,-460.5 "/>
<text text-anchor="middle" x="367.5" y="-448.5" font-family="Helvetica,sans-Serif" font-size="10.00" fill="#000000"> </text>
</g>
<!-- Node6&#45;&gt;Node3 -->
<g id="edge5" class="edge">
<title>Node6&#45;&gt;Node3</title>
<path fill="none" stroke="#404040" d="M410.5143,-441.4373C432.2425,-423.8936 455.9808,-404.1093 465.5,-394 465.8958,-393.5797 466.2913,-393.1577 466.6867,-392.7339"/>
<polygon fill="none" stroke="#404040" points="466.8956,-392.5031 467.9561,-385.3704 474.9481,-383.6061 473.8875,-390.7388 466.8956,-392.5031"/>
<text text-anchor="middle" x="465.5" y="-415" font-family="Helvetica,sans-Serif" font-size="10.00" fill="#000000"> +starts</text>
</g>
<!-- Node7 -->
<g id="node7" class="node">
<title>Node7</title>
<polygon fill="none" stroke="#bfbfbf" points="464,-447 464,-504 517,-504 517,-447 464,-447"/>
<text text-anchor="middle" x="490.5" y="-492" font-family="Helvetica,sans-Serif" font-size="10.00" fill="#000000">iterator</text>
<polyline fill="none" stroke="#bfbfbf" points="464,-485 517,-485 "/>
<text text-anchor="middle" x="490.5" y="-473" font-family="Helvetica,sans-Serif" font-size="10.00" fill="#000000"> </text>
<polyline fill="none" stroke="#bfbfbf" points="464,-466 517,-466 "/>
<text text-anchor="middle" x="490.5" y="-454" font-family="Helvetica,sans-Serif" font-size="10.00" fill="#000000"> </text>
</g>
<!-- Node7&#45;&gt;Node3 -->
<g id="edge6" class="edge">
<title>Node7&#45;&gt;Node3</title>
<path fill="none" stroke="#404040" d="M489.0535,-446.747C489.1109,-435.7538 489.9239,-423.178 492.5,-412 493.029,-409.7044 493.5963,-407.4003 494.1986,-405.0911"/>
<polygon fill="none" stroke="#404040" points="494.2071,-405.0609 491.9988,-398.1962 497.4861,-393.5176 499.6944,-400.3822 494.2071,-405.0609"/>
<text text-anchor="middle" x="545.5" y="-415" font-family="Helvetica,sans-Serif" font-size="10.00" fill="#000000"> +mGroupingElement</text>
</g>
<!-- Node8 -->
<g id="node8" class="node">
<title>Node8</title>
<polygon fill="none" stroke="#bfbfbf" points="535,-441.5 535,-509.5 706,-509.5 706,-441.5 535,-441.5"/>
<text text-anchor="start" x="543" y="-497.5" font-family="Helvetica,sans-Serif" font-size="10.00" fill="#000000">array&lt; std::vector</text>
<text text-anchor="middle" x="620.5" y="-486.5" font-family="Helvetica,sans-Serif" font-size="10.00" fill="#000000">&lt; arrow::Datum &gt;, sizeof...(A)&gt;</text>
<polyline fill="none" stroke="#bfbfbf" points="535,-479.5 706,-479.5 "/>
<text text-anchor="middle" x="620.5" y="-467.5" font-family="Helvetica,sans-Serif" font-size="10.00" fill="#000000"> </text>
<polyline fill="none" stroke="#bfbfbf" points="535,-460.5 706,-460.5 "/>
<text text-anchor="middle" x="620.5" y="-448.5" font-family="Helvetica,sans-Serif" font-size="10.00" fill="#000000"> </text>
</g>
<!-- Node8&#45;&gt;Node3 -->
<g id="edge7" class="edge">
<title>Node8&#45;&gt;Node3</title>
<path fill="none" stroke="#404040" d="M609.6205,-441.355C606.2662,-430.8277 602.3496,-418.5355 598.1847,-405.4643"/>
<polygon fill="none" stroke="#404040" points="598.1118,-405.2354 592.479,-400.7329 594.4687,-393.8017 600.1015,-398.3042 598.1118,-405.2354"/>
<text text-anchor="middle" x="625" y="-415" font-family="Helvetica,sans-Serif" font-size="10.00" fill="#000000"> +groups</text>
</g>
<!-- Node9 -->
<g id="node9" class="node">
<title>Node9</title>
<polygon fill="none" stroke="#bfbfbf" points="724,-441.5 724,-509.5 869,-509.5 869,-441.5 724,-441.5"/>
<text text-anchor="start" x="732" y="-497.5" font-family="Helvetica,sans-Serif" font-size="10.00" fill="#000000">array&lt; std::vector</text>
<text text-anchor="middle" x="796.5" y="-486.5" font-family="Helvetica,sans-Serif" font-size="10.00" fill="#000000">&lt; uint64_t &gt;, sizeof...(A)&gt;</text>
<polyline fill="none" stroke="#bfbfbf" points="724,-479.5 869,-479.5 "/>
<text text-anchor="middle" x="796.5" y="-467.5" font-family="Helvetica,sans-Serif" font-size="10.00" fill="#000000"> </text>
<polyline fill="none" stroke="#bfbfbf" points="724,-460.5 869,-460.5 "/>
<text text-anchor="middle" x="796.5" y="-448.5" font-family="Helvetica,sans-Serif" font-size="10.00" fill="#000000"> </text>
</g>
<!-- Node9&#45;&gt;Node3 -->
<g id="edge8" class="edge">
<title>Node9&#45;&gt;Node3</title>
<path fill="none" stroke="#404040" d="M756.162,-441.355C726.0209,-415.8414 683.6335,-379.9616 645.5778,-347.7484"/>
<polygon fill="none" stroke="#404040" points="645.1652,-347.3992 638.0013,-346.5758 636.006,-339.6462 643.17,-340.4696 645.1652,-347.3992"/>
<text text-anchor="middle" x="754" y="-415" font-family="Helvetica,sans-Serif" font-size="10.00" fill="#000000"> +offsets</text>
</g>
<!-- Node10 -->
<g id="node10" class="node">
<title>Node10</title>
<polygon fill="none" stroke="#bfbfbf" points="887,-447 887,-504 948,-504 948,-447 887,-447"/>
<text text-anchor="middle" x="917.5" y="-492" font-family="Helvetica,sans-Serif" font-size="10.00" fill="#000000">unsigned</text>
<polyline fill="none" stroke="#bfbfbf" points="887,-485 948,-485 "/>
<text text-anchor="middle" x="917.5" y="-473" font-family="Helvetica,sans-Serif" font-size="10.00" fill="#000000"> </text>
<polyline fill="none" stroke="#bfbfbf" points="887,-466 948,-466 "/>
<text text-anchor="middle" x="917.5" y="-454" font-family="Helvetica,sans-Serif" font-size="10.00" fill="#000000"> </text>
</g>
<!-- Node10&#45;&gt;Node3 -->
<g id="edge9" class="edge">
<title>Node10&#45;&gt;Node3</title>
<path fill="none" stroke="#404040" d="M886.9747,-447.2976C884.1755,-445.0817 881.3278,-442.9503 878.5,-441 804.6717,-390.0831 713.6817,-343.6295 647.1101,-312.2826"/>
<polygon fill="none" stroke="#404040" points="647.0951,-312.2756 639.9653,-313.3556 636.2261,-307.1896 643.3559,-306.1097 647.0951,-312.2756"/>
<text text-anchor="middle" x="871" y="-415" font-family="Helvetica,sans-Serif" font-size="10.00" fill="#000000"> +position</text>
</g>
<!-- Node11 -->
<g id="node11" class="node">
<title>Node11</title>
<polygon fill="none" stroke="#bfbfbf" points="966.5,-447 966.5,-504 1054.5,-504 1054.5,-447 966.5,-447"/>
<text text-anchor="middle" x="1010.5" y="-492" font-family="Helvetica,sans-Serif" font-size="10.00" fill="#000000">tuple&lt; A... &gt; *</text>
<polyline fill="none" stroke="#bfbfbf" points="966.5,-485 1054.5,-485 "/>
<text text-anchor="middle" x="1010.5" y="-473" font-family="Helvetica,sans-Serif" font-size="10.00" fill="#000000"> </text>
<polyline fill="none" stroke="#bfbfbf" points="966.5,-466 1054.5,-466 "/>
<text text-anchor="middle" x="1010.5" y="-454" font-family="Helvetica,sans-Serif" font-size="10.00" fill="#000000"> </text>
</g>
<!-- Node11&#45;&gt;Node3 -->
<g id="edge10" class="edge">
<title>Node11&#45;&gt;Node3</title>
<path fill="none" stroke="#404040" d="M967.3486,-446.8765C964.041,-444.847 960.7323,-442.8672 957.5,-441 932.8879,-426.7823 926.3516,-423.8151 900.5,-412 815.9475,-373.3565 717.572,-333.8114 647.5564,-306.5614"/>
<polygon fill="none" stroke="#404040" points="647.3206,-306.4699 640.2797,-308.0273 636.134,-302.127 643.175,-300.5696 647.3206,-306.4699"/>
<text text-anchor="middle" x="939.5" y="-415" font-family="Helvetica,sans-Serif" font-size="10.00" fill="#000000"> +mAt</text>
</g>
</g>
</svg>
