<?xml version="1.0" encoding="UTF-8" standalone="no"?>
<!DOCTYPE svg PUBLIC "-//W3C//DTD SVG 1.1//EN"
 "http://www.w3.org/Graphics/SVG/1.1/DTD/svg11.dtd">
<!-- Generated by graphviz version 2.40.1 (20161225.0304)
 -->
<!-- Title: DzeroHistoTask Pages: 1 -->
<!--zoomable 838 -->
<svg id="main" version="1.1" xmlns="http://www.w3.org/2000/svg" xmlns:xlink="http://www.w3.org/1999/xlink" xml:space="preserve" onload="init(evt)">
<style type="text/css"><![CDATA[
.edge:hover path { stroke: red; }
.edge:hover polygon { stroke: red; fill: red; }
]]></style>
<script type="text/javascript"><![CDATA[
var edges = document.getElementsByTagName('g');
if (edges && edges.length) {
  for (var i=0;i<edges.length;i++) {
    if (edges[i].id.substr(0,4)=='edge') {
      edges[i].setAttribute('class','edge');
    }
  }
}
]]></script>
        <defs>
                <circle id="rim" cx="0" cy="0" r="7"/>
                <circle id="rim2" cx="0" cy="0" r="3.5"/>
                <g id="zoomPlus">
                        <use xlink:href="#rim" fill="#404040">
                                <set attributeName="fill" to="#808080" begin="zoomplus.mouseover" end="zoomplus.mouseout"/>
                        </use>
                        <path d="M-4,0h8M0,-4v8" fill="none" stroke="white" stroke-width="1.5" pointer-events="none"/>
                </g>
                <g id="zoomMin">
                        <use xlink:href="#rim" fill="#404040">
                                <set attributeName="fill" to="#808080" begin="zoomminus.mouseover" end="zoomminus.mouseout"/>
                        </use>
                        <path d="M-4,0h8" fill="none" stroke="white" stroke-width="1.5" pointer-events="none"/>
                </g>
                <g id="dirArrow">
                        <path fill="none" stroke="white" stroke-width="1.5" d="M0,-3.0v7 M-2.5,-0.5L0,-3.0L2.5,-0.5"/>
                </g>
               <g id="resetDef">
                       <use xlink:href="#rim2" fill="#404040">
                               <set attributeName="fill" to="#808080" begin="reset.mouseover" end="reset.mouseout"/>
                       </use>
               </g>
        </defs>

<script type="text/javascript">
var viewWidth = 773;
var viewHeight = 838;
var sectionId = 'dynsection-0';
</script>
<script xlink:href="../../svgpan.js"/>
<svg id="graph" class="graph">
<g id="viewport">
<title>DzeroHistoTask</title>
<!-- Node1 -->
<g id="node1" class="node">
<title>Node1</title>
<polygon fill="#bfbfbf" stroke="#000000" points="321.3466,-.5 321.3466,-57.5 413.3466,-57.5 413.3466,-.5 321.3466,-.5"/>
<text text-anchor="middle" x="367.3466" y="-45.5" font-family="Helvetica,sans-Serif" font-size="10.00" fill="#000000">DzeroHistoTask</text>
<polyline fill="none" stroke="#000000" points="321.3466,-38.5 413.3466,-38.5 "/>
<text text-anchor="middle" x="367.3466" y="-26.5" font-family="Helvetica,sans-Serif" font-size="10.00" fill="#000000"> </text>
<polyline fill="none" stroke="#000000" points="321.3466,-19.5 413.3466,-19.5 "/>
<text text-anchor="start" x="329.3466" y="-7.5" font-family="Helvetica,sans-Serif" font-size="10.00" fill="#000000">+ process()</text>
</g>
<!-- Node2 -->
<g id="node2" class="node">
<title>Node2</title>
<g id="a_node2"><a xlink:href="../../d4/d79/structo2_1_1framework_1_1OutputObj.html" target="_top" xlink:title="{o2::framework::OutputObj\l\&lt; TH1F \&gt;\n||+ spec()\l+ OutputObj()\l+ OutputObj()\l+ setObject()\l+ setObject()\l+ setObject()\l+ setHash()\l+ operator&#45;\&gt;()\l+ operator*()\l+ ref()\l}">
<polygon fill="none" stroke="#000000" points="295.8466,-160.5 295.8466,-327.5 438.8466,-327.5 438.8466,-160.5 295.8466,-160.5"/>
<text text-anchor="start" x="303.8466" y="-315.5" font-family="Helvetica,sans-Serif" font-size="10.00" fill="#000000">o2::framework::OutputObj</text>
<text text-anchor="middle" x="367.3466" y="-304.5" font-family="Helvetica,sans-Serif" font-size="10.00" fill="#000000">&lt; TH1F &gt;</text>
<polyline fill="none" stroke="#000000" points="295.8466,-297.5 438.8466,-297.5 "/>
<text text-anchor="middle" x="367.3466" y="-285.5" font-family="Helvetica,sans-Serif" font-size="10.00" fill="#000000"> </text>
<polyline fill="none" stroke="#000000" points="295.8466,-278.5 438.8466,-278.5 "/>
<text text-anchor="start" x="303.8466" y="-266.5" font-family="Helvetica,sans-Serif" font-size="10.00" fill="#000000">+ spec()</text>
<text text-anchor="start" x="303.8466" y="-255.5" font-family="Helvetica,sans-Serif" font-size="10.00" fill="#000000">+ OutputObj()</text>
<text text-anchor="start" x="303.8466" y="-244.5" font-family="Helvetica,sans-Serif" font-size="10.00" fill="#000000">+ OutputObj()</text>
<text text-anchor="start" x="303.8466" y="-233.5" font-family="Helvetica,sans-Serif" font-size="10.00" fill="#000000">+ setObject()</text>
<text text-anchor="start" x="303.8466" y="-222.5" font-family="Helvetica,sans-Serif" font-size="10.00" fill="#000000">+ setObject()</text>
<text text-anchor="start" x="303.8466" y="-211.5" font-family="Helvetica,sans-Serif" font-size="10.00" fill="#000000">+ setObject()</text>
<text text-anchor="start" x="303.8466" y="-200.5" font-family="Helvetica,sans-Serif" font-size="10.00" fill="#000000">+ setHash()</text>
<text text-anchor="start" x="303.8466" y="-189.5" font-family="Helvetica,sans-Serif" font-size="10.00" fill="#000000">+ operator&#45;&gt;()</text>
<text text-anchor="start" x="303.8466" y="-178.5" font-family="Helvetica,sans-Serif" font-size="10.00" fill="#000000">+ operator*()</text>
<text text-anchor="start" x="303.8466" y="-167.5" font-family="Helvetica,sans-Serif" font-size="10.00" fill="#000000">+ ref()</text>
</a>
</g>
</g>
<!-- Node2&#45;&gt;Node1 -->
<g id="edge1" class="edge">
<title>Node2&#45;&gt;Node1</title>
<path fill="none" stroke="#404040" d="M367.3466,-160.2598C367.3466,-129.1931 367.3466,-95.3396 367.3466,-69.7951"/>
<polygon fill="none" stroke="#404040" points="367.3467,-69.6128 363.3466,-63.6129 367.3466,-57.6128 371.3466,-63.6128 367.3467,-69.6128"/>
<text text-anchor="middle" x="417.3466" y="-134" font-family="Helvetica,sans-Serif" font-size="10.00" fill="#000000"> +hdecayxy</text>
<text text-anchor="middle" x="417.3466" y="-123" font-family="Helvetica,sans-Serif" font-size="10.00" fill="#000000">+hmass_nocuts_out</text>
<text text-anchor="middle" x="417.3466" y="-112" font-family="Helvetica,sans-Serif" font-size="10.00" fill="#000000">+hvtx_y_outt</text>
<text text-anchor="middle" x="417.3466" y="-101" font-family="Helvetica,sans-Serif" font-size="10.00" fill="#000000">+hvtx_z_outt</text>
<text text-anchor="middle" x="417.3466" y="-90" font-family="Helvetica,sans-Serif" font-size="10.00" fill="#000000">+hdecayxyz</text>
<text text-anchor="middle" x="417.3466" y="-79" font-family="Helvetica,sans-Serif" font-size="10.00" fill="#000000">+hvtx_x_outt</text>
</g>
<!-- Node3 -->
<g id="node3" class="node">
<title>Node3</title>
<polygon fill="none" stroke="#bfbfbf" points="119.8466,-607 119.8466,-664 258.8466,-664 258.8466,-607 119.8466,-607"/>
<text text-anchor="middle" x="189.3466" y="-652" font-family="Helvetica,sans-Serif" font-size="10.00" fill="#000000">OutputObjHandlingPolicy</text>
<polyline fill="none" stroke="#bfbfbf" points="119.8466,-645 258.8466,-645 "/>
<text text-anchor="middle" x="189.3466" y="-633" font-family="Helvetica,sans-Serif" font-size="10.00" fill="#000000"> </text>
<polyline fill="none" stroke="#bfbfbf" points="119.8466,-626 258.8466,-626 "/>
<text text-anchor="middle" x="189.3466" y="-614" font-family="Helvetica,sans-Serif" font-size="10.00" fill="#000000"> </text>
</g>
<!-- Node3&#45;&gt;Node2 -->
<g id="edge2" class="edge">
<title>Node3&#45;&gt;Node2</title>
<path fill="none" stroke="#404040" d="M197.0925,-606.6453C200.5836,-592.8978 204.5423,-576.1783 207.3466,-561 222.49,-479.0352 193.8786,-449.456 231.3466,-375 244.5634,-348.7357 265.2119,-324.7955 286.4627,-304.7746"/>
<polygon fill="none" stroke="#404040" points="286.7276,-304.5326 288.4595,-297.5326 295.5872,-296.4388 293.8553,-303.4389 286.7276,-304.5326"/>
<text text-anchor="middle" x="251.8466" y="-451" font-family="Helvetica,sans-Serif" font-size="10.00" fill="#000000"> +policy</text>
</g>
<!-- Node11 -->
<g id="node11" class="node">
<title>Node11</title>
<g id="a_node11"><a xlink:href="../../d4/d79/structo2_1_1framework_1_1OutputObj.html" target="_top" xlink:title="{o2::framework::OutputObj\&lt; T \&gt;\n||+ OutputObj()\l+ OutputObj()\l+ setObject()\l+ setObject()\l+ setObject()\l+ setHash()\l+ spec()\l+ operator&#45;\&gt;()\l+ operator*()\l+ ref()\l}">
<polygon fill="none" stroke="#000000" points="281.3466,-375.5 281.3466,-531.5 453.3466,-531.5 453.3466,-375.5 281.3466,-375.5"/>
<text text-anchor="middle" x="367.3466" y="-519.5" font-family="Helvetica,sans-Serif" font-size="10.00" fill="#000000">o2::framework::OutputObj&lt; T &gt;</text>
<polyline fill="none" stroke="#000000" points="281.3466,-512.5 453.3466,-512.5 "/>
<text text-anchor="middle" x="367.3466" y="-500.5" font-family="Helvetica,sans-Serif" font-size="10.00" fill="#000000"> </text>
<polyline fill="none" stroke="#000000" points="281.3466,-493.5 453.3466,-493.5 "/>
<text text-anchor="start" x="289.3466" y="-481.5" font-family="Helvetica,sans-Serif" font-size="10.00" fill="#000000">+ OutputObj()</text>
<text text-anchor="start" x="289.3466" y="-470.5" font-family="Helvetica,sans-Serif" font-size="10.00" fill="#000000">+ OutputObj()</text>
<text text-anchor="start" x="289.3466" y="-459.5" font-family="Helvetica,sans-Serif" font-size="10.00" fill="#000000">+ setObject()</text>
<text text-anchor="start" x="289.3466" y="-448.5" font-family="Helvetica,sans-Serif" font-size="10.00" fill="#000000">+ setObject()</text>
<text text-anchor="start" x="289.3466" y="-437.5" font-family="Helvetica,sans-Serif" font-size="10.00" fill="#000000">+ setObject()</text>
<text text-anchor="start" x="289.3466" y="-426.5" font-family="Helvetica,sans-Serif" font-size="10.00" fill="#000000">+ setHash()</text>
<text text-anchor="start" x="289.3466" y="-415.5" font-family="Helvetica,sans-Serif" font-size="10.00" fill="#000000">+ spec()</text>
<text text-anchor="start" x="289.3466" y="-404.5" font-family="Helvetica,sans-Serif" font-size="10.00" fill="#000000">+ operator&#45;&gt;()</text>
<text text-anchor="start" x="289.3466" y="-393.5" font-family="Helvetica,sans-Serif" font-size="10.00" fill="#000000">+ operator*()</text>
<text text-anchor="start" x="289.3466" y="-382.5" font-family="Helvetica,sans-Serif" font-size="10.00" fill="#000000">+ ref()</text>
</a>
</g>
</g>
<!-- Node3&#45;&gt;Node11 -->
<g id="edge12" class="edge">
<title>Node3&#45;&gt;Node11</title>
<path fill="none" stroke="#404040" d="M217.5512,-606.6616C235.1874,-588.6291 258.9244,-564.3586 282.2974,-540.4604"/>
<polygon fill="none" stroke="#404040" points="282.4895,-540.2639 283.8251,-533.1776 290.88,-531.6849 289.5445,-538.7712 282.4895,-540.2639"/>
<text text-anchor="middle" x="288.8466" y="-553" font-family="Helvetica,sans-Serif" font-size="10.00" fill="#000000"> +policy</text>
</g>
<!-- Node4 -->
<g id="node4" class="node">
<title>Node4</title>
<polygon fill="none" stroke="#bfbfbf" points="395.8466,-756 395.8466,-813 424.8466,-813 424.8466,-756 395.8466,-756"/>
<text text-anchor="middle" x="410.3466" y="-801" font-family="Helvetica,sans-Serif" font-size="10.00" fill="#000000">int</text>
<polyline fill="none" stroke="#bfbfbf" points="395.8466,-794 424.8466,-794 "/>
<text text-anchor="middle" x="410.3466" y="-782" font-family="Helvetica,sans-Serif" font-size="10.00" fill="#000000"> </text>
<polyline fill="none" stroke="#bfbfbf" points="395.8466,-775 424.8466,-775 "/>
<text text-anchor="middle" x="410.3466" y="-763" font-family="Helvetica,sans-Serif" font-size="10.00" fill="#000000"> </text>
</g>
<!-- Node4&#45;&gt;Node2 -->
<g id="edge3" class="edge">
<title>Node4&#45;&gt;Node2</title>
<path fill="none" stroke="#404040" d="M395.571,-782.9252C334.086,-776.0513 99.6072,-746.5505 54.3466,-692 -36.0447,-583.0554 -3.7006,-485.0459 85.3466,-375 135.1362,-313.4692 220.3998,-279.4483 284.1689,-261.6095"/>
<polygon fill="none" stroke="#404040" points="284.2277,-261.5937 288.9768,-256.1673 295.8124,-258.4639 291.0633,-263.8904 284.2277,-261.5937"/>
<text text-anchor="middle" x="19.3466" y="-553" font-family="Helvetica,sans-Serif" font-size="10.00" fill="#000000"> +label</text>
</g>
<!-- Node6 -->
<g id="node6" class="node">
<title>Node6</title>
<g id="a_node6"><a xlink:href="../../da/d96/structo2_1_1framework_1_1InputSpec.html" target="_top" xlink:title="{o2::framework::InputSpec\n||+ InputSpec()\l+ InputSpec()\l+ InputSpec()\l+ InputSpec()\l+ InputSpec()\l+ operator==()\l}">
<polygon fill="none" stroke="#000000" points="464.3466,-579.5 464.3466,-691.5 606.3466,-691.5 606.3466,-579.5 464.3466,-579.5"/>
<text text-anchor="middle" x="535.3466" y="-679.5" font-family="Helvetica,sans-Serif" font-size="10.00" fill="#000000">o2::framework::InputSpec</text>
<polyline fill="none" stroke="#000000" points="464.3466,-672.5 606.3466,-672.5 "/>
<text text-anchor="middle" x="535.3466" y="-660.5" font-family="Helvetica,sans-Serif" font-size="10.00" fill="#000000"> </text>
<polyline fill="none" stroke="#000000" points="464.3466,-653.5 606.3466,-653.5 "/>
<text text-anchor="start" x="472.3466" y="-641.5" font-family="Helvetica,sans-Serif" font-size="10.00" fill="#000000">+ InputSpec()</text>
<text text-anchor="start" x="472.3466" y="-630.5" font-family="Helvetica,sans-Serif" font-size="10.00" fill="#000000">+ InputSpec()</text>
<text text-anchor="start" x="472.3466" y="-619.5" font-family="Helvetica,sans-Serif" font-size="10.00" fill="#000000">+ InputSpec()</text>
<text text-anchor="start" x="472.3466" y="-608.5" font-family="Helvetica,sans-Serif" font-size="10.00" fill="#000000">+ InputSpec()</text>
<text text-anchor="start" x="472.3466" y="-597.5" font-family="Helvetica,sans-Serif" font-size="10.00" fill="#000000">+ InputSpec()</text>
<text text-anchor="start" x="472.3466" y="-586.5" font-family="Helvetica,sans-Serif" font-size="10.00" fill="#000000">+ operator==()</text>
</a>
</g>
</g>
<!-- Node4&#45;&gt;Node6 -->
<g id="edge8" class="edge">
<title>Node4&#45;&gt;Node6</title>
<path fill="none" stroke="#404040" d="M424.9123,-759.8621C429.3066,-752.9393 434.3079,-745.5241 439.3466,-739 449.2916,-726.1231 460.5346,-712.9645 471.7335,-700.5363"/>
<polygon fill="none" stroke="#404040" points="471.772,-700.4941 472.8619,-693.3658 479.8611,-691.6302 478.7712,-698.7585 471.772,-700.4941"/>
<text text-anchor="middle" x="485.3466" y="-713" font-family="Helvetica,sans-Serif" font-size="10.00" fill="#000000"> +binding</text>
</g>
<!-- Node4&#45;&gt;Node11 -->
<g id="edge13" class="edge">
<title>Node4&#45;&gt;Node11</title>
<path fill="none" stroke="#404040" d="M409.2767,-755.8154C407.3128,-711.451 402.1921,-623.6219 390.3466,-550 389.9975,-547.8307 389.6262,-545.6379 389.2355,-543.4294"/>
<polygon fill="none" stroke="#404040" points="389.2118,-543.3033 384.166,-538.1516 386.9807,-531.5125 392.0265,-536.6643 389.2118,-543.3033"/>
<text text-anchor="middle" x="424.3466" y="-633" font-family="Helvetica,sans-Serif" font-size="10.00" fill="#000000"> +label</text>
</g>
<!-- Node5 -->
<g id="node5" class="node">
<title>Node5</title>
<polygon fill="none" stroke="#bfbfbf" points="63.3466,-607 63.3466,-664 101.3466,-664 101.3466,-607 63.3466,-607"/>
<text text-anchor="middle" x="82.3466" y="-652" font-family="Helvetica,sans-Serif" font-size="10.00" fill="#000000">bool</text>
<polyline fill="none" stroke="#bfbfbf" points="63.3466,-645 101.3466,-645 "/>
<text text-anchor="middle" x="82.3466" y="-633" font-family="Helvetica,sans-Serif" font-size="10.00" fill="#000000"> </text>
<polyline fill="none" stroke="#bfbfbf" points="63.3466,-626 101.3466,-626 "/>
<text text-anchor="middle" x="82.3466" y="-614" font-family="Helvetica,sans-Serif" font-size="10.00" fill="#000000"> </text>
</g>
<!-- Node5&#45;&gt;Node2 -->
<g id="edge4" class="edge">
<title>Node5&#45;&gt;Node2</title>
<path fill="none" stroke="#404040" d="M82.2577,-606.6497C83.5126,-555.1256 92.729,-446.0423 145.3466,-375 180.0534,-328.1402 236.9445,-295.0441 284.4444,-273.8407"/>
<polygon fill="none" stroke="#404040" points="284.6627,-273.746 288.5748,-267.6883 295.6711,-268.9695 291.7591,-275.0272 284.6627,-273.746"/>
<text text-anchor="middle" x="176.3466" y="-451" font-family="Helvetica,sans-Serif" font-size="10.00" fill="#000000"> +isdangling</text>
</g>
<!-- Node5&#45;&gt;Node11 -->
<g id="edge15" class="edge">
<title>Node5&#45;&gt;Node11</title>
<path fill="none" stroke="#404040" d="M91.4095,-606.72C95.7679,-596.7899 101.9238,-586.3312 110.3466,-579 164.9661,-531.4588 201.3958,-564.0134 266.3466,-532 267.7472,-531.3097 269.1471,-530.598 270.5452,-529.8668"/>
<polygon fill="none" stroke="#404040" points="270.7376,-529.7592 274.0235,-523.3403 281.2125,-523.9046 277.9266,-530.3236 270.7376,-529.7592"/>
<text text-anchor="middle" x="210.3466" y="-553" font-family="Helvetica,sans-Serif" font-size="10.00" fill="#000000"> +isdangling</text>
</g>
<!-- Node6&#45;&gt;Node2 -->
<g id="edge5" class="edge">
<title>Node6&#45;&gt;Node2</title>
<path fill="none" stroke="#404040" d="M513.9661,-579.4932C508.5049,-564.2091 502.8971,-547.5687 498.3466,-532 478.2624,-463.2864 491.9565,-440.1781 462.3466,-375 456.6274,-362.4107 449.5957,-349.82 441.9677,-337.6937"/>
<polygon fill="none" stroke="#404040" points="441.9676,-337.6936 435.3461,-334.8377 435.4356,-327.6271 442.0571,-330.483 441.9676,-337.6936"/>
<text text-anchor="middle" x="515.3466" y="-451" font-family="Helvetica,sans-Serif" font-size="10.00" fill="#000000"> +spec</text>
</g>
<!-- Node6&#45;&gt;Node11 -->
<g id="edge16" class="edge">
<title>Node6&#45;&gt;Node11</title>
<path fill="none" stroke="#404040" d="M463.8846,-581.8066C456.3296,-575.1028 448.9905,-568.0992 442.3466,-561 436.5203,-554.7745 430.7929,-548.0685 425.2602,-541.156"/>
<polygon fill="none" stroke="#404040" points="425.2151,-541.098 418.3734,-538.8194 417.8453,-531.6276 424.687,-533.9062 425.2151,-541.098"/>
<text text-anchor="middle" x="459.3466" y="-553" font-family="Helvetica,sans-Serif" font-size="10.00" fill="#000000"> +spec</text>
</g>
<!-- Node7 -->
<g id="node7" class="node">
<title>Node7</title>
<polygon fill="none" stroke="#bfbfbf" points="630.3466,-756 630.3466,-813 718.3466,-813 718.3466,-756 630.3466,-756"/>
<text text-anchor="middle" x="674.3466" y="-801" font-family="Helvetica,sans-Serif" font-size="10.00" fill="#000000">enum Lifetime</text>
<polyline fill="none" stroke="#bfbfbf" points="630.3466,-794 718.3466,-794 "/>
<text text-anchor="middle" x="674.3466" y="-782" font-family="Helvetica,sans-Serif" font-size="10.00" fill="#000000"> </text>
<polyline fill="none" stroke="#bfbfbf" points="630.3466,-775 718.3466,-775 "/>
<text text-anchor="middle" x="674.3466" y="-763" font-family="Helvetica,sans-Serif" font-size="10.00" fill="#000000"> </text>
</g>
<!-- Node7&#45;&gt;Node6 -->
<g id="edge6" class="edge">
<title>Node7&#45;&gt;Node6</title>
<path fill="none" stroke="#404040" d="M647.546,-755.7713C632.8373,-740.0044 613.9626,-719.7719 595.9066,-700.4168"/>
<polygon fill="none" stroke="#404040" points="595.8718,-700.3796 588.8541,-698.7208 587.6861,-691.6049 594.7038,-693.2637 595.8718,-700.3796"/>
<text text-anchor="middle" x="637.3466" y="-713" font-family="Helvetica,sans-Serif" font-size="10.00" fill="#000000"> +lifetime</text>
</g>
<!-- Node8 -->
<g id="node8" class="node">
<title>Node8</title>
<polygon fill="none" stroke="#bfbfbf" points="448.3466,-739.5 448.3466,-829.5 612.3466,-829.5 612.3466,-739.5 448.3466,-739.5"/>
<text text-anchor="start" x="456.3466" y="-817.5" font-family="Helvetica,sans-Serif" font-size="10.00" fill="#000000">variant&lt; o2::framework</text>
<text text-anchor="start" x="456.3466" y="-806.5" font-family="Helvetica,sans-Serif" font-size="10.00" fill="#000000">::ConcreteDataMatcher,</text>
<text text-anchor="start" x="456.3466" y="-795.5" font-family="Helvetica,sans-Serif" font-size="10.00" fill="#000000"> o2::framework::data_matcher</text>
<text text-anchor="middle" x="530.3466" y="-784.5" font-family="Helvetica,sans-Serif" font-size="10.00" fill="#000000">::DataDescriptorMatcher &gt;</text>
<polyline fill="none" stroke="#bfbfbf" points="448.3466,-777.5 612.3466,-777.5 "/>
<text text-anchor="middle" x="530.3466" y="-765.5" font-family="Helvetica,sans-Serif" font-size="10.00" fill="#000000"> </text>
<polyline fill="none" stroke="#bfbfbf" points="448.3466,-758.5 612.3466,-758.5 "/>
<text text-anchor="middle" x="530.3466" y="-746.5" font-family="Helvetica,sans-Serif" font-size="10.00" fill="#000000"> </text>
</g>
<!-- Node8&#45;&gt;Node6 -->
<g id="edge7" class="edge">
<title>Node8&#45;&gt;Node6</title>
<path fill="none" stroke="#404040" d="M531.8603,-739.3907C532.2397,-728.0845 532.6552,-715.7027 533.063,-703.5514"/>
<polygon fill="none" stroke="#404040" points="533.064,-703.5186 529.2675,-697.3878 533.4665,-691.5254 537.263,-697.6562 533.064,-703.5186"/>
<text text-anchor="middle" x="558.3466" y="-713" font-family="Helvetica,sans-Serif" font-size="10.00" fill="#000000"> +matcher</text>
</g>
<!-- Node9 -->
<g id="node9" class="node">
<title>Node9</title>
<polygon fill="none" stroke="#bfbfbf" points="643.8466,-607 643.8466,-664 704.8466,-664 704.8466,-607 643.8466,-607"/>
<text text-anchor="middle" x="674.3466" y="-652" font-family="Helvetica,sans-Serif" font-size="10.00" fill="#000000">unsigned</text>
<polyline fill="none" stroke="#bfbfbf" points="643.8466,-645 704.8466,-645 "/>
<text text-anchor="middle" x="674.3466" y="-633" font-family="Helvetica,sans-Serif" font-size="10.00" fill="#000000"> </text>
<polyline fill="none" stroke="#bfbfbf" points="643.8466,-626 704.8466,-626 "/>
<text text-anchor="middle" x="674.3466" y="-614" font-family="Helvetica,sans-Serif" font-size="10.00" fill="#000000"> </text>
</g>
<!-- Node9&#45;&gt;Node2 -->
<g id="edge9" class="edge">
<title>Node9&#45;&gt;Node2</title>
<path fill="none" stroke="#404040" d="M682.6238,-606.6871C695.5731,-555.2224 714.4819,-446.23 666.3466,-375 617.9768,-303.423 521.2006,-270.6398 450.813,-255.8291"/>
<polygon fill="none" stroke="#404040" points="450.6421,-255.7949 443.9726,-258.5369 438.8764,-253.4351 445.5458,-250.6931 450.6421,-255.7949"/>
<text text-anchor="middle" x="731.3466" y="-451" font-family="Helvetica,sans-Serif" font-size="10.00" fill="#000000"> +mTaskHash</text>
</g>
<!-- Node9&#45;&gt;Node11 -->
<g id="edge17" class="edge">
<title>Node9&#45;&gt;Node11</title>
<path fill="none" stroke="#404040" d="M649.4871,-606.7763C639.6798,-596.8523 627.7865,-586.3831 615.3466,-579 555.9972,-543.7762 528.3537,-564.2676 467.3466,-532 466.3436,-531.4695 465.3406,-530.9287 464.338,-530.3781"/>
<polygon fill="none" stroke="#404040" points="463.9956,-530.1786 456.7976,-530.6133 453.6279,-524.1362 460.8259,-523.7015 463.9956,-530.1786"/>
<text text-anchor="middle" x="607.3466" y="-553" font-family="Helvetica,sans-Serif" font-size="10.00" fill="#000000"> +mTaskHash</text>
</g>
<!-- Node10 -->
<g id="node10" class="node">
<title>Node10</title>
<polygon fill="none" stroke="#bfbfbf" points="541.3466,-425 541.3466,-482 657.3466,-482 657.3466,-425 541.3466,-425"/>
<text text-anchor="middle" x="599.3466" y="-470" font-family="Helvetica,sans-Serif" font-size="10.00" fill="#000000">shared_ptr&lt; TH1F &gt;</text>
<polyline fill="none" stroke="#bfbfbf" points="541.3466,-463 657.3466,-463 "/>
<text text-anchor="middle" x="599.3466" y="-451" font-family="Helvetica,sans-Serif" font-size="10.00" fill="#000000"> </text>
<polyline fill="none" stroke="#bfbfbf" points="541.3466,-444 657.3466,-444 "/>
<text text-anchor="middle" x="599.3466" y="-432" font-family="Helvetica,sans-Serif" font-size="10.00" fill="#000000"> </text>
</g>
<!-- Node10&#45;&gt;Node2 -->
<g id="edge10" class="edge">
<title>Node10&#45;&gt;Node2</title>
<path fill="none" stroke="#404040" d="M576.311,-424.6972C557.6984,-402.196 530.2582,-370.7051 503.3466,-346 486.4058,-330.4483 467.1786,-314.9142 448.626,-300.8278"/>
<polygon fill="none" stroke="#404040" points="448.5974,-300.8063 441.3976,-300.4023 439.0014,-293.601 446.2012,-294.005 448.5974,-300.8063"/>
<text text-anchor="middle" x="535.3466" y="-349" font-family="Helvetica,sans-Serif" font-size="10.00" fill="#000000"> +object</text>
</g>
<!-- Node11&#45;&gt;Node2 -->
<g id="edge11" class="edge">
<title>Node11&#45;&gt;Node2</title>
<path fill="none" stroke="#ffa500" d="M367.3466,-365.1539C367.3466,-352.7421 367.3466,-340.0152 367.3466,-327.6937"/>
<polygon fill="#ffa500" stroke="#ffa500" points="363.8467,-365.4899 367.3466,-375.4899 370.8467,-365.49 363.8467,-365.4899"/>
<text text-anchor="middle" x="392.8466" y="-349" font-family="Helvetica,sans-Serif" font-size="10.00" fill="#000000"> &lt; TH1F &gt;</text>
</g>
<!-- Node12 -->
<g id="node12" class="node">
<title>Node12</title>
<polygon fill="none" stroke="#bfbfbf" points="276.8466,-607 276.8466,-664 373.8466,-664 373.8466,-607 276.8466,-607"/>
<text text-anchor="middle" x="325.3466" y="-652" font-family="Helvetica,sans-Serif" font-size="10.00" fill="#000000">shared_ptr&lt; T &gt;</text>
<polyline fill="none" stroke="#bfbfbf" points="276.8466,-645 373.8466,-645 "/>
<text text-anchor="middle" x="325.3466" y="-633" font-family="Helvetica,sans-Serif" font-size="10.00" fill="#000000"> </text>
<polyline fill="none" stroke="#bfbfbf" points="276.8466,-626 373.8466,-626 "/>
<text text-anchor="middle" x="325.3466" y="-614" font-family="Helvetica,sans-Serif" font-size="10.00" fill="#000000"> </text>
</g>
<!-- Node12&#45;&gt;Node11 -->
<g id="edge14" class="edge">
<title>Node12&#45;&gt;Node11</title>
<path fill="none" stroke="#404040" d="M332.0016,-606.6616C335.9804,-589.42 341.2753,-566.4756 346.5528,-543.6065"/>
<polygon fill="none" stroke="#404040" points="346.6055,-543.3776 344.0572,-536.6318 349.3039,-531.6849 351.8523,-538.4307 346.6055,-543.3776"/>
<text text-anchor="middle" x="365.3466" y="-553" font-family="Helvetica,sans-Serif" font-size="10.00" fill="#000000"> +object</text>
</g>
</g>
</svg>
        <g id="navigator" transform="translate(0 0)" fill="#404254">
                <rect fill="#f2f5e9" fill-opacity="0.5" stroke="#606060" stroke-width=".5" x="0" y="0" width="60" height="60"/>
                <use id="zoomplus" xlink:href="#zoomPlus" x="17" y="9" onmousedown="handleZoom(evt,'in')"/>
                <use id="zoomminus" xlink:href="#zoomMin" x="42" y="9" onmousedown="handleZoom(evt,'out')"/>
                <use id="reset" xlink:href="#resetDef" x="30" y="36" onmousedown="handleReset()"/>
                <g id="arrowUp" xlink:href="#dirArrow" transform="translate(30 24)" onmousedown="handlePan(0,-1)">
                  <use xlink:href="#rim" fill="#404040">
                        <set attributeName="fill" to="#808080" begin="arrowUp.mouseover" end="arrowUp.mouseout"/>
                  </use>
                  <path fill="none" stroke="white" stroke-width="1.5" d="M0,-3.0v7 M-2.5,-0.5L0,-3.0L2.5,-0.5"/>
                </g>
                <g id="arrowRight" xlink:href="#dirArrow" transform="rotate(90) translate(36 -43)" onmousedown="handlePan(1,0)">
                  <use xlink:href="#rim" fill="#404040">
                        <set attributeName="fill" to="#808080" begin="arrowRight.mouseover" end="arrowRight.mouseout"/>
                  </use>
                  <path fill="none" stroke="white" stroke-width="1.5" d="M0,-3.0v7 M-2.5,-0.5L0,-3.0L2.5,-0.5"/>
                </g>
                <g id="arrowDown" xlink:href="#dirArrow" transform="rotate(180) translate(-30 -48)" onmousedown="handlePan(0,1)">
                  <use xlink:href="#rim" fill="#404040">
                        <set attributeName="fill" to="#808080" begin="arrowDown.mouseover" end="arrowDown.mouseout"/>
                  </use>
                  <path fill="none" stroke="white" stroke-width="1.5" d="M0,-3.0v7 M-2.5,-0.5L0,-3.0L2.5,-0.5"/>
                </g>
                <g id="arrowLeft" xlink:href="#dirArrow" transform="rotate(270) translate(-36 17)" onmousedown="handlePan(-1,0)">
                  <use xlink:href="#rim" fill="#404040">
                        <set attributeName="fill" to="#808080" begin="arrowLeft.mouseover" end="arrowLeft.mouseout"/>
                  </use>
                  <path fill="none" stroke="white" stroke-width="1.5" d="M0,-3.0v7 M-2.5,-0.5L0,-3.0L2.5,-0.5"/>
                </g>
        </g>
        <svg viewBox="0 0 15 15" width="100%" height="30px" preserveAspectRatio="xMaxYMin meet">
         <g id="arrow_out" transform="scale(0.3 0.3)">
          <a xlink:href="structDzeroHistoTask__coll__graph_org.svg" target="_base">
           <rect id="button" ry="5" rx="5" y="6" x="6" height="38" width="38"
                fill="#f2f5e9" fill-opacity="0.5" stroke="#606060" stroke-width="1.0"/>
           <path id="arrow"
             d="M 11.500037,31.436501 C 11.940474,20.09759 22.043105,11.32322 32.158766,21.979434 L 37.068811,17.246167 C 37.068811,17.246167 37.088388,32 37.088388,32 L 22.160133,31.978069 C 22.160133,31.978069 26.997745,27.140456 26.997745,27.140456 C 18.528582,18.264221 13.291696,25.230495 11.500037,31.436501 z"
             style="fill:#404040;"/>
          </a>
         </g>
        </svg>
</svg>
