<?xml version="1.0" encoding="UTF-8" standalone="no"?>
<!DOCTYPE svg PUBLIC "-//W3C//DTD SVG 1.1//EN"
 "http://www.w3.org/Graphics/SVG/1.1/DTD/svg11.dtd">
<!-- Generated by graphviz version 2.40.1 (20161225.0304)
 -->
<!-- Title: GPUCA_NAMESPACE::gpu::GPUTPCClusterMCInterim Pages: 1 -->
<svg width="245pt" height="182pt"
 viewBox="0.00 0.00 244.50 182.00" xmlns="http://www.w3.org/2000/svg" xmlns:xlink="http://www.w3.org/1999/xlink">
<g id="graph0" class="graph" transform="scale(1 1) rotate(0) translate(4 178)">
<title>GPUCA_NAMESPACE::gpu::GPUTPCClusterMCInterim</title>
<!-- Node1 -->
<g id="node1" class="node">
<title>Node1</title>
<polygon fill="#bfbfbf" stroke="#000000" points="68.5,-.5 68.5,-68.5 215.5,-68.5 215.5,-.5 68.5,-.5"/>
<text text-anchor="start" x="76.5" y="-56.5" font-family="Helvetica,sans-Serif" font-size="10.00" fill="#000000">GPUCA_NAMESPACE::gpu</text>
<text text-anchor="middle" x="142" y="-45.5" font-family="Helvetica,sans-Serif" font-size="10.00" fill="#000000">::GPUTPCClusterMCInterim</text>
<polyline fill="none" stroke="#000000" points="68.5,-38.5 215.5,-38.5 "/>
<text text-anchor="middle" x="142" y="-26.5" font-family="Helvetica,sans-Serif" font-size="10.00" fill="#000000"> </text>
<polyline fill="none" stroke="#000000" points="68.5,-19.5 215.5,-19.5 "/>
<text text-anchor="middle" x="142" y="-7.5" font-family="Helvetica,sans-Serif" font-size="10.00" fill="#000000"> </text>
</g>
<!-- Node2 -->
<g id="node2" class="node">
<title>Node2</title>
<polygon fill="none" stroke="#bfbfbf" points="0,-116.5 0,-173.5 158,-173.5 158,-116.5 0,-116.5"/>
<text text-anchor="middle" x="79" y="-161.5" font-family="Helvetica,sans-Serif" font-size="10.00" fill="#000000">vector&lt; o2::MCCompLabel &gt;</text>
<polyline fill="none" stroke="#bfbfbf" points="0,-154.5 158,-154.5 "/>
<text text-anchor="middle" x="79" y="-142.5" font-family="Helvetica,sans-Serif" font-size="10.00" fill="#000000"> </text>
<polyline fill="none" stroke="#bfbfbf" points="0,-135.5 158,-135.5 "/>
<text text-anchor="middle" x="79" y="-123.5" font-family="Helvetica,sans-Serif" font-size="10.00" fill="#000000"> </text>
</g>
<!-- Node2&#45;&gt;Node1 -->
<g id="edge1" class="edge">
<title>Node2&#45;&gt;Node1</title>
<path fill="none" stroke="#404040" d="M95.388,-116.2559C101.8172,-104.9793 109.3471,-91.7721 116.4568,-79.3019"/>
<polygon fill="none" stroke="#404040" points="116.6148,-79.0248 116.1117,-71.8312 122.5583,-68.6001 123.0615,-75.7936 116.6148,-79.0248"/>
<text text-anchor="middle" x="131.5" y="-90" font-family="Helvetica,sans-Serif" font-size="10.00" fill="#000000"> +labels</text>
</g>
<!-- Node3 -->
<g id="node3" class="node">
<title>Node3</title>
<polygon fill="none" stroke="#bfbfbf" points="175.5,-116.5 175.5,-173.5 236.5,-173.5 236.5,-116.5 175.5,-116.5"/>
<text text-anchor="middle" x="206" y="-161.5" font-family="Helvetica,sans-Serif" font-size="10.00" fill="#000000">unsigned</text>
<polyline fill="none" stroke="#bfbfbf" points="175.5,-154.5 236.5,-154.5 "/>
<text text-anchor="middle" x="206" y="-142.5" font-family="Helvetica,sans-Serif" font-size="10.00" fill="#000000"> </text>
<polyline fill="none" stroke="#bfbfbf" points="175.5,-135.5 236.5,-135.5 "/>
<text text-anchor="middle" x="206" y="-123.5" font-family="Helvetica,sans-Serif" font-size="10.00" fill="#000000"> </text>
</g>
<!-- Node3&#45;&gt;Node1 -->
<g id="edge2" class="edge">
<title>Node3&#45;&gt;Node1</title>
<path fill="none" stroke="#404040" d="M189.3518,-116.2559C182.8206,-104.9793 175.1712,-91.7721 167.9486,-79.3019"/>
<polygon fill="none" stroke="#404040" points="167.7646,-78.9841 161.2961,-75.7969 161.7503,-68.6001 168.2188,-71.7873 167.7646,-78.9841"/>
<text text-anchor="middle" x="197" y="-90" font-family="Helvetica,sans-Serif" font-size="10.00" fill="#000000"> +offset</text>
</g>
</g>
</svg>
