<?xml version="1.0" encoding="UTF-8" standalone="no"?>
<!DOCTYPE svg PUBLIC "-//W3C//DTD SVG 1.1//EN"
 "http://www.w3.org/Graphics/SVG/1.1/DTD/svg11.dtd">
<!-- Generated by graphviz version 2.40.1 (20161225.0304)
 -->
<!-- Title: o2::framework::AnalysisDataProcessorBuilder::GroupSlicer&lt; G, A &gt;::GroupSlicerIterator Pages: 1 -->
<!--zoomable 369 -->
<svg id="main" version="1.1" xmlns="http://www.w3.org/2000/svg" xmlns:xlink="http://www.w3.org/1999/xlink" xml:space="preserve" onload="init(evt)">
<style type="text/css"><![CDATA[
.edge:hover path { stroke: red; }
.edge:hover polygon { stroke: red; fill: red; }
]]></style>
<script type="text/javascript"><![CDATA[
var edges = document.getElementsByTagName('g');
if (edges && edges.length) {
  for (var i=0;i<edges.length;i++) {
    if (edges[i].id.substr(0,4)=='edge') {
      edges[i].setAttribute('class','edge');
    }
  }
}
]]></script>
        <defs>
                <circle id="rim" cx="0" cy="0" r="7"/>
                <circle id="rim2" cx="0" cy="0" r="3.5"/>
                <g id="zoomPlus">
                        <use xlink:href="#rim" fill="#404040">
                                <set attributeName="fill" to="#808080" begin="zoomplus.mouseover" end="zoomplus.mouseout"/>
                        </use>
                        <path d="M-4,0h8M0,-4v8" fill="none" stroke="white" stroke-width="1.5" pointer-events="none"/>
                </g>
                <g id="zoomMin">
                        <use xlink:href="#rim" fill="#404040">
                                <set attributeName="fill" to="#808080" begin="zoomminus.mouseover" end="zoomminus.mouseout"/>
                        </use>
                        <path d="M-4,0h8" fill="none" stroke="white" stroke-width="1.5" pointer-events="none"/>
                </g>
                <g id="dirArrow">
                        <path fill="none" stroke="white" stroke-width="1.5" d="M0,-3.0v7 M-2.5,-0.5L0,-3.0L2.5,-0.5"/>
                </g>
               <g id="resetDef">
                       <use xlink:href="#rim2" fill="#404040">
                               <set attributeName="fill" to="#808080" begin="reset.mouseover" end="reset.mouseout"/>
                       </use>
               </g>
        </defs>

<script type="text/javascript">
var viewWidth = 1063;
var viewHeight = 369;
var sectionId = 'dynsection-0';
</script>
<script xlink:href="../../svgpan.js"/>
<svg id="graph" class="graph">
<g id="viewport">
<title>o2::framework::AnalysisDataProcessorBuilder::GroupSlicer&lt; G, A &gt;::GroupSlicerIterator</title>
<!-- Node1 -->
<g id="node1" class="node">
<title>Node1</title>
<polygon fill="#bfbfbf" stroke="#000000" points="475,-.5 475,-244.5 636,-244.5 636,-.5 475,-.5"/>
<text text-anchor="start" x="483" y="-232.5" font-family="Helvetica,sans-Serif" font-size="10.00" fill="#000000">o2::framework::AnalysisData</text>
<text text-anchor="start" x="483" y="-221.5" font-family="Helvetica,sans-Serif" font-size="10.00" fill="#000000">ProcessorBuilder::GroupSlicer</text>
<text text-anchor="middle" x="555.5" y="-210.5" font-family="Helvetica,sans-Serif" font-size="10.00" fill="#000000">&lt; G, A &gt;::GroupSlicerIterator</text>
<polyline fill="none" stroke="#000000" points="475,-203.5 636,-203.5 "/>
<text text-anchor="middle" x="555.5" y="-191.5" font-family="Helvetica,sans-Serif" font-size="10.00" fill="#000000"> </text>
<polyline fill="none" stroke="#000000" points="475,-184.5 636,-184.5 "/>
<text text-anchor="start" x="483" y="-172.5" font-family="Helvetica,sans-Serif" font-size="10.00" fill="#000000">+ GroupSlicerIterator()</text>
<text text-anchor="start" x="483" y="-161.5" font-family="Helvetica,sans-Serif" font-size="10.00" fill="#000000">+ GroupSlicerIterator()</text>
<text text-anchor="start" x="483" y="-150.5" font-family="Helvetica,sans-Serif" font-size="10.00" fill="#000000">+ GroupSlicerIterator()</text>
<text text-anchor="start" x="483" y="-139.5" font-family="Helvetica,sans-Serif" font-size="10.00" fill="#000000">+ operator=()</text>
<text text-anchor="start" x="483" y="-128.5" font-family="Helvetica,sans-Serif" font-size="10.00" fill="#000000">+ operator=()</text>
<text text-anchor="start" x="483" y="-117.5" font-family="Helvetica,sans-Serif" font-size="10.00" fill="#000000">+ getLabelFromType()</text>
<text text-anchor="start" x="483" y="-106.5" font-family="Helvetica,sans-Serif" font-size="10.00" fill="#000000">+ GroupSlicerIterator()</text>
<text text-anchor="start" x="483" y="-95.5" font-family="Helvetica,sans-Serif" font-size="10.00" fill="#000000">+ hasIndexTo()</text>
<text text-anchor="start" x="483" y="-84.5" font-family="Helvetica,sans-Serif" font-size="10.00" fill="#000000">+ isIndexTo()</text>
<text text-anchor="start" x="483" y="-73.5" font-family="Helvetica,sans-Serif" font-size="10.00" fill="#000000">+ operator++()</text>
<text text-anchor="start" x="483" y="-62.5" font-family="Helvetica,sans-Serif" font-size="10.00" fill="#000000">+ operator==()</text>
<text text-anchor="start" x="483" y="-51.5" font-family="Helvetica,sans-Serif" font-size="10.00" fill="#000000">+ operator!=()</text>
<text text-anchor="start" x="483" y="-40.5" font-family="Helvetica,sans-Serif" font-size="10.00" fill="#000000">+ groupingElement()</text>
<text text-anchor="start" x="483" y="-29.5" font-family="Helvetica,sans-Serif" font-size="10.00" fill="#000000">+ operator*()</text>
<text text-anchor="start" x="483" y="-18.5" font-family="Helvetica,sans-Serif" font-size="10.00" fill="#000000">+ associatedTables()</text>
<text text-anchor="start" x="483" y="-7.5" font-family="Helvetica,sans-Serif" font-size="10.00" fill="#000000">+ prepareArgument()</text>
</g>
<!-- Node2 -->
<g id="node2" class="node">
<title>Node2</title>
<polygon fill="none" stroke="#bfbfbf" points="0,-298 0,-355 101,-355 101,-298 0,-298"/>
<text text-anchor="middle" x="50.5" y="-343" font-family="Helvetica,sans-Serif" font-size="10.00" fill="#000000">SelectionVector *</text>
<polyline fill="none" stroke="#bfbfbf" points="0,-336 101,-336 "/>
<text text-anchor="middle" x="50.5" y="-324" font-family="Helvetica,sans-Serif" font-size="10.00" fill="#000000"> </text>
<polyline fill="none" stroke="#bfbfbf" points="0,-317 101,-317 "/>
<text text-anchor="middle" x="50.5" y="-305" font-family="Helvetica,sans-Serif" font-size="10.00" fill="#000000"> </text>
</g>
<!-- Node2&#45;&gt;Node1 -->
<g id="edge1" class="edge">
<title>Node2&#45;&gt;Node1</title>
<path fill="none" stroke="#404040" d="M98.6148,-297.962C102.5959,-295.8684 106.5916,-293.8538 110.5,-292 229.2296,-235.6857 372.0773,-183.9569 463.32,-152.8297"/>
<polygon fill="none" stroke="#404040" points="463.3762,-152.8107 467.7703,-147.0931 474.7382,-148.9501 470.3441,-154.6678 463.3762,-152.8107"/>
<text text-anchor="middle" x="212" y="-266" font-family="Helvetica,sans-Serif" font-size="10.00" fill="#000000"> +groupSelection</text>
</g>
<!-- Node3 -->
<g id="node3" class="node">
<title>Node3</title>
<polygon fill="none" stroke="#bfbfbf" points="119.5,-292.5 119.5,-360.5 271.5,-360.5 271.5,-292.5 119.5,-292.5"/>
<text text-anchor="start" x="127.5" y="-348.5" font-family="Helvetica,sans-Serif" font-size="10.00" fill="#000000">array&lt; soa::SelectionVector</text>
<text text-anchor="middle" x="195.5" y="-337.5" font-family="Helvetica,sans-Serif" font-size="10.00" fill="#000000"> const *, sizeof...(A)&gt;</text>
<polyline fill="none" stroke="#bfbfbf" points="119.5,-330.5 271.5,-330.5 "/>
<text text-anchor="middle" x="195.5" y="-318.5" font-family="Helvetica,sans-Serif" font-size="10.00" fill="#000000"> </text>
<polyline fill="none" stroke="#bfbfbf" points="119.5,-311.5 271.5,-311.5 "/>
<text text-anchor="middle" x="195.5" y="-299.5" font-family="Helvetica,sans-Serif" font-size="10.00" fill="#000000"> </text>
</g>
<!-- Node3&#45;&gt;Node1 -->
<g id="edge2" class="edge">
<title>Node3&#45;&gt;Node1</title>
<path fill="none" stroke="#404040" d="M255.7559,-292.355C312.638,-260.1218 398.7181,-211.3431 464.0606,-174.3157"/>
<polygon fill="none" stroke="#404040" points="464.3318,-174.162 467.5798,-167.7239 474.772,-168.2458 471.524,-174.684 464.3318,-174.162"/>
<text text-anchor="middle" x="333" y="-266" font-family="Helvetica,sans-Serif" font-size="10.00" fill="#000000"> +selections</text>
</g>
<!-- Node4 -->
<g id="node4" class="node">
<title>Node4</title>
<polygon fill="none" stroke="#bfbfbf" points="289.5,-292.5 289.5,-360.5 445.5,-360.5 445.5,-292.5 289.5,-292.5"/>
<text text-anchor="start" x="297.5" y="-348.5" font-family="Helvetica,sans-Serif" font-size="10.00" fill="#000000">array&lt; soa::SelectionVector</text>
<text text-anchor="middle" x="367.5" y="-337.5" font-family="Helvetica,sans-Serif" font-size="10.00" fill="#000000">::const_iterator, sizeof...(A)&gt;</text>
<polyline fill="none" stroke="#bfbfbf" points="289.5,-330.5 445.5,-330.5 "/>
<text text-anchor="middle" x="367.5" y="-318.5" font-family="Helvetica,sans-Serif" font-size="10.00" fill="#000000"> </text>
<polyline fill="none" stroke="#bfbfbf" points="289.5,-311.5 445.5,-311.5 "/>
<text text-anchor="middle" x="367.5" y="-299.5" font-family="Helvetica,sans-Serif" font-size="10.00" fill="#000000"> </text>
</g>
<!-- Node4&#45;&gt;Node1 -->
<g id="edge3" class="edge">
<title>Node4&#45;&gt;Node1</title>
<path fill="none" stroke="#404040" d="M398.967,-292.355C417.6557,-272.0758 442.3797,-245.2475 466.6452,-218.9169"/>
<polygon fill="none" stroke="#404040" points="466.7152,-218.8409 467.8399,-211.7181 474.8474,-210.0166 473.7227,-217.1395 466.7152,-218.8409"/>
<text text-anchor="middle" x="442.5" y="-266" font-family="Helvetica,sans-Serif" font-size="10.00" fill="#000000"> +starts</text>
</g>
<!-- Node5 -->
<g id="node5" class="node">
<title>Node5</title>
<polygon fill="none" stroke="#bfbfbf" points="464,-298 464,-355 517,-355 517,-298 464,-298"/>
<text text-anchor="middle" x="490.5" y="-343" font-family="Helvetica,sans-Serif" font-size="10.00" fill="#000000">iterator</text>
<polyline fill="none" stroke="#bfbfbf" points="464,-336 517,-336 "/>
<text text-anchor="middle" x="490.5" y="-324" font-family="Helvetica,sans-Serif" font-size="10.00" fill="#000000"> </text>
<polyline fill="none" stroke="#bfbfbf" points="464,-317 517,-317 "/>
<text text-anchor="middle" x="490.5" y="-305" font-family="Helvetica,sans-Serif" font-size="10.00" fill="#000000"> </text>
</g>
<!-- Node5&#45;&gt;Node1 -->
<g id="edge4" class="edge">
<title>Node5&#45;&gt;Node1</title>
<path fill="none" stroke="#404040" d="M489.0535,-297.747C489.1109,-286.7538 489.9239,-274.178 492.5,-263 493.029,-260.7044 493.5963,-258.4003 494.1986,-256.0911"/>
<polygon fill="none" stroke="#404040" points="494.2071,-256.0609 491.9988,-249.1962 497.4861,-244.5176 499.6944,-251.3822 494.2071,-256.0609"/>
<text text-anchor="middle" x="545.5" y="-266" font-family="Helvetica,sans-Serif" font-size="10.00" fill="#000000"> +mGroupingElement</text>
</g>
<!-- Node6 -->
<g id="node6" class="node">
<title>Node6</title>
<polygon fill="none" stroke="#bfbfbf" points="535,-292.5 535,-360.5 706,-360.5 706,-292.5 535,-292.5"/>
<text text-anchor="start" x="543" y="-348.5" font-family="Helvetica,sans-Serif" font-size="10.00" fill="#000000">array&lt; std::vector</text>
<text text-anchor="middle" x="620.5" y="-337.5" font-family="Helvetica,sans-Serif" font-size="10.00" fill="#000000">&lt; arrow::Datum &gt;, sizeof...(A)&gt;</text>
<polyline fill="none" stroke="#bfbfbf" points="535,-330.5 706,-330.5 "/>
<text text-anchor="middle" x="620.5" y="-318.5" font-family="Helvetica,sans-Serif" font-size="10.00" fill="#000000"> </text>
<polyline fill="none" stroke="#bfbfbf" points="535,-311.5 706,-311.5 "/>
<text text-anchor="middle" x="620.5" y="-299.5" font-family="Helvetica,sans-Serif" font-size="10.00" fill="#000000"> </text>
</g>
<!-- Node6&#45;&gt;Node1 -->
<g id="edge5" class="edge">
<title>Node6&#45;&gt;Node1</title>
<path fill="none" stroke="#404040" d="M609.6205,-292.355C606.2662,-281.8277 602.3496,-269.5355 598.1847,-256.4643"/>
<polygon fill="none" stroke="#404040" points="598.1118,-256.2354 592.479,-251.7329 594.4687,-244.8017 600.1015,-249.3042 598.1118,-256.2354"/>
<text text-anchor="middle" x="625" y="-266" font-family="Helvetica,sans-Serif" font-size="10.00" fill="#000000"> +groups</text>
</g>
<!-- Node7 -->
<g id="node7" class="node">
<title>Node7</title>
<polygon fill="none" stroke="#bfbfbf" points="724,-292.5 724,-360.5 869,-360.5 869,-292.5 724,-292.5"/>
<text text-anchor="start" x="732" y="-348.5" font-family="Helvetica,sans-Serif" font-size="10.00" fill="#000000">array&lt; std::vector</text>
<text text-anchor="middle" x="796.5" y="-337.5" font-family="Helvetica,sans-Serif" font-size="10.00" fill="#000000">&lt; uint64_t &gt;, sizeof...(A)&gt;</text>
<polyline fill="none" stroke="#bfbfbf" points="724,-330.5 869,-330.5 "/>
<text text-anchor="middle" x="796.5" y="-318.5" font-family="Helvetica,sans-Serif" font-size="10.00" fill="#000000"> </text>
<polyline fill="none" stroke="#bfbfbf" points="724,-311.5 869,-311.5 "/>
<text text-anchor="middle" x="796.5" y="-299.5" font-family="Helvetica,sans-Serif" font-size="10.00" fill="#000000"> </text>
</g>
<!-- Node7&#45;&gt;Node1 -->
<g id="edge6" class="edge">
<title>Node7&#45;&gt;Node1</title>
<path fill="none" stroke="#404040" d="M756.162,-292.355C726.0209,-266.8414 683.6335,-230.9616 645.5778,-198.7484"/>
<polygon fill="none" stroke="#404040" points="645.1652,-198.3992 638.0013,-197.5758 636.006,-190.6462 643.17,-191.4696 645.1652,-198.3992"/>
<text text-anchor="middle" x="754" y="-266" font-family="Helvetica,sans-Serif" font-size="10.00" fill="#000000"> +offsets</text>
</g>
<!-- Node8 -->
<g id="node8" class="node">
<title>Node8</title>
<polygon fill="none" stroke="#bfbfbf" points="887,-298 887,-355 948,-355 948,-298 887,-298"/>
<text text-anchor="middle" x="917.5" y="-343" font-family="Helvetica,sans-Serif" font-size="10.00" fill="#000000">unsigned</text>
<polyline fill="none" stroke="#bfbfbf" points="887,-336 948,-336 "/>
<text text-anchor="middle" x="917.5" y="-324" font-family="Helvetica,sans-Serif" font-size="10.00" fill="#000000"> </text>
<polyline fill="none" stroke="#bfbfbf" points="887,-317 948,-317 "/>
<text text-anchor="middle" x="917.5" y="-305" font-family="Helvetica,sans-Serif" font-size="10.00" fill="#000000"> </text>
</g>
<!-- Node8&#45;&gt;Node1 -->
<g id="edge7" class="edge">
<title>Node8&#45;&gt;Node1</title>
<path fill="none" stroke="#404040" d="M886.9747,-298.2976C884.1755,-296.0817 881.3278,-293.9503 878.5,-292 804.6717,-241.0831 713.6817,-194.6295 647.1101,-163.2826"/>
<polygon fill="none" stroke="#404040" points="647.0951,-163.2756 639.9653,-164.3556 636.2261,-158.1896 643.3559,-157.1097 647.0951,-163.2756"/>
<text text-anchor="middle" x="871" y="-266" font-family="Helvetica,sans-Serif" font-size="10.00" fill="#000000"> +position</text>
</g>
<!-- Node9 -->
<g id="node9" class="node">
<title>Node9</title>
<polygon fill="none" stroke="#bfbfbf" points="966.5,-298 966.5,-355 1054.5,-355 1054.5,-298 966.5,-298"/>
<text text-anchor="middle" x="1010.5" y="-343" font-family="Helvetica,sans-Serif" font-size="10.00" fill="#000000">tuple&lt; A... &gt; *</text>
<polyline fill="none" stroke="#bfbfbf" points="966.5,-336 1054.5,-336 "/>
<text text-anchor="middle" x="1010.5" y="-324" font-family="Helvetica,sans-Serif" font-size="10.00" fill="#000000"> </text>
<polyline fill="none" stroke="#bfbfbf" points="966.5,-317 1054.5,-317 "/>
<text text-anchor="middle" x="1010.5" y="-305" font-family="Helvetica,sans-Serif" font-size="10.00" fill="#000000"> </text>
</g>
<!-- Node9&#45;&gt;Node1 -->
<g id="edge8" class="edge">
<title>Node9&#45;&gt;Node1</title>
<path fill="none" stroke="#404040" d="M967.3486,-297.8765C964.041,-295.847 960.7323,-293.8672 957.5,-292 932.8879,-277.7823 926.3516,-274.8151 900.5,-263 815.9475,-224.3565 717.572,-184.8114 647.5564,-157.5614"/>
<polygon fill="none" stroke="#404040" points="647.3206,-157.4699 640.2797,-159.0273 636.134,-153.127 643.175,-151.5696 647.3206,-157.4699"/>
<text text-anchor="middle" x="939.5" y="-266" font-family="Helvetica,sans-Serif" font-size="10.00" fill="#000000"> +mAt</text>
</g>
</g>
</svg>
        <g id="navigator" transform="translate(0 0)" fill="#404254">
                <rect fill="#f2f5e9" fill-opacity="0.5" stroke="#606060" stroke-width=".5" x="0" y="0" width="60" height="60"/>
                <use id="zoomplus" xlink:href="#zoomPlus" x="17" y="9" onmousedown="handleZoom(evt,'in')"/>
                <use id="zoomminus" xlink:href="#zoomMin" x="42" y="9" onmousedown="handleZoom(evt,'out')"/>
                <use id="reset" xlink:href="#resetDef" x="30" y="36" onmousedown="handleReset()"/>
                <g id="arrowUp" xlink:href="#dirArrow" transform="translate(30 24)" onmousedown="handlePan(0,-1)">
                  <use xlink:href="#rim" fill="#404040">
                        <set attributeName="fill" to="#808080" begin="arrowUp.mouseover" end="arrowUp.mouseout"/>
                  </use>
                  <path fill="none" stroke="white" stroke-width="1.5" d="M0,-3.0v7 M-2.5,-0.5L0,-3.0L2.5,-0.5"/>
                </g>
                <g id="arrowRight" xlink:href="#dirArrow" transform="rotate(90) translate(36 -43)" onmousedown="handlePan(1,0)">
                  <use xlink:href="#rim" fill="#404040">
                        <set attributeName="fill" to="#808080" begin="arrowRight.mouseover" end="arrowRight.mouseout"/>
                  </use>
                  <path fill="none" stroke="white" stroke-width="1.5" d="M0,-3.0v7 M-2.5,-0.5L0,-3.0L2.5,-0.5"/>
                </g>
                <g id="arrowDown" xlink:href="#dirArrow" transform="rotate(180) translate(-30 -48)" onmousedown="handlePan(0,1)">
                  <use xlink:href="#rim" fill="#404040">
                        <set attributeName="fill" to="#808080" begin="arrowDown.mouseover" end="arrowDown.mouseout"/>
                  </use>
                  <path fill="none" stroke="white" stroke-width="1.5" d="M0,-3.0v7 M-2.5,-0.5L0,-3.0L2.5,-0.5"/>
                </g>
                <g id="arrowLeft" xlink:href="#dirArrow" transform="rotate(270) translate(-36 17)" onmousedown="handlePan(-1,0)">
                  <use xlink:href="#rim" fill="#404040">
                        <set attributeName="fill" to="#808080" begin="arrowLeft.mouseover" end="arrowLeft.mouseout"/>
                  </use>
                  <path fill="none" stroke="white" stroke-width="1.5" d="M0,-3.0v7 M-2.5,-0.5L0,-3.0L2.5,-0.5"/>
                </g>
        </g>
        <svg viewBox="0 0 15 15" width="100%" height="30px" preserveAspectRatio="xMaxYMin meet">
         <g id="arrow_out" transform="scale(0.3 0.3)">
          <a xlink:href="structo2_1_1framework_1_1AnalysisDataProcessorBuilder_1_1GroupSlicer_1_1GroupSlicerIterator__coll__graph_org.svg" target="_base">
           <rect id="button" ry="5" rx="5" y="6" x="6" height="38" width="38"
                fill="#f2f5e9" fill-opacity="0.5" stroke="#606060" stroke-width="1.0"/>
           <path id="arrow"
             d="M 11.500037,31.436501 C 11.940474,20.09759 22.043105,11.32322 32.158766,21.979434 L 37.068811,17.246167 C 37.068811,17.246167 37.088388,32 37.088388,32 L 22.160133,31.978069 C 22.160133,31.978069 26.997745,27.140456 26.997745,27.140456 C 18.528582,18.264221 13.291696,25.230495 11.500037,31.436501 z"
             style="fill:#404040;"/>
          </a>
         </g>
        </svg>
</svg>
